<svg width="26" height="18" viewBox="0 0 26 18" fill="none" xmlns="http://www.w3.org/2000/svg">
<g id="Group">
<path id="Vector" d="M25.4652 9.7985C25.3755 9.15135 24.7085 8.63363 23.459 8.25529C22.4484 7.95163 21.1691 7.76744 19.7752 7.73757V2.42595C19.7752 2.31643 19.7403 2.21189 19.6706 2.12726C19.5064 1.5498 18.8393 1.08186 17.6844 0.733393C16.5643 0.394883 15.1008 0.210693 13.5625 0.210693C12.0293 0.210693 10.5806 0.394883 9.48546 0.733393C8.58443 1.01217 7.50418 1.52989 7.50418 2.42097C7.50418 2.47573 7.50916 2.53049 7.51912 2.58524L7.57387 4.85526C4.34309 4.23299 1.22182 6.35864 0.60454 9.5944C0.534847 9.9578 0.5 10.3312 0.5 10.7045C0.5 13.9901 3.17324 16.6633 6.45878 16.6633C7.82776 16.6633 9.15193 16.1904 10.2172 15.3292C11.1531 15.5482 12.2483 15.6677 13.4082 15.6776C13.6621 17.0566 16.6489 17.6888 19.4367 17.6888C20.9699 17.6888 22.4136 17.4996 23.5187 17.1561C24.4247 16.8774 25.5 16.3547 25.5 15.4636V9.99265C25.5 9.92793 25.49 9.85824 25.4652 9.7985ZM9.78415 1.68421C10.7897 1.37557 12.1338 1.20133 13.5675 1.20133C14.9912 1.20133 16.3851 1.37557 17.4006 1.68421C18.4809 2.01276 18.7149 2.35127 18.7149 2.42097C18.7149 2.49066 18.4809 2.83415 17.3957 3.15773C16.3851 3.46139 14.9912 3.6406 13.5675 3.6406C12.1935 3.6406 10.8893 3.4813 9.89865 3.19257C8.82835 2.88393 8.52967 2.54044 8.50478 2.43092C8.50478 2.42097 8.50478 2.41599 8.4998 2.41599C8.50478 2.3463 8.73377 2.00779 9.78415 1.68421ZM18.7796 3.66549V4.93988C18.7348 5.00958 18.7099 5.0942 18.7149 5.17883C18.7149 5.24355 18.4809 5.58704 17.3957 5.91559C16.3851 6.21925 14.9863 6.39847 13.5625 6.39847C12.3329 6.39847 11.1282 6.26904 10.1724 6.02511C10.1575 6.02013 10.1476 6.02013 10.1326 6.01515C9.6597 5.6418 9.137 5.34809 8.57447 5.13403L8.53963 3.73021C8.88311 3.90444 9.24154 4.04383 9.61489 4.14339C10.6951 4.45701 12.094 4.62626 13.5625 4.62626C15.1008 4.62626 16.5643 4.44207 17.6794 4.10356C18.0627 3.99902 18.4311 3.84968 18.7796 3.66549ZM9.79908 14.3734C7.773 16.2202 4.63182 16.0709 2.78992 14.0448C0.948029 12.0187 1.09239 8.87756 3.11848 7.03566C4.03445 6.20432 5.22421 5.74136 6.45878 5.74136C6.95659 5.74136 7.4544 5.81603 7.9323 5.96039C9.65472 6.50301 10.954 7.93172 11.3274 9.69894C11.3921 10.0275 11.4269 10.366 11.4269 10.6995C11.4269 12.1034 10.8345 13.4375 9.79908 14.3734ZM11.0635 14.4829C11.4667 13.9901 11.7903 13.4375 12.0193 12.8451C12.4425 12.8799 12.8905 12.9048 13.3485 12.9098V12.9994L13.3734 14.687C12.6018 14.677 11.8301 14.6073 11.0635 14.4829ZM12.3877 10.1121C12.6814 10.132 12.9851 10.142 13.2937 10.147C13.2937 10.1569 13.2987 10.1719 13.2987 10.1818L13.3286 11.9092C12.9751 11.9042 12.6316 11.8893 12.2981 11.8644C12.3728 11.4811 12.4126 11.0878 12.4126 10.6995C12.4176 10.5054 12.4076 10.3112 12.3877 10.1121ZM13.6123 9.15633H13.5675C13.0896 9.15633 12.6266 9.13642 12.1985 9.10655C12.0094 8.43948 11.7107 7.81224 11.3074 7.2547C12.0542 7.34928 12.8059 7.39906 13.5625 7.39906C15.1008 7.39906 16.5643 7.21487 17.6844 6.87636C18.0677 6.75689 18.4311 6.61252 18.7796 6.42833V7.74753C16.639 7.80727 14.4287 8.2553 13.6123 9.15633ZM14.2794 9.92296C14.3292 9.78357 14.6926 9.45999 15.7131 9.17126C16.6838 8.89747 17.9482 8.74813 19.2774 8.74813H19.3421C20.7658 8.74813 22.1597 8.9124 23.1752 9.22105C24.2256 9.53964 24.4745 9.85824 24.4894 9.94287V9.94785C24.4845 10.0225 24.2356 10.366 23.1304 10.6946C22.1099 10.9982 20.7658 11.1625 19.3421 11.1625C17.998 11.1625 16.7137 11.0082 15.728 10.7344C14.7772 10.4656 14.3939 10.1619 14.2993 10.0076C14.2943 9.97772 14.2893 9.94785 14.2794 9.92296ZM24.5044 15.4636C24.5044 15.5333 24.2804 15.8768 23.225 16.2053C22.2145 16.5189 20.8704 16.6932 19.4367 16.6932C17.998 16.6932 16.6539 16.5239 15.6583 16.2202C14.6029 15.8967 14.3889 15.5631 14.3889 15.4885V15.4785L14.364 14.0398C15.5488 14.6422 17.5251 14.916 19.3371 14.916C20.8753 14.916 22.329 14.7318 23.444 14.3933C23.8124 14.2838 24.1659 14.1344 24.5044 13.9552V15.4636ZM24.4596 12.7057C24.4596 12.7754 24.2306 13.1139 23.1553 13.4425C22.1348 13.7511 20.7808 13.9204 19.3371 13.9204C16.6041 13.9204 14.7523 13.3081 14.3441 12.8252L14.3341 12.3971L14.3142 11.2571C14.6776 11.4413 15.056 11.5856 15.4492 11.6902C16.5195 11.9889 17.8984 12.1581 19.3321 12.1581C20.8455 12.1581 22.2891 11.9789 23.3992 11.6504C23.7826 11.5408 24.1509 11.3965 24.4994 11.2123V12.4917H24.5044C24.5044 12.5564 24.4596 12.631 24.4596 12.7057Z" fill="#333366"/>
<path id="Vector_2" d="M8.9427 13.3629C8.84314 13.104 8.55939 12.9796 8.30053 13.0742V13.0692C7.35967 13.4276 6.29933 13.1986 5.59245 12.4867C5.44808 12.3573 5.32861 12.203 5.239 12.0337H7.79774C8.07154 12.0337 8.29555 11.8097 8.29555 11.5359C8.29555 11.2621 8.07154 11.0381 7.79774 11.0381H4.8756C4.84573 10.8589 4.84075 10.6747 4.86066 10.4905H8.0566C8.3304 10.4905 8.55441 10.2665 8.55441 9.99271C8.55441 9.71892 8.3304 9.4949 8.0566 9.4949H5.15437C5.27385 9.28084 5.41821 9.0867 5.58747 8.90749C6.29933 8.2006 7.35967 7.9716 8.29555 8.33501C8.55441 8.43457 8.83816 8.30514 8.93773 8.05125C9.03729 7.79239 8.90786 7.50864 8.65397 7.40908C7.34971 6.90629 5.87122 7.21991 4.88058 8.21055C4.5122 8.57395 4.23342 9.01203 4.05919 9.49988H3.3523C3.07851 9.49988 2.85449 9.72389 2.85449 9.99769C2.85449 10.2715 3.07851 10.4955 3.3523 10.4955H3.85011C3.84016 10.6797 3.84016 10.8589 3.86007 11.0431H3.3523C3.07851 11.0431 2.85449 11.2671 2.85449 11.5409C2.85449 11.8147 3.07851 12.0387 3.3523 12.0387H4.11395C4.28321 12.4718 4.54704 12.8701 4.88058 13.1986C5.86624 14.1892 7.34474 14.5078 8.65397 14.0051C8.91284 13.9055 9.03729 13.6217 8.9427 13.3629Z" fill="#333366"/>
</g>
</svg>
