<svg width="44" height="43" viewBox="0 0 44 43" fill="none" xmlns="http://www.w3.org/2000/svg">
<g id="Bank" clip-path="url(#clip0_5_17262)">
<g id="Group">
<path id="Vector" d="M21.6054 6.64844C19.4485 6.64844 17.6943 8.36179 17.6943 10.4685C17.6943 12.5753 19.4485 14.2885 21.6054 14.2885C23.7623 14.2885 25.5163 12.5752 25.5163 10.4685C25.5163 8.36188 23.7622 6.64844 21.6054 6.64844ZM21.6054 12.3795C20.5269 12.3795 19.6489 11.5219 19.6489 10.4685C19.6489 9.41516 20.5269 8.55759 21.6054 8.55759C22.6838 8.55759 23.5618 9.41516 23.5618 10.4685C23.5618 11.5219 22.6838 12.3795 21.6054 12.3795Z" fill="#3B3C3B"/>
<path id="Vector_2" d="M42.1302 18.1037C42.6704 18.1037 43.1075 17.6793 43.1075 17.1518V13.334C43.1075 12.9976 42.9262 12.6853 42.6294 12.5138L23.5123 1.42487C23.5037 1.41923 23.4951 1.41458 23.4866 1.40993C22.2984 0.766772 20.9584 0.747263 19.7015 1.42299L0.585584 12.5138C0.439806 12.5982 0.319048 12.7182 0.235202 12.862C0.151357 13.0058 0.107318 13.1685 0.107422 13.334V17.1518C0.107422 17.6793 0.544538 18.1037 1.08473 18.1037H4.01655V35.2863C1.86056 35.2863 0.107422 36.9985 0.107422 39.1041V41.9675C0.10735 42.0928 0.13258 42.217 0.18167 42.3328C0.230759 42.4487 0.302746 42.5539 0.393512 42.6426C0.484279 42.7312 0.592045 42.8015 0.71065 42.8495C0.829254 42.8974 0.956369 42.922 1.08473 42.9219H42.1302C42.2586 42.922 42.3857 42.8974 42.5043 42.8495C42.6229 42.8015 42.7307 42.7312 42.8214 42.6426C42.9122 42.5539 42.9842 42.4487 43.0333 42.3328C43.0824 42.217 43.1076 42.0928 43.1075 41.9675V39.1041C43.1075 36.9985 41.3544 35.2863 39.1984 35.2863V18.1037H42.1302ZM41.1529 39.1037V41.0128H2.06194V39.1037C2.06194 38.0513 2.93901 37.1947 4.01646 37.1947H39.1984C40.2758 37.1946 41.1529 38.0513 41.1529 39.1037ZM5.97106 35.2855V18.1037H9.88019V35.2855H5.97106ZM11.8347 35.2855V18.1037H17.6983V35.2855H11.8347ZM19.6529 35.2855V18.1037H23.562V35.2855H19.6529ZM25.5165 35.2855V18.1037H31.3801V35.2855H25.5165ZM33.3348 35.2855V18.1037H37.2439V35.2855H33.3348ZM2.06194 16.1946V13.8744L20.6712 3.07612C21.2801 2.74895 21.9271 2.74984 22.5284 3.06958L41.1529 13.8744V16.1946H2.06194Z" fill="#3B3C3B"/>
</g>
</g>
<defs>
<clipPath id="clip0_5_17262">
<rect width="43" height="42" fill="white" transform="translate(0.107422 0.921875)"/>
</clipPath>
</defs>
</svg>
