<svg width="24" height="25" viewBox="0 0 24 25" fill="none" xmlns="http://www.w3.org/2000/svg">
<g id="li:briefcase">
<path id="Vector (Stroke)" fill-rule="evenodd" clip-rule="evenodd" d="M4 8.38623C3.44772 8.38623 3 8.83395 3 9.38623V19.3862C3 19.9385 3.44772 20.3862 4 20.3862H20C20.5523 20.3862 21 19.9385 21 19.3862V9.38623C21 8.83395 20.5523 8.38623 20 8.38623H4ZM1 9.38623C1 7.72938 2.34315 6.38623 4 6.38623H20C21.6569 6.38623 23 7.72938 23 9.38623V19.3862C23 21.0431 21.6569 22.3862 20 22.3862H4C2.34315 22.3862 1 21.0431 1 19.3862V9.38623Z" fill="#404040"/>
<path id="Vector (Stroke)_2" fill-rule="evenodd" clip-rule="evenodd" d="M7.87868 3.26491C8.44129 2.7023 9.20435 2.38623 10 2.38623H14C14.7956 2.38623 15.5587 2.7023 16.1213 3.26491C16.6839 3.82752 17 4.59058 17 5.38623V21.3862C17 21.9385 16.5523 22.3862 16 22.3862C15.4477 22.3862 15 21.9385 15 21.3862V5.38623C15 5.12101 14.8946 4.86666 14.7071 4.67912C14.5196 4.49159 14.2652 4.38623 14 4.38623H10C9.73478 4.38623 9.48043 4.49159 9.29289 4.67912C9.10536 4.86666 9 5.12101 9 5.38623V21.3862C9 21.9385 8.55228 22.3862 8 22.3862C7.44772 22.3862 7 21.9385 7 21.3862V5.38623C7 4.59058 7.31607 3.82752 7.87868 3.26491Z" fill="#404040"/>
</g>
</svg>
