<svg width="60" height="39" viewBox="0 0 60 39" fill="none" xmlns="http://www.w3.org/2000/svg">
<rect x="0.698242" y="0.211426" width="58.4779" height="38.5569" rx="6.24835" fill="white"/>
<path fill-rule="evenodd" clip-rule="evenodd" d="M18.4509 26.3461H14.9082L12.2517 16.601C12.1256 16.1528 11.8579 15.7565 11.4641 15.5697C10.4812 15.1003 9.39825 14.7268 8.2168 14.5383V14.1632H13.9237C14.7113 14.1632 15.3021 14.7268 15.4005 15.3813L16.7789 22.4107L20.3198 14.1632H23.764L18.4509 26.3461ZM25.732 26.3461H22.3863L25.1413 14.1632H28.487L25.732 26.3461ZM32.8164 17.5266C32.9148 16.8705 33.5056 16.4953 34.1947 16.4953C35.2777 16.4011 36.4575 16.5895 37.442 17.0572L38.0327 14.4342C37.0482 14.059 35.9652 13.8706 34.9824 13.8706C31.7351 13.8706 29.3722 15.5581 29.3722 17.9002C29.3722 19.6819 31.0459 20.6174 32.2274 21.181C33.5056 21.743 33.9978 22.1182 33.8994 22.6801C33.8994 23.5231 32.9148 23.8983 31.932 23.8983C30.7506 23.8983 29.5691 23.6173 28.4878 23.1479L27.8971 25.7726C29.0786 26.2403 30.3567 26.4287 31.5382 26.4287C35.1793 26.5213 37.442 24.8354 37.442 22.3049C37.442 19.1183 32.8164 18.9315 32.8164 17.5266ZM49.1504 26.3461L46.4939 14.1632H43.6404C43.0497 14.1632 42.459 14.5383 42.2621 15.1003L37.3428 26.3461H40.787L41.4744 24.566H45.7062L46.1001 26.3461H49.1504ZM44.1346 17.4418L45.1175 22.034H42.3621L44.1346 17.4418Z" fill="#172B85"/>
</svg>
