<svg width="60" height="39" viewBox="0 0 60 39" fill="none" xmlns="http://www.w3.org/2000/svg">
<rect x="0.250977" y="0.211426" width="58.8184" height="38.5587" rx="4.23266" fill="white"/>
<path fill-rule="evenodd" clip-rule="evenodd" d="M30.0788 27.7733C28.0762 29.4259 25.4783 30.4235 22.6394 30.4235C16.3061 30.4235 11.1719 25.4582 11.1719 19.3331C11.1719 13.208 16.3061 8.24268 22.6394 8.24268C25.4783 8.24268 28.0762 9.24034 30.0788 10.8929C32.0815 9.24034 34.6794 8.24268 37.5183 8.24268C43.8516 8.24268 48.9858 13.208 48.9858 19.3331C48.9858 25.4582 43.8516 30.4235 37.5183 30.4235C34.6794 30.4235 32.0815 29.4259 30.0788 27.7733Z" fill="#ED0006"/>
<path fill-rule="evenodd" clip-rule="evenodd" d="M30.0781 27.7741C32.5437 25.7399 34.1071 22.7131 34.1071 19.3331C34.1071 15.9531 32.5437 12.9263 30.0781 10.8921C32.0806 9.24002 34.6782 8.24268 37.5166 8.24268C43.85 8.24268 48.9841 13.208 48.9841 19.3331C48.9841 25.4582 43.85 30.4235 37.5166 30.4235C34.6782 30.4235 32.0806 29.4262 30.0781 27.7741Z" fill="#F9A000"/>
<path fill-rule="evenodd" clip-rule="evenodd" d="M30.0779 27.7715C32.5429 25.7373 34.1059 22.7108 34.1059 19.3313C34.1059 15.9518 32.5429 12.9253 30.0779 10.8911C27.6128 12.9253 26.0498 15.9518 26.0498 19.3313C26.0498 22.7108 27.6128 25.7373 30.0779 27.7715Z" fill="#FF5E00"/>
</svg>
