<svg width="24" height="25" viewBox="0 0 24 25" fill="none" xmlns="http://www.w3.org/2000/svg">
<path fill-rule="evenodd" clip-rule="evenodd" d="M14.8352 6.71138C12.2709 5.68564 9.15879 6.27054 7.35049 8.26227L7.35034 8.26243C6.46007 9.24251 5.90169 10.4785 5.75473 11.7944C5.60777 13.1103 5.87972 14.439 6.53184 15.5913C7.18396 16.7437 8.18302 17.6609 9.38677 18.2124C10.5905 18.7639 11.9376 18.9216 13.2361 18.663L13.2364 18.6629C15.8491 18.1433 17.7965 15.781 18.3163 13.1819C18.4092 12.7173 18.8612 12.416 19.3258 12.5089C19.7904 12.6018 20.0917 13.0538 19.9988 13.5184C19.3747 16.6389 17.0095 19.662 13.571 20.3458C11.9184 20.6749 10.204 20.4742 8.67207 19.7723C7.14003 19.0704 5.8685 17.903 5.03853 16.4364C4.20855 14.9698 3.86244 13.2787 4.04948 11.6039C4.23651 9.92924 4.94711 8.35624 6.08011 7.10888M6.08025 7.10872C8.42205 4.52954 12.3174 3.85621 15.4725 5.11825C15.9124 5.29422 16.1264 5.79351 15.9504 6.23344C15.7745 6.67337 15.2752 6.88735 14.8352 6.71138" fill="#43B750"/>
<path fill-rule="evenodd" clip-rule="evenodd" d="M19.7392 7.00053C20.0873 7.32192 20.1091 7.86469 19.7877 8.21286L12.9243 15.6482C12.7659 15.8198 12.5444 15.9194 12.311 15.9241C12.0776 15.9287 11.8523 15.8381 11.6872 15.673L8.82745 12.8132C8.49241 12.4782 8.49241 11.9349 8.82745 11.5999C9.16249 11.2649 9.7057 11.2649 10.0407 11.5999L12.2691 13.8283L18.5269 7.04903C18.8482 6.70086 19.391 6.67915 19.7392 7.00053Z" fill="#43B750"/>
</svg>
