<svg width="24" height="25" viewBox="0 0 24 25" fill="none" xmlns="http://www.w3.org/2000/svg">
<path fill-rule="evenodd" clip-rule="evenodd" d="M14.8352 6.71138C12.2709 5.68564 9.15879 6.27054 7.35049 8.26227L7.35034 8.26243C6.46007 9.24251 5.90169 10.4785 5.75473 11.7944C5.60777 13.1103 5.87972 14.439 6.53184 15.5913C7.18396 16.7437 8.18302 17.6609 9.38677 18.2124C10.5905 18.7639 11.9376 18.9216 13.2361 18.663L13.2364 18.6629C15.8491 18.1433 17.7965 15.781 18.3163 13.1819C18.4092 12.7173 18.8612 12.416 19.3258 12.5089C19.7904 12.6018 20.0917 13.0538 19.9988 13.5184C19.3747 16.6389 17.0095 19.662 13.571 20.3458C11.9184 20.6749 10.204 20.4742 8.67207 19.7723C7.14003 19.0704 5.8685 17.903 5.03853 16.4364C4.20855 14.9698 3.86244 13.2787 4.04948 11.6039C4.23651 9.92924 4.94711 8.35624 6.08011 7.10888M6.08025 7.10872C8.42205 4.52954 12.3174 3.85621 15.4725 5.11825C15.9124 5.29422 16.1264 5.79351 15.9504 6.23344C15.7745 6.67337 15.2752 6.88735 14.8352 6.71138" fill="#37156D"/>
<path fill-rule="evenodd" clip-rule="evenodd" d="M19.7394 7.00096C20.0876 7.32234 20.1093 7.86512 19.7879 8.21328L12.9245 15.6487C12.7661 15.8202 12.5447 15.9198 12.3112 15.9245C12.0778 15.9292 11.8525 15.8385 11.6874 15.6734L8.82767 12.8136C8.49263 12.4786 8.49263 11.9354 8.82767 11.6003C9.16271 11.2653 9.70592 11.2653 10.041 11.6003L12.2693 13.8287L18.5271 7.04945C18.8485 6.70129 19.3912 6.67958 19.7394 7.00096Z" fill="#37156D"/>
</svg>
