<svg width="22" height="24" viewBox="0 0 22 24" fill="none" xmlns="http://www.w3.org/2000/svg">
<g id="Group">
<path id="Vector" d="M13.6737 11.8024C14.8933 11.1992 15.873 10.2012 16.4537 8.97069C17.0344 7.74019 17.1818 6.34946 16.8721 5.02456C16.5623 3.69965 15.8136 2.51843 14.7476 1.67289C13.6816 0.827352 12.361 0.367187 11.0003 0.367188C9.63969 0.367188 8.31905 0.827352 7.25304 1.67289C6.18703 2.51843 5.43831 3.69965 5.12857 5.02456C4.81883 6.34946 4.96628 7.74019 5.54695 8.97069C6.12762 10.2012 7.10738 11.1992 8.32699 11.8024C6.20827 12.387 4.33962 13.6501 3.00727 15.3981C1.67492 17.1461 0.952334 19.2827 0.950195 21.4806V22.4857C0.950195 22.7522 1.05608 23.0078 1.24456 23.1963C1.43303 23.3848 1.68866 23.4907 1.95521 23.4907H20.0454C20.312 23.4907 20.5676 23.3848 20.7561 23.1963C20.9446 23.0078 21.0505 22.7522 21.0505 22.4857V21.4806C21.0483 19.2827 20.3257 17.1461 18.9934 15.3981C17.661 13.6501 15.7924 12.387 13.6737 11.8024ZM6.98027 6.40545C6.98027 5.61036 7.21604 4.83312 7.65777 4.17203C8.0995 3.51093 8.72735 2.99567 9.46192 2.6914C10.1965 2.38714 11.0048 2.30752 11.7846 2.46264C12.5644 2.61775 13.2807 3.00063 13.8429 3.56284C14.4051 4.12506 14.788 4.84136 14.9431 5.62117C15.0982 6.40099 15.0186 7.20929 14.7144 7.94385C14.4101 8.67842 13.8948 9.30627 13.2337 9.748C12.5727 10.1897 11.7954 10.4255 11.0003 10.4255C9.93414 10.4255 8.91162 10.002 8.15772 9.24805C7.40381 8.49415 6.98027 7.47163 6.98027 6.40545ZM2.96022 21.4806C2.96022 19.3483 3.8073 17.3032 5.31511 15.7954C6.82292 14.2876 8.86796 13.4405 11.0003 13.4405C13.1327 13.4405 15.1777 14.2876 16.6855 15.7954C18.1933 17.3032 19.0404 19.3483 19.0404 21.4806H2.96022Z" fill="#37156D"/>
</g>
</svg>
