<svg width="24" height="25" viewBox="0 0 24 25" fill="none" xmlns="http://www.w3.org/2000/svg">
<g id="li:clipboard-list">
<path id="Vector (Stroke)" fill-rule="evenodd" clip-rule="evenodd" d="M6 5.3999C5.73478 5.3999 5.48043 5.50526 5.29289 5.6928C5.10536 5.88033 5 6.13469 5 6.3999V20.3999C5 20.6651 5.10536 20.9195 5.29289 21.107C5.48043 21.2945 5.73478 21.3999 6 21.3999H18C18.2652 21.3999 18.5196 21.2945 18.7071 21.107C18.8946 20.9195 19 20.6651 19 20.3999V6.3999C19 6.13469 18.8946 5.88033 18.7071 5.6928C18.5196 5.50526 18.2652 5.3999 18 5.3999H16C15.4477 5.3999 15 4.95219 15 4.3999C15 3.84762 15.4477 3.3999 16 3.3999H18C18.7956 3.3999 19.5587 3.71597 20.1213 4.27858C20.6839 4.84119 21 5.60425 21 6.3999V20.3999C21 21.1956 20.6839 21.9586 20.1213 22.5212C19.5587 23.0838 18.7957 23.3999 18 23.3999H6C5.20435 23.3999 4.44129 23.0838 3.87868 22.5212C3.31607 21.9586 3 21.1956 3 20.3999V6.3999C3 5.60425 3.31607 4.84119 3.87868 4.27858C4.44129 3.71597 5.20435 3.3999 6 3.3999H8C8.55228 3.3999 9 3.84762 9 4.3999C9 4.95219 8.55228 5.3999 8 5.3999H6Z" fill="#404040"/>
<path id="Vector (Stroke)_2" fill-rule="evenodd" clip-rule="evenodd" d="M7.58579 1.98569C7.96086 1.61062 8.46957 1.3999 9 1.3999H15C15.5304 1.3999 16.0391 1.61062 16.4142 1.98569C16.7893 2.36076 17 2.86947 17 3.3999V5.3999C17 5.93034 16.7893 6.43904 16.4142 6.81412C16.0391 7.18919 15.5304 7.3999 15 7.3999H9C8.46957 7.3999 7.96086 7.18919 7.58579 6.81412C7.21071 6.43904 7 5.93034 7 5.3999V3.3999C7 2.86947 7.21071 2.36076 7.58579 1.98569ZM15 3.3999H9L9 5.3999H15V3.3999Z" fill="#404040"/>
<path id="Vector (Stroke)_3" fill-rule="evenodd" clip-rule="evenodd" d="M11 11.3999C11 10.8476 11.4477 10.3999 12 10.3999H16C16.5523 10.3999 17 10.8476 17 11.3999C17 11.9522 16.5523 12.3999 16 12.3999H12C11.4477 12.3999 11 11.9522 11 11.3999Z" fill="#404040"/>
<path id="Vector (Stroke)_4" fill-rule="evenodd" clip-rule="evenodd" d="M11 16.3999C11 15.8476 11.4477 15.3999 12 15.3999H16C16.5523 15.3999 17 15.8476 17 16.3999C17 16.9522 16.5523 17.3999 16 17.3999H12C11.4477 17.3999 11 16.9522 11 16.3999Z" fill="#404040"/>
<path id="Vector (Stroke)_5" fill-rule="evenodd" clip-rule="evenodd" d="M7 11.3999C7 10.8476 7.44772 10.3999 8 10.3999H8.01C8.56228 10.3999 9.01 10.8476 9.01 11.3999C9.01 11.9522 8.56228 12.3999 8.01 12.3999H8C7.44772 12.3999 7 11.9522 7 11.3999Z" fill="#404040"/>
<path id="Vector (Stroke)_6" fill-rule="evenodd" clip-rule="evenodd" d="M7 16.3999C7 15.8476 7.44772 15.3999 8 15.3999H8.01C8.56228 15.3999 9.01 15.8476 9.01 16.3999C9.01 16.9522 8.56228 17.3999 8.01 17.3999H8C7.44772 17.3999 7 16.9522 7 16.3999Z" fill="#404040"/>
</g>
</svg>
