<svg width="34" height="34" viewBox="0 0 34 34" fill="none" xmlns="http://www.w3.org/2000/svg">
<g id="bi:cloud-upload" clip-path="url(#clip0_452_32247)">
<g id="Group">
<path id="Vector" fill-rule="evenodd" clip-rule="evenodd" d="M9.36226 2.85175C11.4862 1.02029 14.195 0.00879434 16.9995 0C22.7158 0 27.4609 4.25 27.9773 9.73038C31.3603 10.2085 33.9995 13.0411 33.9995 16.5176C33.9995 20.3341 30.8163 23.375 26.9594 23.375H21.2495C20.9677 23.375 20.6975 23.2631 20.4982 23.0638C20.299 22.8645 20.187 22.5943 20.187 22.3125C20.187 22.0307 20.299 21.7605 20.4982 21.5612C20.6975 21.3619 20.9677 21.25 21.2495 21.25H26.9615C29.7049 21.25 31.8745 19.0995 31.8745 16.5176C31.8745 13.9336 29.707 11.7831 26.9594 11.7831H25.8969V10.7206C25.899 6.00313 21.9465 2.125 16.9995 2.125C14.7042 2.13417 12.4878 2.96317 10.7499 4.4625C9.14126 5.848 8.29976 7.51825 8.29976 8.82938V9.78137L7.35414 9.8855C4.38551 10.2106 2.12451 12.648 2.12451 15.5507C2.12451 18.6681 4.73826 21.25 8.03414 21.25H12.7495C13.0313 21.25 13.3016 21.3619 13.5008 21.5612C13.7001 21.7605 13.812 22.0307 13.812 22.3125C13.812 22.5943 13.7001 22.8645 13.5008 23.0638C13.3016 23.2631 13.0313 23.375 12.7495 23.375H8.03414C3.62901 23.375 -0.000488281 19.9028 -0.000488281 15.5507C-0.000488281 11.8044 2.68976 8.70187 6.25126 7.91562C6.55514 6.08175 7.73451 4.25425 9.36226 2.85175Z" fill="#B9B9B9"/>
<path id="Vector_2" fill-rule="evenodd" clip-rule="evenodd" d="M16.2476 8.8102C16.3463 8.71125 16.4636 8.63275 16.5927 8.57918C16.7217 8.52562 16.8601 8.49805 16.9999 8.49805C17.1396 8.49805 17.278 8.52562 17.4071 8.57918C17.5362 8.63275 17.6534 8.71125 17.7521 8.8102L24.1271 15.1852C24.3266 15.3847 24.4387 15.6553 24.4387 15.9374C24.4387 16.2196 24.3266 16.4902 24.1271 16.6897C23.9276 16.8892 23.657 17.0013 23.3749 17.0013C23.0927 17.0013 22.8221 16.8892 22.6226 16.6897L18.0624 12.1273V30.8124C18.0624 31.0942 17.9504 31.3645 17.7512 31.5637C17.5519 31.763 17.2817 31.8749 16.9999 31.8749C16.7181 31.8749 16.4478 31.763 16.2486 31.5637C16.0493 31.3645 15.9374 31.0942 15.9374 30.8124V12.1273L11.3771 16.6897C11.1776 16.8892 10.907 17.0013 10.6249 17.0013C10.3427 17.0013 10.0721 16.8892 9.87263 16.6897C9.67312 16.4902 9.56104 16.2196 9.56104 15.9374C9.56104 15.6553 9.67312 15.3847 9.87263 15.1852L16.2476 8.8102Z" fill="#B9B9B9"/>
</g>
</g>
<defs>
<clipPath id="clip0_452_32247">
<rect width="34" height="34" fill="white" transform="translate(-0.000488281)"/>
</clipPath>
</defs>
</svg>
