<svg width="26" height="26" viewBox="0 0 26 26" fill="none" xmlns="http://www.w3.org/2000/svg">
<g id="svgexport-17 (4) 1" clip-path="url(#clip0_391_33481)">
<g id="Group">
<path id="Vector" d="M1.4 24.9498H4.6C4.70609 24.9498 4.80783 24.9077 4.88284 24.8327C4.95786 24.7576 5 24.6559 5 24.5498V24.1098L7.8632 23.8218C8.31317 23.7762 8.76771 23.817 9.2024 23.9418L10.7224 24.3786C11.1139 24.491 11.5191 24.5481 11.9264 24.5482H14.09C14.7157 24.5491 15.3341 24.4144 15.9028 24.1534L19.8316 22.3574C20.4539 22.0722 21.0011 21.6457 21.4296 21.1118L24.7372 16.9854C24.9308 16.7444 25.0241 16.4381 24.9979 16.13C24.9717 15.822 24.8279 15.5359 24.5964 15.331L24.5028 15.2482C24.2839 15.0545 24.0016 14.9479 23.7094 14.9485C23.4171 14.9491 23.1353 15.0569 22.9172 15.2514L19.1848 18.5806C18.8767 18.8561 18.523 19.0759 18.1396 19.2302L15.29 20.3766C15.2182 20.4055 15.1395 20.4125 15.0637 20.3969C14.9879 20.3812 14.9185 20.3436 14.864 20.2886L14.4588 19.8806L17 18.807C17.0169 18.7997 17.0333 18.7914 17.0492 18.7822C17.4311 18.5539 17.7496 18.2335 17.9756 17.8502C18.0939 17.6532 18.153 17.4263 18.1461 17.1966C18.1392 16.9669 18.0665 16.7441 17.9366 16.5545C17.8068 16.3649 17.6252 16.2166 17.4135 16.1272C17.2018 16.0378 16.9688 16.0111 16.7424 16.0502L12.4568 16.8102C11.9027 16.9084 11.3729 17.1133 10.8968 17.4134L9.3368 18.3946C8.76893 18.7527 8.11137 18.943 7.44 18.9434H5V18.5498C5 18.4437 4.95786 18.342 4.88284 18.267C4.80783 18.192 4.70609 18.1498 4.6 18.1498H1.4C1.29391 18.1498 1.19217 18.192 1.11716 18.267C1.04214 18.342 1 18.4437 1 18.5498V24.5498C1 24.6559 1.04214 24.7576 1.11716 24.8327C1.19217 24.9077 1.29391 24.9498 1.4 24.9498ZM5 19.7434H7.44C8.26194 19.7435 9.06717 19.5112 9.7628 19.0734L11.3228 18.0922C11.712 17.8469 12.145 17.6796 12.598 17.5994L16.8836 16.8394C16.9579 16.8258 17.0347 16.8341 17.1044 16.8634C17.174 16.8926 17.2337 16.9416 17.276 17.0042C17.3209 17.0683 17.3461 17.1441 17.3484 17.2223C17.3506 17.3005 17.3299 17.3777 17.2888 17.4442C17.1355 17.7053 16.9208 17.925 16.6632 18.0842L13.6 19.3758C13.5398 19.4013 13.4867 19.4412 13.4455 19.492C13.4042 19.5428 13.3761 19.6029 13.3635 19.6671C13.3509 19.7313 13.3542 19.7976 13.3732 19.8602C13.3922 19.9228 13.4263 19.9798 13.4724 20.0262L14.2952 20.8538C14.4603 21.0207 14.671 21.135 14.9009 21.1825C15.1307 21.23 15.3695 21.2084 15.5872 21.1206L18.4368 19.9738C18.9063 19.7851 19.3394 19.5161 19.7168 19.179L23.4488 15.8498C23.521 15.786 23.614 15.7507 23.7104 15.7507C23.8068 15.7507 23.8998 15.786 23.972 15.8498L24.0652 15.9322C24.1428 16.0009 24.191 16.0969 24.1998 16.2002C24.2086 16.3035 24.1773 16.4062 24.1124 16.487L20.804 20.613C20.4534 21.0488 20.0061 21.3969 19.4976 21.6298L15.5688 23.4258C15.1045 23.6389 14.5996 23.7489 14.0888 23.7482H11.9248C11.5924 23.7481 11.2616 23.7015 10.942 23.6098L9.422 23.173C8.8897 23.0199 8.33308 22.9698 7.782 23.0254L4.9988 23.3054L5 19.7434ZM1.8 18.9498H4.2V24.1498H1.8V18.9498Z" fill="#E20000"/>
<path id="Vector_2" d="M2.59961 22.5497H3.39961V23.3497H2.59961V22.5497ZM10.9996 5.74966H11.7996C12.0118 5.74966 12.2153 5.83394 12.3653 5.98397C12.5153 6.134 12.5996 6.33749 12.5996 6.54966H13.3996C13.3996 6.12531 13.231 5.71835 12.931 5.41829C12.6309 5.11823 12.224 4.94966 11.7996 4.94966V4.14966H10.9996V4.94966C10.5753 4.94966 10.1683 5.11823 9.86824 5.41829C9.56818 5.71835 9.39961 6.12531 9.39961 6.54966C9.39961 6.974 9.56818 7.38097 9.86824 7.68103C10.1683 7.98109 10.5753 8.14966 10.9996 8.14966H11.7996C12.0118 8.14966 12.2153 8.23394 12.3653 8.38397C12.5153 8.534 12.5996 8.73748 12.5996 8.94966C12.5996 9.16183 12.5153 9.36531 12.3653 9.51534C12.2153 9.66537 12.0118 9.74966 11.7996 9.74966H10.9996C10.7874 9.74966 10.584 9.66537 10.4339 9.51534C10.2839 9.36531 10.1996 9.16183 10.1996 8.94966H9.39961C9.39961 9.374 9.56818 9.78097 9.86824 10.081C10.1683 10.3811 10.5753 10.5497 10.9996 10.5497V11.3497H11.7996V10.5497C12.224 10.5497 12.6309 10.3811 12.931 10.081C13.231 9.78097 13.3996 9.374 13.3996 8.94966C13.3996 8.52531 13.231 8.11835 12.931 7.81829C12.6309 7.51823 12.224 7.34966 11.7996 7.34966H10.9996C10.7874 7.34966 10.584 7.26537 10.4339 7.11534C10.2839 6.96531 10.1996 6.76183 10.1996 6.54966C10.1996 6.33749 10.2839 6.134 10.4339 5.98397C10.584 5.83394 10.7874 5.74966 10.9996 5.74966Z" fill="#E20000"/>
<path id="Vector_3" d="M17.8002 9.48211C17.8002 9.41879 17.7852 9.35636 17.7565 9.29997C17.7277 9.24357 17.6859 9.19481 17.6346 9.15771L15.6834 7.74611L17.6342 6.33811C17.6856 6.30104 17.7274 6.25231 17.7563 6.19591C17.7851 6.13951 17.8002 6.07706 17.8002 6.01371C17.8002 5.95036 17.7851 5.88791 17.7563 5.83151C17.7274 5.77511 17.6856 5.72637 17.6342 5.68931L15.6838 4.28171L16.3822 3.77811C16.4279 3.74519 16.4661 3.70299 16.4943 3.65429C16.5226 3.60558 16.5402 3.55146 16.5461 3.49547C16.552 3.43948 16.546 3.38287 16.5285 3.32935C16.511 3.27584 16.4824 3.22661 16.4446 3.18491C15.5225 2.16684 14.3138 1.45187 12.9775 1.13414C11.6412 0.816408 10.24 0.910812 8.95834 1.40492C7.67673 1.89903 6.5748 2.76968 5.79763 3.90223C5.02046 5.03479 4.60449 6.37615 4.60449 7.74971C4.60449 9.12327 5.02046 10.4646 5.79763 11.5972C6.5748 12.7297 7.67673 13.6004 8.95834 14.0945C10.24 14.5886 11.6412 14.683 12.9775 14.3653C14.3138 14.0475 15.5225 13.3326 16.4446 12.3145C16.4823 12.2729 16.5109 12.2237 16.5283 12.1703C16.5458 12.1169 16.5518 12.0604 16.546 12.0046C16.5402 11.9487 16.5227 11.8946 16.4946 11.846C16.4665 11.7973 16.4285 11.7551 16.383 11.7221L15.683 11.2145L17.6342 9.80611C17.6855 9.76909 17.7273 9.72041 17.7562 9.66409C17.785 9.60776 17.8001 9.54539 17.8002 9.48211ZM14.7662 10.8893C14.7149 10.9264 14.6731 10.9751 14.6443 11.0315C14.6155 11.0878 14.6005 11.1502 14.6005 11.2135C14.6005 11.2768 14.6155 11.3392 14.6443 11.3956C14.6731 11.4519 14.7149 11.5006 14.7662 11.5377L15.539 12.0977C14.6883 12.9065 13.6191 13.448 12.4637 13.6551C11.3084 13.8623 10.1176 13.726 9.03892 13.2632C7.96024 12.8003 7.041 12.0312 6.39506 11.0512C5.74911 10.0711 5.40481 8.9231 5.40481 7.74931C5.40481 6.57552 5.74911 5.42751 6.39506 4.44744C7.041 3.46738 7.96024 2.6983 9.03892 2.23546C10.1176 1.77262 11.3084 1.63633 12.4637 1.84349C13.6191 2.05064 14.6883 2.59213 15.539 3.40091L14.7662 3.95731C14.7148 3.99437 14.673 4.04311 14.6441 4.09951C14.6153 4.15591 14.6002 4.21836 14.6002 4.28171C14.6002 4.34506 14.6153 4.40751 14.6441 4.46391C14.673 4.52031 14.7148 4.56904 14.7662 4.60611L16.7166 6.01371L14.7662 7.42131C14.7149 7.45838 14.6731 7.5071 14.6443 7.56346C14.6155 7.61982 14.6005 7.68221 14.6005 7.74551C14.6005 7.8088 14.6155 7.8712 14.6443 7.92756C14.6731 7.98392 14.7149 8.03263 14.7662 8.06971L16.7174 9.48131L14.7662 10.8893ZM18.6002 4.54971H19.4002V5.34971H18.6002V4.54971ZM20.2002 6.14971H21.0002V6.94971H20.2002V6.14971ZM17.4002 2.94971H18.2002V3.74971H17.4002V2.94971ZM18.2002 7.34971H19.0002V8.14971H18.2002V7.34971ZM20.6002 8.14971H21.4002V8.94971H20.6002V8.14971ZM19.0002 9.74971H19.8002V10.5497H19.0002V9.74971ZM17.8002 11.3497H18.6002V12.1497H17.8002V11.3497Z" fill="#E20000"/>
</g>
</g>
<defs>
<clipPath id="clip0_391_33481">
<rect width="25.6" height="25.6" fill="white" transform="translate(0.200195 0.149658)"/>
</clipPath>
</defs>
</svg>
