<svg width="136" height="96" viewBox="0 0 136 96" fill="none" xmlns="http://www.w3.org/2000/svg">
<g id="Group">
<path id="Vector" d="M135.81 52.6172C135.323 49.0967 131.694 46.2803 124.897 44.2221C119.399 42.5702 112.44 41.5682 104.857 41.4057V12.5104C104.857 11.9147 104.667 11.346 104.288 10.8856C103.395 7.74422 99.7658 5.19862 93.4831 3.30296C87.3899 1.46146 79.4281 0.459473 71.0601 0.459473C62.7192 0.459473 54.8387 1.46146 48.8809 3.30296C43.9793 4.81949 38.1027 7.63589 38.1027 12.4834C38.1027 12.7813 38.1298 13.0791 38.184 13.377L38.4819 25.7259C20.9064 22.3408 3.92672 33.9043 0.568698 51.5069C0.189566 53.4838 0 55.5148 0 57.5459C0 75.4192 14.5424 89.9616 32.4158 89.9616C39.863 89.9616 47.0665 87.389 52.8618 82.704C57.953 83.8955 63.9108 84.5455 70.2206 84.5996C71.6017 92.101 87.8503 95.5403 103.016 95.5403C111.356 95.5403 119.21 94.5112 125.222 92.6427C130.151 91.1261 136 88.2826 136 83.4352V53.6733C136 53.3213 135.946 52.9421 135.81 52.6172ZM50.5058 8.4754C55.9761 6.79639 63.2879 5.84856 71.0872 5.84856C78.8323 5.84856 86.415 6.79639 91.9395 8.4754C97.816 10.2627 99.0888 12.1042 99.0888 12.4834C99.0888 12.8625 97.816 14.7311 91.9124 16.4913C86.415 18.1433 78.8323 19.1182 71.0872 19.1182C63.6129 19.1182 56.5177 18.2516 51.1286 16.6809C45.3063 15.0019 43.6814 13.1333 43.546 12.5375C43.546 12.4834 43.546 12.4563 43.5189 12.4563C43.546 12.0772 44.7917 10.2357 50.5058 8.4754ZM99.4409 19.2536V26.1863C99.1971 26.5654 99.0617 27.0258 99.0888 27.4862C99.0888 27.8382 97.816 29.7068 91.9124 31.4941C86.415 33.146 78.8053 34.121 71.0601 34.121C64.3712 34.121 57.8176 33.4169 52.6181 32.0899C52.5368 32.0628 52.4827 32.0628 52.4014 32.0357C49.8288 30.0047 46.9853 28.4069 43.9251 27.2424L43.7356 19.6056C45.6041 20.5535 47.554 21.3117 49.585 21.8533C55.4616 23.5594 63.0713 24.4802 71.0601 24.4802C79.4281 24.4802 87.3899 23.4782 93.456 21.6367C95.5412 21.068 97.5452 20.2556 99.4409 19.2536ZM50.587 77.5045C39.5651 87.5515 22.4771 86.739 12.4572 75.7171C2.43728 64.6952 3.22262 47.6072 14.2445 37.5873C19.2274 33.0648 25.6997 30.5463 32.4158 30.5463C35.1239 30.5463 37.8319 30.9525 40.4317 31.7378C49.8017 34.6897 56.8698 42.4619 58.9008 52.0756C59.2529 53.8629 59.4425 55.7044 59.4425 57.5188C59.4425 65.1556 56.2198 72.4133 50.587 77.5045ZM57.4655 78.1002C59.6591 75.4192 61.4193 72.4133 62.6651 69.1906C64.9669 69.3802 67.4042 69.5156 69.8957 69.5427V70.0302L70.0311 79.2105C65.8335 79.1564 61.636 78.7773 57.4655 78.1002ZM64.6691 54.3233C66.2668 54.4316 67.9188 54.4857 69.5978 54.5128C69.5978 54.567 69.6248 54.6482 69.6248 54.7024L69.7873 64.0994C67.8646 64.0724 65.996 63.9911 64.1816 63.8557C64.5878 61.7705 64.8045 59.6311 64.8045 57.5188C64.8315 56.4627 64.7774 55.4065 64.6691 54.3233ZM71.3309 49.1237H71.0872C68.4874 49.1237 65.9689 49.0154 63.64 48.8529C62.6109 45.2241 60.9861 41.8119 58.7925 38.7789C62.8546 39.2934 66.9438 39.5642 71.0601 39.5642C79.4281 39.5642 87.3899 38.5622 93.4831 36.7207C95.5683 36.0708 97.5452 35.2854 99.4409 34.2834V41.4599C87.7961 41.7848 75.7722 44.2221 71.3309 49.1237ZM74.9598 53.2942C75.2306 52.5359 77.2075 50.7757 82.7591 49.205C88.0398 47.7155 94.9184 46.9031 102.149 46.9031H102.501C110.246 46.9031 117.829 47.7968 123.353 49.4758C129.067 51.209 130.421 52.9421 130.503 53.4025V53.4296C130.475 53.8358 129.121 55.7044 123.11 57.4917C117.558 59.1437 110.246 60.0373 102.501 60.0373C95.1892 60.0373 88.2023 59.1978 82.8403 57.7084C77.6679 56.246 75.5826 54.5941 75.0681 53.7546C75.041 53.5921 75.0139 53.4296 74.9598 53.2942ZM130.584 83.4352C130.584 83.8143 129.365 85.6829 123.624 87.4702C118.127 89.1763 110.815 90.1241 103.016 90.1241C95.1892 90.1241 87.8773 89.2034 82.4612 87.5514C76.72 85.7912 75.5555 83.9768 75.5555 83.5706V83.5164L75.4202 75.69C81.8654 78.9668 92.6165 80.4563 102.474 80.4563C110.842 80.4563 118.749 79.4543 124.816 77.6128C126.82 77.017 128.742 76.2046 130.584 75.2297V83.4352ZM130.34 68.4324C130.34 68.8115 129.094 70.653 123.245 72.4403C117.693 74.1194 110.327 75.0401 102.474 75.0401C87.6065 75.0401 77.5325 71.7092 75.3118 69.0823L75.2577 66.7534L75.1493 60.5519C77.1262 61.5538 79.1844 62.3392 81.3238 62.9079C87.1461 64.5327 94.6475 65.4535 102.447 65.4535C110.679 65.4535 118.533 64.4786 124.572 62.6912C126.657 62.0955 128.661 61.3101 130.557 60.3081V67.2679H130.584C130.584 67.62 130.34 68.0262 130.34 68.4324Z" fill="#333366"/>
<path id="Vector_2" d="M45.929 72.0071C45.3873 70.5989 43.8437 69.9219 42.4355 70.4364V70.4094C37.3172 72.3592 31.549 71.1135 27.7035 67.2409C26.9182 66.5368 26.2683 65.6973 25.7808 64.7765H39.7004C41.1898 64.7765 42.4084 63.5579 42.4084 62.0685C42.4084 60.579 41.1898 59.3604 39.7004 59.3604H23.8039C23.6414 58.3855 23.6143 57.3835 23.7227 56.3815H41.1086C42.598 56.3815 43.8166 55.1628 43.8166 53.6734C43.8166 52.1839 42.598 50.9653 41.1086 50.9653H25.3204C25.9704 49.8008 26.7557 48.7447 27.6765 47.7698C31.549 43.9243 37.3172 42.6786 42.4084 44.6555C43.8166 45.1971 45.3603 44.493 45.9019 43.1119C46.4435 41.7037 45.7394 40.1601 44.3583 39.6184C37.2631 36.8833 29.2201 38.5894 23.831 43.9785C21.827 45.9554 20.3105 48.3385 19.3626 50.9924H15.5172C14.0277 50.9924 12.8091 52.211 12.8091 53.7005C12.8091 55.1899 14.0277 56.4086 15.5172 56.4086H18.2253C18.1711 57.4106 18.1711 58.3855 18.2794 59.3875H15.5172C14.0277 59.3875 12.8091 60.6061 12.8091 62.0955C12.8091 63.585 14.0277 64.8036 15.5172 64.8036H19.6605C20.5813 67.1597 22.0166 69.3261 23.831 71.1135C29.193 76.5026 37.236 78.2357 44.3583 75.5006C45.7665 74.9589 46.4435 73.4153 45.929 72.0071Z" fill="#333366"/>
</g>
</svg>
