<svg width="30" height="27" viewBox="0 0 30 27" fill="none" xmlns="http://www.w3.org/2000/svg">
<g id="Group">
<path id="Vector" d="M22.9339 11.3241C22.9332 11.3185 22.9328 11.3129 22.932 11.3074C22.9282 11.2798 22.9226 11.2525 22.9154 11.2256L22.9151 11.2247C22.908 11.1993 22.8994 11.1743 22.8894 11.1499C22.8866 11.1428 22.8834 11.1361 22.8804 11.1291C22.8724 11.1113 22.8637 11.0937 22.8542 11.0766C22.8501 11.0691 22.8461 11.0615 22.8416 11.0541C22.8392 11.0501 22.8373 11.046 22.8348 11.042C22.8248 11.026 22.8138 11.011 22.8027 10.9962C22.8006 10.9934 22.7989 10.9905 22.7968 10.9878C22.7799 10.9661 22.7617 10.9454 22.7423 10.926C22.7387 10.9223 22.7347 10.9189 22.731 10.9154C22.7144 10.8994 22.697 10.8843 22.6789 10.8701C22.6743 10.8665 22.6698 10.8629 22.6651 10.8594C22.6409 10.8415 22.616 10.8248 22.59 10.8103L12.5907 5.12646L18.348 1.5011L28 6.9874L23.935 9.54709C23.6178 9.74677 23.5225 10.1659 23.7223 10.4831C23.922 10.8003 24.341 10.8955 24.6582 10.6958L29.6826 7.53201C29.7819 7.46952 29.8633 7.38233 29.9188 7.27898C29.9744 7.17563 30.0022 7.05964 29.9995 6.94233C29.9969 6.82504 29.9639 6.71043 29.9037 6.60969C29.8436 6.50896 29.7583 6.42554 29.6563 6.36759L18.6655 0.120162C18.5587 0.0594894 18.4375 0.0289048 18.3148 0.0316658C18.192 0.0344268 18.0723 0.07043 17.9684 0.135841L10.9126 4.57887L10.9083 4.58158L7.3825 6.80177C7.38089 6.80277 7.37928 6.80379 7.37768 6.80482L0.317075 11.2509C0.217772 11.3134 0.136375 11.4006 0.0808326 11.5039C0.0252897 11.6073 -0.00250019 11.7233 0.000176619 11.8406C0.00279915 11.9579 0.0357944 12.0725 0.0959407 12.1732C0.156087 12.274 0.241328 12.3574 0.343342 12.4153L11.3343 18.6628C11.441 18.7235 11.5622 18.7541 11.6849 18.7513C11.8077 18.7485 11.9274 18.7125 12.0312 18.6471L17.0556 15.4832C17.3728 15.2836 17.4681 14.8645 17.2683 14.5473C17.0687 14.23 16.6495 14.1348 16.3323 14.3346L11.6518 17.2819L1.99978 11.7954L7.75716 8.17002L18.0514 14.0215V21.7713C18.0514 21.8927 18.084 22.0118 18.1457 22.1163C18.2073 22.2208 18.2959 22.3068 18.4021 22.3655C18.5084 22.4241 18.6284 22.4532 18.7497 22.4497C18.871 22.4463 18.9891 22.4103 19.0918 22.3457L22.6221 20.1226C22.7192 20.0615 22.7992 19.9768 22.8547 19.8763C22.9101 19.7759 22.9392 19.663 22.9392 19.5483V11.4035C22.9392 11.3995 22.9385 11.3957 22.9384 11.3917C22.938 11.3691 22.9365 11.3465 22.9339 11.3241ZM19.4089 20.5419V13.6267C19.4089 13.5067 19.3771 13.389 19.3168 13.2853C19.2565 13.1817 19.1698 13.0959 19.0655 13.0366L9.06032 7.3495L11.2874 5.94705L20.9394 11.4334L20.0943 11.9655C19.777 12.1652 19.6818 12.5843 19.8816 12.9015C19.9427 12.9988 20.0275 13.0789 20.1281 13.1344C20.2287 13.1898 20.3417 13.2189 20.4566 13.2187C20.5843 13.2187 20.7095 13.1825 20.8175 13.1142L21.5817 12.6331V19.1737L19.4089 20.5419Z" fill="#37156D"/>
<path id="Vector_2" d="M28.9596 9.09816L23.9352 12.2619C23.618 12.4616 23.5228 12.8807 23.7225 13.1979C23.7836 13.2951 23.8685 13.3753 23.9691 13.4307C24.0696 13.4862 24.1827 13.5152 24.2975 13.5151C24.4253 13.5151 24.5505 13.4789 24.6585 13.4106L29.6828 10.2468C30.0001 10.0472 30.0953 9.62804 29.8955 9.31087C29.6959 8.99363 29.2768 8.89834 28.9596 9.09816ZM16.3325 17.0494L11.6519 19.9967L1.01423 13.9501C0.688577 13.765 0.27401 13.8787 0.0887846 14.2048C-0.0964404 14.5306 0.0175181 14.945 0.343443 15.1302L11.3344 21.3776C11.4411 21.4383 11.5623 21.4689 11.685 21.4662C11.8078 21.4634 11.9275 21.4274 12.0314 21.362L17.0557 18.1981C17.3729 17.9985 17.4682 17.5793 17.2684 17.2622C17.0688 16.9449 16.6496 16.8496 16.3325 17.0494ZM28.9596 11.8131L23.9352 14.9768C23.618 15.1765 23.5228 15.5956 23.7225 15.9128C23.7836 16.01 23.8685 16.0902 23.9691 16.1457C24.0696 16.2011 24.1827 16.2301 24.2975 16.23C24.4253 16.23 24.5505 16.1938 24.6585 16.1255L29.6828 12.9618C30.0001 12.7621 30.0953 12.343 29.8955 12.0258C29.6959 11.7085 29.2768 11.6133 28.9596 11.8131Z" fill="#37156D"/>
<path id="Vector_3" d="M16.3325 19.7644L11.6519 22.7117L1.01423 16.6651C0.688577 16.4799 0.27401 16.5937 0.0887846 16.9198C-0.0964404 17.2456 0.0175181 17.66 0.343443 17.8452L11.3344 24.0926C11.4411 24.1533 11.5623 24.1839 11.685 24.1812C11.8078 24.1784 11.9275 24.1424 12.0314 24.077L17.0557 20.9131C17.3729 20.7134 17.4682 20.2943 17.2684 19.9772C17.0688 19.6598 16.6496 19.5646 16.3325 19.7644ZM28.9596 14.5281L23.9352 17.6918C23.618 17.8915 23.5228 18.3106 23.7225 18.6278C23.7836 18.725 23.8685 18.8052 23.9691 18.8606C24.0696 18.9161 24.1827 18.9451 24.2975 18.945C24.4253 18.945 24.5505 18.9088 24.6585 18.8405L29.6828 15.6767C30.0001 15.4771 30.0953 15.0579 29.8955 14.7408C29.6959 14.4235 29.2768 14.3283 28.9596 14.5281Z" fill="#37156D"/>
<path id="Vector_4" d="M16.3325 22.4793L11.6519 25.4266L1.01423 19.38C0.688577 19.1949 0.27401 19.3086 0.0887846 19.6347C-0.0964404 19.9606 0.0175181 20.3749 0.343443 20.5601L11.3344 26.8076C11.4411 26.8683 11.5623 26.8989 11.685 26.8961C11.8078 26.8934 11.9275 26.8573 12.0314 26.7919L17.0557 23.6281C17.3729 23.4284 17.4682 23.0093 17.2684 22.6921C17.0688 22.3748 16.6496 22.2795 16.3325 22.4793Z" fill="#37156D"/>
</g>
</svg>
