<svg width="20" height="21" viewBox="0 0 20 21" fill="none" xmlns="http://www.w3.org/2000/svg">
<g id="ri:funds-line">
<path id="Vector" d="M3.67507 12.7474L6.51007 9.91236L8.86757 12.2699L11.4984 9.63902L10.0042 8.14486H14.1709V12.3115L12.6767 10.8174L8.86757 14.6265L6.51007 12.2699L4.44841 14.3315C5.38458 15.7406 6.82142 16.741 8.46777 17.1301C10.1141 17.5193 11.8468 17.2679 13.3148 16.4271C14.7827 15.5863 15.8761 14.2188 16.3733 12.6019C16.8706 10.9849 16.7346 9.23936 15.9928 7.71897C15.251 6.19857 13.9589 5.01705 12.3784 4.41381C10.7979 3.81057 9.04723 3.83075 7.48106 4.47025C5.91489 5.10975 4.65041 6.32074 3.94385 7.85782C3.23729 9.3949 3.14151 11.1431 3.67591 12.7482L3.67507 12.7474ZM2.39424 14.0457L2.38591 14.0374L2.38924 14.034C1.91418 12.9674 1.66941 11.8125 1.67091 10.6449C1.67091 6.04236 5.40174 2.31152 10.0042 2.31152C14.6067 2.31152 18.3376 6.04236 18.3376 10.6449C18.3376 15.2474 14.6067 18.9782 10.0042 18.9782C6.61257 18.9782 3.69591 16.9532 2.39424 14.0457Z" fill="#333366"/>
</g>
</svg>
