<svg width="70" height="71" viewBox="0 0 70 71" fill="none" xmlns="http://www.w3.org/2000/svg">
<g id="uiw:loading" clip-path="url(#clip0_5_18410)">
<path id="Vector" fill-rule="evenodd" clip-rule="evenodd" d="M14 39.3633C14 41.2198 13.2625 43.0003 11.9497 44.313C10.637 45.6258 8.85651 46.3633 7 46.3633C5.14348 46.3633 3.363 45.6258 2.05025 44.313C0.737501 43.0003 -1.76404e-06 41.2198 -1.68289e-06 39.3633C-1.60174e-06 37.5068 0.737502 35.7263 2.05025 34.4135C3.36301 33.1008 5.14348 32.3633 7 32.3633C8.85651 32.3633 10.637 33.1008 11.9497 34.4135C13.2625 35.7263 14 37.5068 14 39.3633ZM24.5 17.4568C24.5 19.7774 23.5781 22.003 21.9372 23.644C20.2962 25.2849 18.0706 26.2068 15.75 26.2068C13.4294 26.2068 11.2038 25.2849 9.56282 23.644C7.92187 22.003 7 19.7774 7 17.4568C7 15.1361 7.92187 12.9105 9.56282 11.2696C11.2038 9.62865 13.4294 8.70678 15.75 8.70678C18.0706 8.70678 20.2962 9.62865 21.9372 11.2696C23.5781 12.9105 24.5 15.1361 24.5 17.4568ZM22.75 57.9798C22.75 59.8363 22.0125 61.6168 20.6997 62.9295C19.387 64.2423 17.6065 64.9798 15.75 64.9798C13.8935 64.9798 12.113 64.2423 10.8003 62.9295C9.4875 61.6168 8.75 59.8363 8.75 57.9798C8.75 56.1233 9.4875 54.3428 10.8003 53.03C12.113 51.7173 13.8935 50.9798 15.75 50.9798C17.6065 50.9798 19.387 51.7173 20.6997 53.03C22.0125 54.3428 22.75 56.1233 22.75 57.9798ZM37.3835 65.6133C37.3835 67.0057 36.8304 68.341 35.8458 69.3256C34.8612 70.3102 33.5259 70.8633 32.1335 70.8633C30.7411 70.8633 29.4058 70.3102 28.4212 69.3256C27.4366 68.341 26.8835 67.0057 26.8835 65.6133C26.8835 64.2209 27.4366 62.8855 28.4212 61.901C29.4058 60.9164 30.7411 60.3633 32.1335 60.3633C33.5259 60.3633 34.8612 60.9164 35.8458 61.901C36.8304 62.8855 37.3835 64.2209 37.3835 65.6133ZM49 9.61328C49 11.9339 48.0781 14.1595 46.4372 15.8005C44.7962 17.4414 42.5706 18.3633 40.25 18.3633C37.9294 18.3633 35.7038 17.4414 34.0628 15.8005C32.4219 14.1595 31.5 11.9339 31.5 9.61328C31.5 7.29264 32.4219 5.06704 34.0628 3.4261C35.7038 1.78515 37.9294 0.86328 40.25 0.86328C42.5706 0.86328 44.7962 1.78515 46.4372 3.4261C48.0781 5.06704 49 7.29264 49 9.61328ZM51.7755 63.1143C51.7755 64.0425 51.4067 64.9328 50.7504 65.5892C50.094 66.2455 49.2038 66.6143 48.2755 66.6143C47.3472 66.6143 46.457 66.2455 45.8006 65.5892C45.1442 64.9328 44.7755 64.0425 44.7755 63.1143C44.7755 62.186 45.1442 61.2958 45.8006 60.6394C46.457 59.983 47.3472 59.6143 48.2755 59.6143C49.2038 59.6143 50.094 59.983 50.7504 60.6394C51.4067 61.2958 51.7755 62.186 51.7755 63.1143ZM70 28.8633C70 31.6481 68.8938 34.3188 66.9246 36.2879C64.9555 38.257 62.2848 39.3633 59.5 39.3633C56.7152 39.3633 54.0445 38.257 52.0754 36.2879C50.1062 34.3188 49 31.6481 49 28.8633C49 26.0785 50.1062 23.4078 52.0754 21.4387C54.0445 19.4695 56.7152 18.3633 59.5 18.3633C62.2848 18.3633 64.9555 19.4695 66.9246 21.4387C68.8938 23.4078 70 26.0785 70 28.8633V28.8633ZM59.5 55.1133C59.5 55.5774 59.3156 56.0225 58.9874 56.3507C58.6592 56.6789 58.2141 56.8633 57.75 56.8633C57.2859 56.8633 56.8407 56.6789 56.5126 56.3507C56.1844 56.0225 56 55.5774 56 55.1133C56 54.6492 56.1844 54.204 56.5126 53.8758C56.8407 53.5477 57.2859 53.3633 57.75 53.3633C58.2141 53.3633 58.6592 53.5477 58.9874 53.8758C59.3156 54.204 59.5 54.6492 59.5 55.1133Z" fill="black"/>
</g>
<defs>
<clipPath id="clip0_5_18410">
<rect width="70" height="70" fill="white" transform="translate(70 0.863281) rotate(90)"/>
</clipPath>
</defs>
</svg>
