<svg width="70" height="71" viewBox="0 0 70 71" fill="none" xmlns="http://www.w3.org/2000/svg">
<circle cx="35" cy="35.5" r="35" fill="#35B876"/>
<path d="M50.2293 20.8724H50.2291L19.7707 20.8724L19.7706 20.8724C18.3969 20.8739 17.0808 21.4426 16.1106 22.4519L16.1105 22.452C15.1408 23.4615 14.5957 24.8292 14.5943 26.2551V26.2552L14.5943 44.7448L14.5943 44.7449C14.5958 46.1708 15.1408 47.5385 16.1105 48.548L16.1106 48.5481C17.0808 49.5574 18.3969 50.1261 19.7706 50.1276H19.7707H50.2291H50.2293C51.603 50.1261 52.9191 49.5574 53.8893 48.5481L53.8893 48.548C54.8591 47.5385 55.4041 46.1708 55.4055 44.7449V44.7448V26.2552V26.2551C55.4041 24.8292 54.8591 23.4615 53.8893 22.452L53.8893 22.4519C52.9191 21.4426 51.603 20.8739 50.2293 20.8724ZM50.2213 28.3437L50.2288 28.3426L50.163 28.2175C49.9895 27.8875 49.6966 27.6414 49.3477 27.5346C48.9986 27.4278 48.623 27.4697 48.3038 27.6502L48.3037 27.6503L36.1653 34.5394L36.1651 34.5395C35.4388 34.9542 34.5602 34.9542 33.8339 34.5395L33.8337 34.5394L21.6971 27.6505C21.697 27.6505 21.6969 27.6504 21.6968 27.6504C21.3777 27.4677 21.0008 27.4246 20.6506 27.5311C20.3004 27.6376 20.0066 27.8846 19.8331 28.2159C19.6593 28.5469 19.6199 28.936 19.7229 29.2971C19.826 29.6582 20.0633 29.963 20.3837 30.1432C20.3838 30.1433 20.3839 30.1433 20.384 30.1434L32.5189 37.0321C34.064 37.9137 35.935 37.9137 37.4798 37.0323L50.2213 28.3437ZM37.48 37.0321L49.6166 30.1432C49.936 29.9624 50.1719 29.6575 50.2738 29.2966C50.2738 29.2966 50.2738 29.2965 50.2738 29.2965L37.48 37.0321ZM52.6674 44.7447C52.6665 45.4199 52.4084 46.0663 51.951 46.5425C51.4935 47.0183 50.8743 47.2853 50.229 47.2862H19.7709C19.1256 47.2854 18.5064 47.0183 18.0489 46.5425C17.5915 46.0662 17.3334 45.4199 17.3325 44.7447V26.2553C17.3334 25.5801 17.5914 24.9337 18.0489 24.4575C18.5064 23.9817 19.1256 23.7147 19.7709 23.7138H50.229C50.8743 23.7146 51.4936 23.9817 51.9511 24.4575C52.4084 24.9338 52.6665 25.5801 52.6674 26.2553V44.7447Z" fill="white" stroke="white" stroke-width="0.2"/>
</svg>
