<svg width="60" height="36" viewBox="0 0 60 36" fill="none" xmlns="http://www.w3.org/2000/svg">
<g id="Mastercard">
<path id="Left" fill-rule="evenodd" clip-rule="evenodd" d="M41.6623 35.2514C51.4433 35.2514 59.3723 27.5831 59.3723 18.1238C59.3723 8.66442 51.4433 0.996094 41.6623 0.996094C37.2787 0.996094 33.2672 2.53631 30.1746 5.08768C27.0821 2.53634 23.0706 0.996146 18.6871 0.996146C8.90611 0.996146 0.977051 8.66447 0.977051 18.1238C0.977051 27.5832 8.90611 35.2515 18.6871 35.2515C23.0706 35.2515 27.0822 33.7113 30.1747 31.1599C33.2673 33.7113 37.2788 35.2514 41.6623 35.2514Z" fill="#ED0006"/>
<path id="Right" fill-rule="evenodd" clip-rule="evenodd" d="M30.1748 31.1599C33.9827 28.0183 36.3972 23.3438 36.3972 18.1238C36.3972 12.9038 33.9827 8.22921 30.1748 5.08768C33.2673 2.5363 37.2789 0.996094 41.6624 0.996094C51.4434 0.996094 59.3725 8.66442 59.3725 18.1238C59.3725 27.5831 51.4434 35.2514 41.6624 35.2514C37.2789 35.2514 33.2673 33.7112 30.1748 31.1599Z" fill="#F9A000"/>
<path id="Middle" fill-rule="evenodd" clip-rule="evenodd" d="M30.1746 31.1596C33.9825 28.0181 36.397 23.3435 36.397 18.1235C36.397 12.9035 33.9825 8.22893 30.1746 5.0874C26.3667 8.22893 23.9521 12.9035 23.9521 18.1235C23.9521 23.3435 26.3667 28.0181 30.1746 31.1596Z" fill="#FF5E00"/>
</g>
</svg>
