<svg width="18" height="20" viewBox="0 0 18 20" fill="none" xmlns="http://www.w3.org/2000/svg">
<g id="Group">
<path id="Vector" d="M11.1387 9.65693C12.1144 9.17436 12.8982 8.376 13.3628 7.39159C13.8273 6.40719 13.9453 5.29461 13.6975 4.23468C13.4497 3.17476 12.8507 2.22979 11.9979 1.55335C11.1451 0.876921 10.0886 0.508789 9.00006 0.508789C7.91156 0.508789 6.85504 0.876921 6.00223 1.55335C5.14943 2.22979 4.55045 3.17476 4.30266 4.23468C4.05487 5.29461 4.17283 6.40719 4.63736 7.39159C5.1019 8.376 5.88571 9.17436 6.8614 9.65693C5.16642 10.1246 3.6715 11.1351 2.60562 12.5335C1.53974 13.9319 0.961672 15.6412 0.959961 17.3995V18.2036C0.959961 18.4168 1.04467 18.6213 1.19545 18.7721C1.34623 18.9229 1.55073 19.0076 1.76397 19.0076H16.2362C16.4494 19.0076 16.6539 18.9229 16.8047 18.7721C16.9555 18.6213 17.0402 18.4168 17.0402 18.2036V17.3995C17.0385 15.6412 16.4604 13.9319 15.3945 12.5335C14.3286 11.1351 12.8337 10.1246 11.1387 9.65693ZM5.78402 5.3394C5.78402 4.70332 5.97264 4.08154 6.32602 3.55266C6.67941 3.02378 7.18168 2.61158 7.76934 2.36816C8.35699 2.12475 9.00363 2.06106 9.62748 2.18515C10.2513 2.30924 10.8244 2.61554 11.2741 3.06531C11.7239 3.51508 12.0302 4.08813 12.1543 4.71198C12.2784 5.33583 12.2147 5.98247 11.9713 6.57012C11.7279 7.15778 11.3157 7.66005 10.7868 8.01344C10.2579 8.36682 9.63614 8.55544 9.00006 8.55544C8.14712 8.55544 7.3291 8.21661 6.72598 7.61348C6.12285 7.01036 5.78402 6.19234 5.78402 5.3394ZM2.56798 17.3995C2.56798 15.6937 3.24565 14.0576 4.45189 12.8514C5.65814 11.6451 7.29417 10.9675 9.00006 10.9675C10.706 10.9675 12.342 11.6451 13.5482 12.8514C14.7545 14.0576 15.4321 15.6937 15.4321 17.3995H2.56798Z" fill="black"/>
</g>
</svg>
