<svg width="26" height="30" viewBox="0 0 26 30" fill="none" xmlns="http://www.w3.org/2000/svg">
<g id="svgexport-17 (1) 1" clip-path="url(#clip0_391_33496)">
<g id="Group">
<path id="Vector" d="M11.0671 15.1994L11.0671 15.1992C11.0671 15.0463 11.1278 14.8997 11.2359 14.7915C11.3441 14.6834 11.4907 14.6227 11.6436 14.6227C11.7965 14.6227 11.9432 14.6834 12.0513 14.7915C12.1594 14.8997 12.2201 15.0463 12.2201 15.1992H12.1201M11.0671 15.1994L13.2021 14.2172C13.7373 14.2173 14.1737 14.6457 14.1834 15.1805L14.1834 15.1806C14.1933 15.7115 13.7789 16.1532 13.2497 16.1787C13.1931 16.1677 13.135 16.1657 13.0778 16.1727C12.5885 16.1097 12.221 15.6934 12.2201 15.199L12.1201 15.1992M11.0671 15.1994C11.0685 16.1357 11.6781 16.959 12.566 17.237M11.0671 15.1994L13.0783 16.2735C12.5327 16.21 12.1211 15.7484 12.1201 15.1992M12.1201 15.1992C12.1201 15.0728 12.0699 14.9516 11.9806 14.8623C11.8912 14.7729 11.77 14.7227 11.6436 14.7227C11.5172 14.7227 11.396 14.7729 11.3066 14.8623C11.2173 14.9516 11.1671 15.0728 11.1671 15.1992C11.1685 16.1162 11.7818 16.9194 12.666 17.1621M12.666 17.1621H12.566V17.237M12.666 17.1621V17.6387C12.666 17.765 12.7162 17.8863 12.8056 17.9756C12.895 18.065 13.0162 18.1152 13.1425 18.1152C13.2689 18.1152 13.3901 18.065 13.4795 17.9756C13.5689 17.8863 13.6191 17.765 13.6191 17.6387V17.191L12.666 17.1621ZM12.566 17.237V17.6387C12.566 17.7916 12.6268 17.9382 12.7349 18.0463C12.843 18.1544 12.9896 18.2152 13.1425 18.2152C13.2955 18.2152 13.4421 18.1544 13.5502 18.0463C13.6583 17.9382 13.7191 17.7916 13.7191 17.6387V17.2706M12.566 17.237L13.7191 17.2706M13.7191 17.2706C14.7461 17.0149 15.4352 16.0403 15.3255 14.9795L15.3255 14.9795C15.2127 13.8915 14.296 13.0647 13.2021 13.0644H13.2021C12.6598 13.0644 12.2201 12.6247 12.2201 12.0824C12.2201 11.5402 12.6598 11.1005 13.2021 11.1005C13.7444 11.1005 14.1841 11.5401 14.1841 12.0824C14.1841 12.2354 14.2448 12.382 14.3529 12.4901C14.4611 12.5982 14.6077 12.659 14.7606 12.659C14.9135 12.659 15.0602 12.5982 15.1683 12.4901C15.2764 12.382 15.3372 12.2354 15.3372 12.0824V12.0823C15.3358 11.0995 14.6658 10.2481 13.7191 10.0109V9.65671C13.7191 9.5038 13.6583 9.35716 13.5502 9.24904C13.4421 9.14092 13.2955 9.08018 13.1425 9.08018C12.9896 9.08018 12.843 9.14092 12.7349 9.24904C12.6268 9.35716 12.566 9.5038 12.566 9.65671V10.0446C11.5766 10.3529 10.9474 11.3318 11.0861 12.3663C11.2281 13.4263 12.1327 14.2174 13.2021 14.2172L13.7191 17.2706Z" fill="#E20000" stroke="#E20000" stroke-width="0.2"/>
<path id="Vector_2" d="M6.19199 13.6772V13.6773C6.19199 17.549 9.33054 20.6875 13.2022 20.6875C17.0739 20.6875 20.2124 17.549 20.2124 13.6773C20.2124 9.80564 17.0739 6.66709 13.2022 6.66709L13.2021 6.66709C9.33236 6.67132 6.19652 9.80747 6.19199 13.6772ZM13.2022 7.82016C16.4371 7.82016 19.0594 10.4424 19.0594 13.6773C19.0594 16.9122 16.4371 19.5345 13.2022 19.5345C9.96733 19.5345 7.34506 16.9122 7.34506 13.6773C7.34881 10.444 9.96894 7.82391 13.2022 7.82016Z" fill="#E20000" stroke="#E20000" stroke-width="0.2"/>
<path id="Vector_3" d="M16.1399 21.8268L16.14 21.8268C16.6921 21.8424 17.2303 22.0033 17.7004 22.2934C18.1435 22.5668 18.5112 22.9458 18.771 23.3958L22.4183 21.6725C23.614 21.0717 25.0711 21.5159 25.7281 22.6817C25.8004 22.8096 25.8211 22.9604 25.786 23.1031C25.7509 23.2458 25.6627 23.3698 25.5393 23.4496L25.5393 23.4496L17.0401 28.947C17.04 28.9471 17.0399 28.9472 17.0398 28.9473C17.0169 28.9623 16.9928 28.9756 16.9679 28.987C16.9678 28.987 16.9678 28.987 16.9677 28.9871L16.9262 28.8961C16.0929 29.2785 15.1869 29.4762 14.2701 29.4757L16.1399 21.8268ZM16.1399 21.8268L12.6939 21.732M16.1399 21.8268L12.6939 21.732M17.97 24.4415C17.74 23.6029 16.9874 23.0049 16.1085 22.9796C16.1085 22.9796 16.1085 22.9796 16.1084 22.9796M17.97 24.4415L16.1113 22.8796L16.1084 22.9796M17.97 24.4415L12.9673 24.3034H12.9672C12.6488 24.2948 12.384 24.5459 12.375 24.8639L12.375 24.864C12.3708 25.0168 12.4275 25.1651 12.5326 25.2762C12.6377 25.3872 12.7826 25.452 12.9355 25.4562L18.6003 25.6121L18.6003 25.6122H18.6031H18.6164H18.6164C18.7666 25.6121 18.9107 25.5534 19.0183 25.4487C19.1258 25.344 19.1883 25.2015 19.1924 25.0514M17.97 24.4415L7.3736 26.6764L13.2163 28.3165C14.3049 28.5382 15.4357 28.4123 16.4489 27.9568L24.365 22.836C24.1806 22.6957 23.9627 22.6045 23.7319 22.5722C23.4578 22.5338 23.1785 22.5802 22.9315 22.7051C22.9281 22.7069 22.9227 22.7096 22.9165 22.7123L19.1574 24.4886C19.186 24.6747 19.1977 24.8631 19.1924 25.0514M16.1084 22.9796L12.6623 22.8849L12.6621 22.8849C11.9578 22.8644 11.267 22.686 10.6409 22.3627L10.6408 22.3627L10.2901 22.181L10.2899 22.1809C9.47452 21.756 8.56006 21.5577 7.64192 21.6067C6.74098 21.6547 5.86889 21.9392 5.11319 22.4309L4.9851 27.0866L5.33472 26.8993C5.95965 26.5633 6.69067 26.4834 7.37343 26.6763L16.1084 22.9796ZM19.1924 25.0514L19.0924 25.0486M19.1924 25.0514C19.1924 25.0514 19.1924 25.0514 19.1924 25.0513L19.0924 25.0486M19.0924 25.0486C19.0891 25.1727 19.0374 25.2905 18.9485 25.377C18.8596 25.4636 18.7405 25.5121 18.6164 25.5122L19.0464 24.4304C19.0829 24.6344 19.0983 24.8415 19.0924 25.0486ZM12.6939 21.732C12.6939 21.732 12.6939 21.732 12.6938 21.732C12.1631 21.7168 11.6425 21.5824 11.1708 21.3388L10.8205 21.1573C9.92159 20.6887 8.92269 20.4446 7.909 20.4456C6.95178 20.4467 6.0082 20.6663 5.14998 21.0868L5.16722 20.4603C5.16722 20.4603 5.16722 20.4603 5.16722 20.4603C5.16932 20.3846 5.15649 20.3093 5.12946 20.2385C5.10243 20.1678 5.06173 20.1031 5.00968 20.0481C4.95763 19.9931 4.89526 19.9489 4.82613 19.918L4.78533 20.0093L4.82613 19.918C4.75699 19.8871 4.68245 19.8701 4.60675 19.868L0.827958 19.7641C0.752282 19.762 0.676921 19.7748 0.606196 19.8019C0.535474 19.8289 0.470772 19.8696 0.415788 19.9217C0.360804 19.9737 0.316618 20.0361 0.285753 20.1053C0.254894 20.1744 0.237956 20.2489 0.235905 20.3246C0.235904 20.3246 0.235904 20.3246 0.235903 20.3246L0.00764591 28.6168L12.6939 21.732ZM1.17619 28.0724L1.37263 20.9326L3.99867 21.0048L3.80224 28.1449L1.17619 28.0724ZM13.7793 5.42744V0.900362C13.7793 0.747456 13.7186 0.600812 13.6104 0.492691C13.5023 0.38457 13.3557 0.323828 13.2028 0.323828C13.0499 0.323828 12.9032 0.38457 12.7951 0.492691C12.687 0.600812 12.6262 0.747456 12.6262 0.900362V5.42744C12.6262 5.58034 12.687 5.72699 12.7951 5.83511C12.9032 5.94323 13.0499 6.00397 13.2028 6.00397C13.3557 6.00397 13.5023 5.94323 13.6104 5.83511C13.7186 5.72699 13.7793 5.58034 13.7793 5.42744ZM17.3533 5.42744V3.28303C17.3533 3.13013 17.2926 2.98348 17.1844 2.87536C17.0763 2.76724 16.9297 2.7065 16.7768 2.7065C16.6239 2.7065 16.4772 2.76724 16.3691 2.87536C16.261 2.98348 16.2002 3.13013 16.2002 3.28303V5.42744C16.2002 5.58034 16.261 5.72699 16.3691 5.83511C16.4772 5.94323 16.6239 6.00397 16.7768 6.00397C16.9297 6.00397 17.0763 5.94323 17.1844 5.83511C17.2926 5.72699 17.3533 5.58034 17.3533 5.42744ZM10.2053 5.42744V3.28303C10.2053 3.13013 10.1446 2.98348 10.0364 2.87536C9.92831 2.76724 9.78167 2.7065 9.62876 2.7065C9.47585 2.7065 9.32921 2.76724 9.22109 2.87536C9.11297 2.98348 9.05223 3.13013 9.05223 3.28303V5.42744C9.05223 5.58034 9.11297 5.72699 9.22109 5.83511C9.32921 5.94323 9.47585 6.00397 9.62876 6.00397C9.78167 6.00397 9.92831 5.94323 10.0364 5.83511C10.1446 5.72699 10.2053 5.58034 10.2053 5.42744Z" fill="#E20000" stroke="#E20000" stroke-width="0.2"/>
</g>
</g>
<defs>
<clipPath id="clip0_391_33496">
<rect width="25.8696" height="29.0518" fill="white" transform="translate(0.0644531 0.423828)"/>
</clipPath>
</defs>
</svg>
