<svg width="205" height="187" viewBox="0 0 205 187" fill="none" xmlns="http://www.w3.org/2000/svg">
<rect width="205" height="187" fill="#F5F5F5"/>
<g id="Branding" filter="url(#filter0_dd_5_10889)">
<rect width="3161" height="8736" transform="translate(-2510 -324.77)" fill="white"/>
<g id="Layer_1" clip-path="url(#clip0_5_10889)">
<g id="Group">
<g id="Group_2">
<path id="Vector" d="M16.2308 126.869C16.9665 126.869 17.5907 126.624 18.0923 126.113C18.5939 125.612 18.8503 124.989 18.8503 124.255C18.8503 123.521 18.5939 122.898 18.0923 122.397C17.5907 121.896 16.9665 121.641 16.2308 121.641C15.4951 121.641 14.8709 121.896 14.3693 122.397C13.8677 122.898 13.6113 123.521 13.6113 124.255C13.6113 124.989 13.8677 125.612 14.3693 126.113C14.8821 126.613 15.4951 126.869 16.2308 126.869Z" fill="#37156D"/>
<path id="Vector_2" d="M7.39097 126.869C8.12666 126.869 8.75088 126.624 9.25248 126.113C9.75408 125.612 10.0105 124.989 10.0105 124.255C10.0105 123.521 9.75408 122.898 9.25248 122.397C8.75088 121.896 8.12666 121.641 7.39097 121.641C6.65529 121.641 6.03107 121.896 5.52946 122.397C5.02786 122.898 4.77148 123.521 4.77148 124.255C4.77148 124.989 5.02786 125.612 5.52946 126.113C6.03107 126.613 6.65529 126.869 7.39097 126.869Z" fill="#37156D"/>
<path id="Vector_3" d="M14.6476 131.332C14.7368 131.165 14.8371 131.009 14.9263 130.831L9.89909 128.773C9.4978 129.708 9.09652 130.531 8.69524 131.232C8.29395 131.933 7.81464 132.611 7.26845 133.268C6.71112 133.924 6.24295 134.436 5.86396 134.825C5.47383 135.214 4.84961 135.782 3.98016 136.527C3.11071 137.284 2.44191 137.895 1.97374 138.363C0.569253 139.798 -0.0884061 141.433 0.0119147 143.257C0.112235 145.082 0.814481 146.572 2.11865 147.741C3.45626 148.975 5.0614 149.598 6.9452 149.598H13.9788C15.4502 149.598 16.6875 149.098 17.7018 148.097C18.705 147.095 19.2066 145.838 19.2066 144.336V131.343H14.6476V131.332ZM5.68561 143.869C5.15057 143.369 5.15057 142.779 5.68561 142.112C5.71905 142.078 6.39901 141.466 7.72547 140.276C9.05193 139.086 9.91023 138.263 10.3115 137.795C10.7128 137.328 11.3928 136.438 12.3514 135.114C12.9199 134.336 13.4326 133.512 13.9342 132.656V144.314H6.9452C6.39901 144.314 5.98658 144.17 5.68561 143.869Z" fill="#37156D"/>
<path id="Vector_4" d="M27.9785 126.236C28.0677 126.225 28.1457 126.236 28.2349 126.214L30.1187 125.557C30.5869 125.424 30.9993 125.168 31.3672 124.801C31.5232 124.645 31.6347 124.467 31.7239 124.278C31.813 124.356 31.9022 124.434 32.0137 124.489C32.3035 124.623 32.5933 124.656 32.8943 124.567L34.4437 124C35.4246 123.644 35.915 122.999 35.915 122.042V118.004C35.915 117.325 35.5695 116.98 34.8895 116.98C34.2096 116.98 33.864 117.325 33.864 118.004V121.875L32.1474 122.487C32.0583 122.52 31.9802 122.565 31.9022 122.621V119.472C31.9022 119.172 31.7907 118.927 31.5789 118.738C31.356 118.549 31.0885 118.449 30.7652 118.449C30.4643 118.449 30.219 118.549 30.0073 118.738C29.8066 118.927 29.7063 119.172 29.7063 119.472V123.344L27.8225 124.011V120.284C27.8225 119.984 27.7222 119.728 27.5327 119.506C27.3432 119.283 27.0979 119.183 26.797 119.183C26.496 119.183 26.2508 119.294 26.0613 119.506C25.8718 119.728 25.7715 119.984 25.7715 120.284V124.323C25.7715 124.923 25.9052 125.379 26.1839 125.713C26.6186 126.225 27.2206 126.392 27.9785 126.236Z" fill="#37156D"/>
<path id="Vector_5" d="M24.7796 154.457C24.044 154.457 23.4197 154.713 22.9181 155.213C22.4165 155.714 22.1602 156.337 22.1602 157.071C22.1602 157.805 22.4165 158.428 22.9181 158.929C23.4197 159.43 24.044 159.685 24.7796 159.685C25.5153 159.685 26.1395 159.43 26.6412 158.929C27.1428 158.428 27.3991 157.805 27.3991 157.071C27.3991 156.337 27.1428 155.714 26.6412 155.213C26.1395 154.702 25.5153 154.457 24.7796 154.457Z" fill="#37156D"/>
<path id="Vector_6" d="M33.6195 154.457C32.8838 154.457 32.2596 154.713 31.758 155.213C31.2564 155.714 31 156.337 31 157.071C31 157.805 31.2564 158.428 31.758 158.929C32.2596 159.43 32.8838 159.685 33.6195 159.685C34.3552 159.685 34.9794 159.43 35.481 158.929C35.9826 158.428 36.239 157.805 36.239 157.071C36.239 156.337 35.9826 155.714 35.481 155.213C34.9794 154.702 34.3552 154.457 33.6195 154.457Z" fill="#37156D"/>
<path id="Vector_7" d="M45.937 144.324H39.0483V130.73H33.7758V144.324H19.207V149.586H33.7313C35.1692 149.586 36.4176 149.085 37.4766 148.084C38.5355 147.083 39.0594 145.848 39.0594 144.369V149.586H45.8924C47.3303 149.586 48.5787 149.085 49.6377 148.084C50.6966 147.083 51.2205 145.848 51.2205 144.369V118.293H45.9481V144.324H45.937Z" fill="#37156D"/>
<path id="Vector_8" d="M81.6838 129.929C79.2872 129.829 77.292 130.563 75.6757 132.132C74.1709 133.567 73.4129 135.413 73.4129 137.649V144.324H61.497V118.293H56.2246V144.369C56.2246 145.837 56.7485 147.072 57.8075 148.084C58.8664 149.085 60.1148 149.586 61.5528 149.586H73.3572C74.7951 149.586 76.0435 149.085 77.1025 148.084C77.7601 147.461 78.1837 146.738 78.429 145.926V149.586H81.695C83.367 149.586 84.9609 149.33 86.4658 148.807C87.9706 148.284 89.2859 147.383 90.4117 146.093C91.5375 144.802 92.0949 143.245 92.0949 141.398C92.0949 138.662 90.6346 135.747 87.7253 132.677C86.0979 130.953 84.0804 130.029 81.6838 129.929ZM85.5629 143.445C84.7046 144.035 83.4227 144.324 81.7172 144.324H78.6965V137.649C78.6965 136.915 78.9194 136.326 79.3541 135.892C79.7889 135.391 80.4911 135.158 81.4609 135.191C82.4306 135.224 83.2555 135.591 83.9243 136.292C85.8638 138.295 86.8336 140.019 86.8336 141.454C86.8448 142.199 86.41 142.856 85.5629 143.445Z" fill="#37156D"/>
<path id="Vector_9" d="M99.0059 144.324H92.1172V149.586H98.9501C100.388 149.586 101.637 149.085 102.695 148.084C103.754 147.083 104.278 145.848 104.278 144.369V118.293H99.0059V144.324Z" fill="#37156D"/>
<path id="Vector_10" d="M109.307 149.586C110.912 149.586 112.194 149.063 113.152 148.028C114.111 146.994 114.579 145.67 114.579 144.068V118.293H109.307V149.586Z" fill="#37156D"/>
<path id="Vector_11" d="M137.039 126.869C137.775 126.869 138.399 126.624 138.901 126.113C139.403 125.612 139.659 124.989 139.659 124.255C139.659 123.521 139.403 122.898 138.901 122.397C138.399 121.896 137.775 121.641 137.039 121.641C136.304 121.641 135.68 121.896 135.178 122.397C134.676 122.898 134.42 123.521 134.42 124.255C134.42 124.989 134.676 125.612 135.178 126.113C135.691 126.613 136.304 126.869 137.039 126.869Z" fill="#37156D"/>
<path id="Vector_12" d="M145.889 126.869C146.625 126.869 147.249 126.624 147.751 126.113C148.252 125.612 148.509 124.989 148.509 124.255C148.509 123.521 148.252 122.898 147.751 122.397C147.249 121.896 146.625 121.641 145.889 121.641C145.153 121.641 144.529 121.896 144.028 122.397C143.526 122.898 143.27 123.521 143.27 124.255C143.27 124.989 143.526 125.612 144.028 126.113C144.529 126.613 145.153 126.869 145.889 126.869Z" fill="#37156D"/>
<path id="Vector_13" d="M144.306 131.332C144.395 131.165 144.495 131.009 144.584 130.831L139.557 128.773C139.156 129.708 138.755 130.531 138.353 131.232C137.952 131.933 137.473 132.611 136.927 133.268C136.369 133.924 135.901 134.436 135.522 134.825C135.132 135.214 134.508 135.782 133.638 136.527C132.769 137.284 132.1 137.895 131.632 138.363C130.227 139.798 129.57 141.433 129.67 143.257C129.77 145.082 130.473 146.572 131.777 147.741C133.114 148.975 134.72 149.598 136.603 149.598H143.637C145.108 149.598 146.346 149.098 147.36 148.097C148.363 147.095 148.865 145.838 148.865 144.336V131.343H144.306V131.332ZM135.333 143.869C134.798 143.369 134.798 142.779 135.333 142.112C135.366 142.078 136.046 141.466 137.373 140.276C138.699 139.086 139.557 138.263 139.959 137.795C140.36 137.328 141.04 136.438 141.998 135.114C142.567 134.336 143.08 133.512 143.581 132.656V144.314H136.592C136.057 144.314 135.634 144.17 135.333 143.869Z" fill="#37156D"/>
<path id="Vector_14" d="M155.989 124.666C156.323 124.8 156.68 124.811 157.048 124.711L167.002 121.051C167.336 120.951 167.581 120.74 167.726 120.428C167.871 120.117 167.905 119.772 167.804 119.405C167.704 119.071 167.481 118.837 167.147 118.704C166.812 118.57 166.456 118.548 166.088 118.648L156.134 122.264C155.799 122.364 155.554 122.586 155.409 122.92C155.264 123.254 155.231 123.61 155.331 123.977C155.431 124.299 155.654 124.533 155.989 124.666Z" fill="#37156D"/>
<path id="Vector_15" d="M187.143 123.657C187.477 123.79 187.834 123.812 188.202 123.701L198.156 120.041C198.49 119.941 198.736 119.73 198.881 119.418C199.025 119.107 199.059 118.762 198.959 118.395C198.858 118.061 198.635 117.827 198.301 117.694C197.967 117.56 197.61 117.538 197.242 117.649L187.288 121.265C186.954 121.365 186.708 121.587 186.563 121.921C186.419 122.255 186.385 122.611 186.485 122.978C186.597 123.289 186.809 123.523 187.143 123.657Z" fill="#37156D"/>
<path id="Vector_16" d="M199.707 130.732V144.326H195.839V130.732H190.567V144.326H186.699V130.732H181.426V144.326H162.689C161.752 143.414 160.961 142.535 160.325 141.69C159.657 140.811 159.2 140.077 158.943 139.509C158.687 138.942 158.52 138.419 158.442 137.952C158.353 137.485 158.341 137.14 158.386 136.928C158.442 136.717 158.509 136.55 158.609 136.45C158.91 136.15 159.434 135.905 160.169 135.727C160.905 135.549 162.087 135.516 163.714 135.627C165.342 135.749 167.136 136.105 169.12 136.706L170.625 131.689C163.056 129.386 157.795 129.753 154.841 132.79C153.47 134.125 152.846 135.705 152.98 137.529C153.114 139.354 153.704 141.145 154.763 142.924C155.042 143.392 155.354 143.859 155.677 144.326H148.855V149.588H181.371C182.809 149.588 184.057 149.087 185.116 148.086C185.729 147.508 186.141 146.84 186.398 146.095V149.588H190.522C191.96 149.588 193.208 149.087 194.267 148.086C194.88 147.508 195.293 146.84 195.549 146.095V149.588H199.674C201.111 149.588 202.36 149.087 203.419 148.086C204.478 147.085 205.002 145.85 205.002 144.371V130.732H199.707Z" fill="#37156D"/>
</g>
<g id="Group_3">
<path id="Vector_17" d="M20.7331 170.609C20.4879 170.242 20.1647 169.92 19.7634 169.664C19.3732 169.408 18.8828 169.197 18.3031 169.03C17.7347 168.863 17.0436 168.74 16.2744 168.674C15.5053 168.596 14.5913 168.562 13.5658 168.562H11.5259C10.2663 168.562 9.1628 168.607 8.24877 168.707C7.31244 168.796 6.49873 168.941 5.82992 169.13C5.14997 169.319 4.57034 169.564 4.13562 169.842C3.68975 170.131 3.3219 170.465 3.05438 170.843C2.78686 171.221 2.60851 171.655 2.50819 172.111C2.41902 172.556 2.36328 173.046 2.36328 173.557C2.36328 174.036 2.39672 174.503 2.45246 174.926C2.51934 175.371 2.6531 175.782 2.85374 176.149C3.06553 176.516 3.37764 176.85 3.77892 177.139C4.16906 177.418 4.69295 177.651 5.32832 177.84C5.94139 178.018 6.71052 178.152 7.62455 178.252C8.51629 178.341 9.60867 178.385 10.8571 178.385H13.6549C14.7696 178.385 15.6725 178.43 16.3636 178.53C17.0101 178.619 17.5229 178.764 17.8684 178.975C18.1917 179.164 18.3923 179.409 18.4926 179.709C18.6153 180.054 18.671 180.51 18.671 181.044C18.671 181.578 18.5818 182.012 18.4146 182.368C18.2586 182.702 17.9799 182.98 17.5675 183.191C17.1327 183.425 16.542 183.592 15.7951 183.703C15.026 183.814 14.0451 183.87 12.8858 183.87H10.166C9.1628 183.87 8.3045 183.847 7.62455 183.803C6.97804 183.758 6.45414 183.647 6.064 183.48C5.70731 183.325 5.46208 183.113 5.31717 182.813C5.16112 182.501 5.07194 182.034 5.07194 181.445V181.111H2.36328V181.445C2.36328 181.967 2.40787 182.468 2.49704 182.902C2.58622 183.358 2.75342 183.781 2.99865 184.148C3.24388 184.515 3.55598 184.826 3.95727 185.093C4.3474 185.36 4.83786 185.572 5.41749 185.739C5.98598 185.905 6.67708 186.028 7.4462 186.106C8.21533 186.184 9.12936 186.228 10.1549 186.228H12.8747C14.0228 186.228 15.026 186.172 15.8843 186.072C16.7537 185.972 17.5006 185.816 18.1248 185.616C18.7602 185.405 19.2841 185.149 19.7076 184.849C20.1312 184.537 20.4656 184.192 20.722 183.792C20.9672 183.402 21.1456 182.969 21.2347 182.49C21.3239 182.034 21.3685 181.545 21.3685 181.033C21.3685 180.521 21.3462 180.054 21.2905 179.609C21.2347 179.153 21.101 178.719 20.9115 178.341C20.7108 177.951 20.4322 177.607 20.0755 177.317C19.7188 177.028 19.2395 176.772 18.6598 176.583C18.0914 176.394 17.3891 176.249 16.5754 176.16C15.7728 176.071 14.7919 176.016 13.6549 176.016H10.8571C9.96537 176.016 9.1851 175.994 8.53858 175.96C7.91437 175.927 7.36818 175.86 6.92231 175.771C6.50988 175.682 6.16433 175.582 5.9191 175.448C5.68502 175.326 5.51781 175.193 5.3952 175.026C5.27259 174.859 5.19456 174.659 5.14997 174.436C5.10538 174.18 5.08309 173.88 5.08309 173.557C5.08309 173.046 5.17226 172.612 5.33947 172.278C5.49552 171.967 5.80763 171.711 6.24235 171.522C6.71052 171.31 7.37932 171.154 8.22648 171.065C9.09592 170.976 10.2106 170.921 11.5482 170.921H13.5881C14.5913 170.921 15.4496 170.943 16.1295 170.988C16.776 171.032 17.3111 171.132 17.7012 171.299C18.0579 171.444 18.3031 171.666 18.4481 171.955C18.6041 172.267 18.6933 172.723 18.6933 173.301V173.635H21.4019V173.301C21.4019 172.779 21.3574 172.278 21.2682 171.844C21.1344 171.388 20.9672 170.976 20.7331 170.609Z" fill="#37156D"/>
<path id="Vector_18" d="M36.6842 174.112C36.1046 173.556 35.3466 173.167 34.4326 172.944C33.552 172.733 32.4596 172.633 31.1889 172.633C29.9181 172.633 28.8035 172.7 27.9229 172.822C27.02 172.955 26.2732 173.167 25.7047 173.467C25.1139 173.779 24.6792 174.19 24.4116 174.702C24.1553 175.191 24.0327 175.792 24.0327 176.482V176.816H26.7525V176.482C26.7525 176.17 26.8082 175.915 26.9197 175.737C27.0311 175.57 27.2318 175.425 27.5216 175.314C27.856 175.191 28.313 175.102 28.8926 175.058C29.4946 175.013 30.2414 174.991 31.1889 174.991C31.7797 174.991 32.3036 175.002 32.7717 175.036C33.2176 175.069 33.5966 175.136 33.9198 175.236C34.2208 175.336 34.4772 175.481 34.6778 175.67C34.8785 175.859 35.0568 176.115 35.1906 176.448C35.3355 176.793 35.4358 177.238 35.5027 177.761C35.5473 178.128 35.5807 178.551 35.5918 179.029C35.3578 178.885 35.0457 178.762 34.6332 178.64C34.1985 178.507 33.6635 178.406 32.9835 178.317C32.3258 178.24 31.4898 178.195 30.5089 178.195C29.829 178.195 29.1825 178.206 28.5805 178.228C27.9563 178.251 27.3878 178.306 26.8751 178.395C26.3512 178.484 25.8719 178.618 25.4483 178.785C25.0136 178.963 24.6346 179.218 24.3225 179.541C24.0104 179.864 23.7651 180.264 23.6091 180.743C23.453 181.199 23.375 181.766 23.375 182.411C23.375 183.056 23.5311 183.624 23.8209 184.102C24.1107 184.58 24.59 184.97 25.2142 185.27C25.8161 185.559 26.5964 185.771 27.5327 185.904C28.4468 186.038 29.5726 186.104 30.8656 186.104C31.8465 186.104 32.6491 186.049 33.2622 185.938C33.8975 185.815 34.388 185.659 34.7781 185.448C35.1125 185.27 35.3912 185.059 35.6141 184.825V185.86H38.3228V179.764C38.3228 178.406 38.2002 177.261 37.955 176.371C37.6763 175.414 37.2527 174.669 36.6842 174.112ZM34.767 183.257C34.4326 183.412 33.9756 183.524 33.3959 183.601C32.8052 183.679 32.0695 183.724 31.1889 183.724C30.0185 183.724 29.0598 183.702 28.3465 183.646C27.6665 183.601 27.1426 183.501 26.7971 183.368C26.4961 183.257 26.3066 183.101 26.2174 182.923C26.1171 182.712 26.0614 182.411 26.0614 182.044C26.0614 181.677 26.106 181.399 26.2063 181.199C26.2843 181.032 26.4515 180.909 26.7079 180.809C27.0088 180.698 27.4659 180.62 28.0566 180.587C28.692 180.553 29.5169 180.531 30.5089 180.531C31.501 180.531 32.3593 180.565 33.0504 180.631C33.708 180.698 34.2542 180.798 34.6444 180.932C35.0011 181.054 35.2574 181.21 35.3912 181.388C35.525 181.566 35.5918 181.777 35.5918 182.033C35.5918 182.289 35.525 182.534 35.4135 182.734C35.2909 182.945 35.0679 183.123 34.767 183.257Z" fill="#37156D"/>
<path id="Vector_19" d="M40.2852 173.634H42.2804L43.8633 168.895H41.0766L40.2852 173.634Z" fill="#37156D"/>
<path id="Vector_20" d="M59.045 174.112C58.4654 173.556 57.7074 173.167 56.7933 172.944C55.9127 172.733 54.8204 172.633 53.5496 172.633C52.2789 172.633 51.1642 172.7 50.2836 172.822C49.3807 172.955 48.6339 173.167 48.0654 173.467C47.4746 173.779 47.0399 174.19 46.7724 174.702C46.516 175.191 46.3934 175.792 46.3934 176.482V176.816H49.1021V176.482C49.1021 176.17 49.1578 175.915 49.2693 175.737C49.3807 175.57 49.5814 175.425 49.8712 175.314C50.2056 175.191 50.6626 175.102 51.2423 175.058C51.8442 175.013 52.591 174.991 53.5385 174.991C54.1293 174.991 54.6532 175.002 55.1213 175.036C55.5672 175.069 55.9462 175.136 56.2694 175.236C56.5704 175.336 56.8268 175.481 57.0274 175.67C57.2281 175.859 57.4064 176.115 57.5402 176.448C57.6851 176.793 57.7854 177.238 57.8523 177.761C57.8969 178.128 57.9303 178.551 57.9415 179.029C57.7074 178.885 57.3953 178.762 56.9828 178.64C56.5481 178.507 56.0131 178.406 55.3331 178.317C54.6755 178.24 53.8394 178.195 52.8585 178.195C52.1786 178.195 51.5321 178.206 50.9301 178.228C50.3059 178.251 49.7374 178.306 49.2247 178.395C48.7008 178.484 48.2215 178.618 47.7979 178.785C47.3632 178.963 46.9842 179.218 46.6721 179.541C46.36 179.864 46.1147 180.264 45.9587 180.743C45.8026 181.199 45.7246 181.766 45.7246 182.411C45.7246 183.056 45.8807 183.624 46.1705 184.102C46.4603 184.58 46.9396 184.97 47.5638 185.27C48.1657 185.559 48.946 185.771 49.8823 185.904C50.7964 186.038 51.9222 186.104 53.2152 186.104C54.1961 186.104 54.9987 186.049 55.6118 185.938C56.2471 185.815 56.7376 185.659 57.1277 185.448C57.4621 185.27 57.7408 185.059 57.9637 184.825V185.86H60.6724V179.764C60.6724 178.406 60.5498 177.261 60.3046 176.371C60.0482 175.414 59.6246 174.669 59.045 174.112ZM57.1277 183.257C56.7933 183.412 56.3363 183.524 55.7567 183.601C55.1659 183.679 54.4302 183.724 53.5496 183.724C52.3792 183.724 51.4206 183.702 50.7072 183.646C50.0273 183.601 49.5034 183.501 49.1578 183.368C48.8568 183.257 48.6674 183.101 48.5782 182.923C48.4779 182.712 48.4221 182.411 48.4221 182.044C48.4221 181.677 48.4667 181.399 48.567 181.199C48.6451 181.032 48.8123 180.909 49.0686 180.809C49.3696 180.698 49.8266 180.62 50.4174 180.587C51.0528 180.553 51.8776 180.531 52.8697 180.531C53.8617 180.531 54.72 180.565 55.4111 180.631C56.0688 180.698 56.615 180.798 57.0051 180.932C57.3618 181.054 57.6182 181.21 57.752 181.388C57.8857 181.566 57.9526 181.777 57.9526 182.033C57.9526 182.289 57.8857 182.534 57.7743 182.734C57.6516 182.945 57.4398 183.123 57.1277 183.257Z" fill="#37156D"/>
<path id="Vector_21" d="M77.2586 175.403C77.0914 174.947 76.8573 174.536 76.5564 174.191C76.2554 173.835 75.843 173.546 75.3525 173.312C74.8732 173.09 74.2824 172.912 73.6025 172.8C72.6884 172.645 71.5849 172.589 70.1024 172.667C69.7011 172.689 69.2887 172.734 68.8762 172.789C68.4638 172.845 68.0402 172.934 67.6389 173.034C67.2154 173.145 66.8252 173.29 66.4685 173.468C66.1007 173.646 65.7663 173.879 65.4876 174.135C65.4765 174.146 65.4542 174.158 65.443 174.18V168.918H62.7344V185.86H65.443V177.962C65.443 177.506 65.5099 177.094 65.6548 176.738C65.7886 176.394 66.0227 176.115 66.3682 175.86C66.7361 175.604 67.2488 175.392 67.9065 175.248C68.5864 175.092 69.467 175.014 70.5483 175.014C71.5403 175.014 72.3429 175.081 72.9337 175.214C73.491 175.337 73.9257 175.537 74.2267 175.804C74.5165 176.071 74.706 176.416 74.8063 176.861C74.9178 177.339 74.9735 177.94 74.9735 178.652V185.872H77.6822V178.652C77.6933 178.04 77.6822 177.462 77.6153 176.928C77.5261 176.349 77.4258 175.848 77.2586 175.403Z" fill="#37156D"/>
<path id="Vector_22" d="M85.1387 185.837H87.8473V178.373H100.755V176.014H87.8473V171.253H101.435V168.895H85.1387V185.837Z" fill="#37156D"/>
<path id="Vector_23" d="M106.195 172.969H103.486V185.84H106.195V172.969Z" fill="#37156D"/>
<path id="Vector_24" d="M106.195 168.895H103.486V171.598H106.195V168.895Z" fill="#37156D"/>
<path id="Vector_25" d="M123.473 175.458C123.306 174.991 123.072 174.579 122.771 174.223C122.47 173.867 122.057 173.556 121.567 173.322C121.076 173.088 120.486 172.91 119.817 172.799C119.148 172.688 118.345 172.621 117.42 172.621C117.108 172.621 116.751 172.632 116.372 172.654C115.982 172.677 115.581 172.721 115.169 172.777C114.756 172.844 114.333 172.921 113.92 173.044C113.497 173.155 113.095 173.311 112.727 173.5C112.36 173.689 112.014 173.923 111.724 174.19C111.702 174.212 111.668 174.234 111.646 174.268V172.966H108.938V185.837H111.646V178.05C111.646 177.583 111.713 177.149 111.858 176.782C111.992 176.426 112.226 176.125 112.571 175.869C112.939 175.602 113.452 175.391 114.11 175.235C114.778 175.08 115.67 175.002 116.74 175.002C117.732 175.002 118.535 175.068 119.126 175.202C119.683 175.324 120.118 175.536 120.419 175.814C120.708 176.081 120.898 176.448 120.998 176.893C121.11 177.382 121.165 178.005 121.165 178.728V185.837H123.874V178.728C123.885 178.105 123.874 177.516 123.807 176.982C123.74 176.415 123.629 175.914 123.473 175.458Z" fill="#37156D"/>
<path id="Vector_26" d="M139.178 174.112C138.598 173.556 137.84 173.167 136.926 172.944C136.046 172.733 134.953 172.633 133.682 172.633C132.412 172.633 131.297 172.7 130.416 172.822C129.514 172.955 128.767 173.167 128.198 173.467C127.607 173.779 127.173 174.19 126.905 174.702C126.649 175.191 126.526 175.792 126.526 176.482V176.816H129.235V176.482C129.235 176.17 129.291 175.915 129.402 175.737C129.514 175.57 129.714 175.425 130.004 175.314C130.338 175.191 130.795 175.102 131.375 175.058C131.977 175.013 132.724 174.991 133.671 174.991C134.262 174.991 134.786 175.002 135.254 175.036C135.7 175.069 136.079 175.136 136.402 175.236C136.703 175.336 136.96 175.481 137.16 175.67C137.361 175.859 137.539 176.115 137.673 176.448C137.818 176.793 137.918 177.238 137.985 177.761C138.03 178.128 138.063 178.551 138.074 179.029C137.84 178.885 137.528 178.762 137.116 178.64C136.681 178.507 136.146 178.406 135.466 178.317C134.808 178.24 133.972 178.195 132.991 178.195C132.311 178.195 131.665 178.206 131.063 178.228C130.439 178.251 129.87 178.306 129.358 178.395C128.834 178.484 128.354 178.618 127.931 178.785C127.496 178.963 127.117 179.218 126.805 179.541C126.493 179.864 126.248 180.264 126.092 180.743C125.935 181.199 125.857 181.766 125.857 182.411C125.857 183.056 126.013 183.624 126.303 184.102C126.593 184.58 127.072 184.97 127.697 185.27C128.299 185.559 129.079 185.771 130.015 185.904C130.929 186.038 132.055 186.104 133.348 186.104C134.329 186.104 135.132 186.049 135.745 185.938C136.38 185.815 136.87 185.659 137.261 185.448C137.595 185.27 137.874 185.059 138.097 184.825V185.86H140.805V179.764C140.805 178.406 140.683 177.261 140.437 176.371C140.17 175.414 139.757 174.669 139.178 174.112ZM137.261 183.257C136.926 183.412 136.469 183.524 135.89 183.601C135.299 183.679 134.563 183.724 133.682 183.724C132.512 183.724 131.553 183.702 130.84 183.646C130.16 183.601 129.636 183.501 129.291 183.368C128.99 183.257 128.8 183.101 128.711 182.923C128.611 182.712 128.555 182.411 128.555 182.044C128.555 181.677 128.6 181.399 128.7 181.199C128.778 181.032 128.945 180.909 129.201 180.809C129.502 180.698 129.959 180.62 130.55 180.587C131.186 180.553 132.01 180.531 133.002 180.531C133.995 180.531 134.853 180.565 135.544 180.631C136.202 180.698 136.748 180.798 137.138 180.932C137.495 181.054 137.751 181.21 137.885 181.388C138.019 181.566 138.085 181.777 138.085 182.033C138.085 182.289 138.019 182.534 137.907 182.734C137.784 182.945 137.573 183.123 137.261 183.257Z" fill="#37156D"/>
<path id="Vector_27" d="M157.393 175.458C157.226 174.991 156.992 174.579 156.691 174.223C156.39 173.867 155.977 173.556 155.487 173.322C154.996 173.088 154.405 172.91 153.737 172.799C153.068 172.688 152.265 172.621 151.34 172.621C151.028 172.621 150.671 172.632 150.292 172.654C149.902 172.677 149.501 172.721 149.088 172.777C148.676 172.844 148.252 172.921 147.84 173.044C147.416 173.155 147.015 173.311 146.647 173.5C146.279 173.689 145.934 173.923 145.644 174.19C145.622 174.212 145.588 174.234 145.566 174.268V172.966H142.857V185.837H145.566V178.05C145.566 177.583 145.633 177.149 145.778 176.782C145.912 176.426 146.146 176.125 146.491 175.869C146.859 175.602 147.372 175.391 148.03 175.235C148.698 175.08 149.59 175.002 150.66 175.002C151.652 175.002 152.455 175.068 153.046 175.202C153.603 175.324 154.038 175.536 154.339 175.814C154.628 176.081 154.818 176.448 154.918 176.893C155.03 177.382 155.085 178.005 155.085 178.728V185.837H157.794V178.728C157.805 178.105 157.794 177.516 157.727 176.982C157.66 176.415 157.56 175.914 157.393 175.458Z" fill="#37156D"/>
<path id="Vector_28" d="M172.942 173.681C172.396 173.314 171.661 173.047 170.735 172.869C169.844 172.702 168.684 172.613 167.313 172.613C166.299 172.613 165.385 172.658 164.605 172.747C163.813 172.836 163.122 172.98 162.554 173.181C161.963 173.392 161.461 173.67 161.06 174.015C160.659 174.36 160.335 174.805 160.101 175.328C159.878 175.828 159.711 176.429 159.622 177.096C159.533 177.753 159.488 178.52 159.488 179.366C159.488 180.211 159.533 180.957 159.622 181.602C159.711 182.269 159.867 182.859 160.101 183.359C160.335 183.871 160.659 184.305 161.049 184.661C161.439 185.006 161.941 185.295 162.542 185.495C163.122 185.696 163.813 185.851 164.593 185.929C165.374 186.018 166.277 186.063 167.302 186.063C168.673 186.063 169.832 185.974 170.724 185.807C171.649 185.629 172.385 185.351 172.931 184.972C173.5 184.583 173.901 184.083 174.124 183.471C174.336 182.892 174.436 182.203 174.436 181.424V181.09H171.727V181.424C171.727 181.691 171.716 181.936 171.705 182.158C171.694 182.347 171.649 182.525 171.583 182.681C171.516 182.825 171.415 182.948 171.259 183.07C171.103 183.193 170.858 183.304 170.557 183.393C170.223 183.493 169.788 183.56 169.275 183.615C168.751 183.671 168.082 183.693 167.302 183.693C166.41 183.693 165.652 183.66 165.051 183.604C164.46 183.537 163.969 183.448 163.59 183.304C163.234 183.181 162.966 183.015 162.788 182.814C162.598 182.614 162.476 182.369 162.386 182.069C162.297 181.746 162.242 181.368 162.219 180.934C162.197 180.478 162.197 179.944 162.197 179.355C162.197 178.765 162.208 178.209 162.219 177.742C162.23 177.297 162.286 176.907 162.386 176.585C162.476 176.284 162.609 176.04 162.788 175.828C162.966 175.628 163.234 175.461 163.59 175.339C163.969 175.205 164.46 175.105 165.051 175.05C165.652 174.983 166.41 174.961 167.302 174.961C168.082 174.961 168.74 174.983 169.275 175.038C169.788 175.083 170.223 175.161 170.557 175.25C170.869 175.339 171.103 175.439 171.259 175.561C171.404 175.672 171.516 175.795 171.583 175.928C171.649 176.073 171.694 176.24 171.705 176.418C171.716 176.64 171.727 176.874 171.727 177.13V177.464H174.436V177.13C174.436 176.362 174.325 175.695 174.113 175.127C173.901 174.56 173.5 174.071 172.942 173.681Z" fill="#37156D"/>
<path id="Vector_29" d="M179.886 168.895H177.178V171.598H179.886V168.895Z" fill="#37156D"/>
<path id="Vector_30" d="M179.886 172.969H177.178V185.84H179.886V172.969Z" fill="#37156D"/>
<path id="Vector_31" d="M195.871 174.112C195.292 173.556 194.534 173.167 193.62 172.944C192.739 172.733 191.647 172.633 190.376 172.633C189.105 172.633 187.99 172.7 187.11 172.822C186.207 172.955 185.46 173.167 184.892 173.467C184.301 173.779 183.866 174.19 183.599 174.702C183.342 175.191 183.22 175.792 183.22 176.482V176.816H185.928V176.482C185.928 176.17 185.984 175.915 186.095 175.737C186.207 175.57 186.408 175.425 186.697 175.314C187.032 175.191 187.489 175.102 188.068 175.058C188.67 175.013 189.417 174.991 190.365 174.991C190.955 174.991 191.479 175.002 191.947 175.036C192.393 175.069 192.772 175.136 193.096 175.236C193.397 175.336 193.653 175.481 193.854 175.67C194.054 175.859 194.233 176.115 194.366 176.448C194.511 176.793 194.612 177.238 194.678 177.761C194.723 178.128 194.756 178.551 194.768 179.029C194.534 178.885 194.221 178.762 193.809 178.64C193.374 178.507 192.839 178.406 192.159 178.317C191.502 178.24 190.666 178.195 189.685 178.195C189.005 178.195 188.358 178.206 187.756 178.228C187.132 178.251 186.564 178.306 186.051 178.395C185.527 178.484 185.048 178.618 184.624 178.785C184.189 178.963 183.81 179.218 183.498 179.541C183.186 179.864 182.941 180.264 182.785 180.743C182.629 181.199 182.551 181.766 182.551 182.411C182.551 183.056 182.707 183.624 182.997 184.102C183.298 184.58 183.766 184.97 184.39 185.27C184.992 185.559 185.772 185.771 186.709 185.904C187.623 186.038 188.748 186.104 190.041 186.104C191.022 186.104 191.825 186.049 192.438 185.938C193.073 185.815 193.564 185.659 193.954 185.448C194.288 185.27 194.567 185.059 194.79 184.825V185.86H197.499V179.764C197.499 178.406 197.376 177.261 197.131 176.371C196.874 175.414 196.451 174.669 195.871 174.112ZM193.954 183.257C193.62 183.412 193.162 183.524 192.583 183.601C191.992 183.679 191.256 183.724 190.376 183.724C189.205 183.724 188.247 183.702 187.533 183.646C186.853 183.601 186.33 183.501 185.984 183.368C185.683 183.257 185.494 183.101 185.404 182.923C185.304 182.712 185.248 182.411 185.248 182.044C185.248 181.677 185.293 181.399 185.393 181.199C185.471 181.032 185.638 180.909 185.895 180.809C186.196 180.698 186.653 180.62 187.244 180.587C187.879 180.553 188.704 180.531 189.696 180.531C190.688 180.531 191.546 180.565 192.237 180.631C192.895 180.698 193.441 180.798 193.831 180.932C194.188 181.054 194.444 181.21 194.578 181.388C194.712 181.566 194.779 181.777 194.779 182.033C194.779 182.289 194.712 182.534 194.6 182.734C194.478 182.945 194.266 183.123 193.954 183.257Z" fill="#37156D"/>
<path id="Vector_32" d="M202.927 168.895H200.219V185.837H202.927V168.895Z" fill="#37156D"/>
</g>
</g>
<g id="Group_4">
<path id="Vector_33" d="M130.406 91.3393H74.5612C64.7744 91.3393 56.8379 83.4187 56.8379 73.6515V17.9183C56.8379 8.15104 64.7744 0.230469 74.5612 0.230469H130.406C140.193 0.230469 148.13 8.15104 148.13 17.9183V73.6515C148.141 83.4187 140.204 91.3393 130.406 91.3393Z" fill="url(#paint0_linear_5_10889)"/>
<path id="Vector_34" d="M96.4654 60.8016L88.0162 64.7952C87.548 65.0177 87.0464 65.129 86.5336 65.129C86.1101 65.129 85.6976 65.0511 85.2964 64.8953L76.8806 61.6804C75.5318 61.1575 74.6289 59.8671 74.6289 58.4209V30.8435C74.6289 28.919 76.2006 27.3505 78.129 27.3505H84.817C86.712 27.3505 88.4286 28.7633 88.5066 30.6544C88.5958 32.6346 87.013 34.2699 85.04 34.2699H81.5956C81.5956 34.2699 81.5622 34.2699 81.5622 34.3032V56.0403C81.5622 56.0403 81.5733 56.0626 81.5845 56.0737L86.3776 57.9092H86.3999L91.5162 55.4952C91.5162 55.4952 91.5385 55.473 91.5385 55.4618V24.6584C91.5385 23.6794 91.951 22.7339 92.6867 22.0775L96.5323 18.5845C97.5243 17.6834 98.94 17.4386 100.177 17.9392L106.475 20.509C108.225 21.2209 109.273 23.1788 108.638 24.9587C107.969 26.8276 105.884 27.7398 104.056 26.9945L99.5976 25.1701C99.5976 25.1701 99.5754 25.1701 99.5642 25.1701L98.4941 26.149C98.4941 26.149 98.483 26.149 98.483 26.1713V57.6422C98.4718 58.9772 97.6916 60.212 96.4654 60.7904V60.8016ZM128.234 29.8868L119.673 26.2158C118.692 25.7931 117.577 25.8487 116.641 26.3493L108.348 30.7879C107.211 31.3998 106.497 32.5789 106.497 33.8694V65.3181C106.497 65.3181 106.497 65.3403 106.486 65.3403L105.338 66.3638C105.338 66.3638 105.316 66.3749 105.305 66.3749L100.489 64.239C98.7616 63.4714 96.6215 64.0721 95.7743 65.763C94.8937 67.5429 95.674 69.6788 97.4686 70.4687L104.558 73.6057C105.004 73.806 105.483 73.9061 105.962 73.9061C106.798 73.9061 107.623 73.6057 108.281 73.0273L112.26 69.4675C113.007 68.8 113.431 67.8544 113.431 66.8644V35.9385C113.431 35.9385 113.442 35.9163 113.453 35.9051L118.447 33.2353H118.48L123.407 35.3489C123.407 35.3489 123.429 35.3712 123.429 35.3823V57.2195C123.429 57.2195 123.418 57.2529 123.396 57.2529H120.175C118.28 57.2529 116.563 58.6657 116.485 60.5568C116.396 62.537 117.979 64.1723 119.952 64.1723H126.863C128.791 64.1723 130.363 62.6037 130.363 60.6792V33.1018C130.363 31.7001 129.516 30.4431 128.234 29.8868Z" fill="white"/>
</g>
</g>
</g>
<defs>
<filter id="filter0_dd_5_10889" x="-2514" y="-324.77" width="3169" height="8744" filterUnits="userSpaceOnUse" color-interpolation-filters="sRGB">
<feFlood flood-opacity="0" result="BackgroundImageFix"/>
<feColorMatrix in="SourceAlpha" type="matrix" values="0 0 0 0 0 0 0 0 0 0 0 0 0 0 0 0 0 0 127 0" result="hardAlpha"/>
<feOffset dy="4"/>
<feGaussianBlur stdDeviation="2"/>
<feComposite in2="hardAlpha" operator="out"/>
<feColorMatrix type="matrix" values="0 0 0 0 0 0 0 0 0 0 0 0 0 0 0 0 0 0 0.25 0"/>
<feBlend mode="normal" in2="BackgroundImageFix" result="effect1_dropShadow_5_10889"/>
<feColorMatrix in="SourceAlpha" type="matrix" values="0 0 0 0 0 0 0 0 0 0 0 0 0 0 0 0 0 0 127 0" result="hardAlpha"/>
<feOffset dy="4"/>
<feGaussianBlur stdDeviation="2"/>
<feComposite in2="hardAlpha" operator="out"/>
<feColorMatrix type="matrix" values="0 0 0 0 0 0 0 0 0 0 0 0 0 0 0 0 0 0 0.25 0"/>
<feBlend mode="normal" in2="effect1_dropShadow_5_10889" result="effect2_dropShadow_5_10889"/>
<feBlend mode="normal" in="SourceGraphic" in2="effect2_dropShadow_5_10889" result="shape"/>
</filter>
<linearGradient id="paint0_linear_5_10889" x1="86.5997" y1="75.9654" x2="158.137" y2="-60.4713" gradientUnits="userSpaceOnUse">
<stop stop-color="#472C99"/>
<stop offset="0.57" stop-color="#F09B37"/>
</linearGradient>
<clipPath id="clip0_5_10889">
<rect width="205" height="186" fill="white" transform="translate(0 0.230469)"/>
</clipPath>
</defs>
</svg>
