<svg width="200" height="58" viewBox="0 0 200 58" fill="none" xmlns="http://www.w3.org/2000/svg">
<path d="M188.307 57.8203H153.04C146.86 57.8203 141.848 52.8137 141.848 46.6398V11.4109C141.848 5.23706 146.86 0.230469 153.04 0.230469H188.307C194.487 0.230469 199.499 5.23706 199.499 11.4109V46.6398C199.506 52.8137 194.494 57.8203 188.307 57.8203Z" fill="url(#paint0_linear_226_12111)"/>
<path d="M166.872 38.5165L161.536 41.0409C161.241 41.1816 160.924 41.2519 160.6 41.2519C160.332 41.2519 160.072 41.2027 159.819 41.1042L154.504 39.072C153.652 38.7416 153.082 37.9259 153.082 37.0118V19.5801C153.082 18.3636 154.075 17.3721 155.292 17.3721H159.516C160.713 17.3721 161.797 18.2652 161.846 19.4606C161.902 20.7122 160.903 21.7459 159.657 21.7459H157.482C157.482 21.7459 157.46 21.7459 157.46 21.767V35.507C157.46 35.507 157.468 35.521 157.475 35.5281L160.501 36.6883H160.516L163.747 35.1624C163.747 35.1624 163.761 35.1483 163.761 35.1413V15.6705C163.761 15.0517 164.021 14.454 164.486 14.0391L166.914 11.8312C167.541 11.2616 168.435 11.1069 169.216 11.4233L173.193 13.0476C174.298 13.4977 174.96 14.7353 174.559 15.8603C174.137 17.0417 172.82 17.6183 171.666 17.1471L168.85 15.9939C168.85 15.9939 168.836 15.9939 168.829 15.9939L168.153 16.6127C168.153 16.6127 168.146 16.6127 168.146 16.6268V36.5195C168.139 37.3633 167.646 38.1439 166.872 38.5095V38.5165ZM186.934 18.9754L181.528 16.6549C180.908 16.3877 180.204 16.4229 179.613 16.7393L174.376 19.545C173.658 19.9317 173.207 20.6771 173.207 21.4927V41.3714C173.207 41.3714 173.207 41.3855 173.2 41.3855L172.475 42.0324C172.475 42.0324 172.461 42.0394 172.454 42.0394L169.413 40.6893C168.322 40.2042 166.971 40.5839 166.436 41.6527C165.879 42.7778 166.372 44.1279 167.506 44.6271L171.983 46.6101C172.264 46.7366 172.567 46.7999 172.869 46.7999C173.397 46.7999 173.918 46.6101 174.334 46.2444L176.847 43.9943C177.318 43.5723 177.586 42.9747 177.586 42.3488V22.8006C177.586 22.8006 177.593 22.7866 177.6 22.7795L180.753 21.0919H180.775L183.886 22.428C183.886 22.428 183.9 22.442 183.9 22.4491V36.2523C183.9 36.2523 183.893 36.2734 183.879 36.2734H181.845C180.648 36.2734 179.564 37.1664 179.515 38.3618C179.458 39.6135 180.458 40.6472 181.704 40.6472H186.068C187.286 40.6472 188.278 39.6557 188.278 38.4392V21.0075C188.278 20.1216 187.743 19.327 186.934 18.9754Z" fill="white"/>
<path d="M10.748 12.9065C11.2126 12.9065 11.6068 12.7518 11.9235 12.4283C12.2403 12.1119 12.4022 11.7181 12.4022 11.254C12.4022 10.7899 12.2403 10.3961 11.9235 10.0797C11.6068 9.76329 11.2126 9.60156 10.748 9.60156C10.2834 9.60156 9.88919 9.76329 9.57242 10.0797C9.25565 10.3961 9.09375 10.7899 9.09375 11.254C9.09375 11.7181 9.25565 12.1119 9.57242 12.4283C9.89623 12.7447 10.2834 12.9065 10.748 12.9065Z" fill="white"/>
<path d="M5.16595 12.9065C5.63054 12.9065 6.02474 12.7518 6.34151 12.4283C6.65828 12.1119 6.82018 11.7181 6.82018 11.254C6.82018 10.7899 6.65828 10.3961 6.34151 10.0797C6.02474 9.76329 5.63054 9.60156 5.16595 9.60156C4.70136 9.60156 4.30716 9.76329 3.99039 10.0797C3.67362 10.3961 3.51172 10.7899 3.51172 11.254C3.51172 11.7181 3.67362 12.1119 3.99039 12.4283C4.30716 12.7447 4.70136 12.9065 5.16595 12.9065Z" fill="white"/>
<path d="M9.74888 15.7267C9.80519 15.6212 9.86854 15.5228 9.92486 15.4102L6.75014 14.1094C6.49673 14.7 6.24331 15.2204 5.9899 15.6634C5.73648 16.1064 5.43379 16.5353 5.08887 16.9502C4.7369 17.3651 4.44125 17.6885 4.20192 17.9346C3.95554 18.1807 3.56134 18.5394 3.01228 19.0105C2.46321 19.4886 2.04086 19.8754 1.74521 20.1707C0.858255 21.0778 0.442937 22.1115 0.506291 23.2647C0.569644 24.4179 1.01312 25.3601 1.83672 26.0985C2.68143 26.879 3.69509 27.2728 4.88473 27.2728H9.32652C10.2557 27.2728 11.0371 26.9563 11.6776 26.3235C12.3112 25.6906 12.6279 24.896 12.6279 23.9467V15.7337H9.74888V15.7267ZM4.08929 23.6514C3.7514 23.335 3.7514 22.9623 4.08929 22.5404C4.11041 22.5193 4.5398 22.1326 5.37748 21.3802C6.21515 20.6278 6.75718 20.1074 7.01059 19.8121C7.26401 19.5168 7.6934 18.9542 8.29878 18.1175C8.65779 17.6252 8.98159 17.1049 9.29836 16.5634V23.9327H4.88473C4.5398 23.9327 4.27935 23.8413 4.08929 23.6514Z" fill="white"/>
<path d="M18.1672 12.5066C18.2235 12.4996 18.2728 12.5066 18.3291 12.4926L19.5188 12.0777C19.8144 11.9933 20.0749 11.8316 20.3072 11.5996C20.4057 11.5011 20.4761 11.3886 20.5324 11.2691C20.5887 11.3183 20.645 11.3675 20.7154 11.4027C20.8985 11.487 21.0815 11.5081 21.2715 11.4519L22.25 11.0933C22.8695 10.8683 23.1792 10.4604 23.1792 9.85569V7.30317C23.1792 6.87424 22.961 6.65625 22.5316 6.65625C22.1022 6.65625 21.884 6.87424 21.884 7.30317V9.75021L20.7999 10.137C20.7436 10.1581 20.6943 10.1862 20.645 10.2213V8.23136C20.645 8.0415 20.5747 7.8868 20.4409 7.76726C20.3001 7.64772 20.1312 7.58444 19.927 7.58444C19.737 7.58444 19.5821 7.64772 19.4484 7.76726C19.3217 7.8868 19.2583 8.0415 19.2583 8.23136V10.6784L18.0687 11.1003V8.74467C18.0687 8.55482 18.0053 8.39309 17.8856 8.25245C17.766 8.11182 17.6111 8.04853 17.4211 8.04853C17.231 8.04853 17.0761 8.11885 16.9565 8.25245C16.8368 8.39309 16.7734 8.55482 16.7734 8.74467V11.2972C16.7734 11.6769 16.8579 11.9652 17.0339 12.1762C17.3084 12.4996 17.6885 12.6051 18.1672 12.5066Z" fill="white"/>
<path d="M16.1484 30.3477C15.6838 30.3477 15.2896 30.5094 14.9728 30.8258C14.656 31.1422 14.4941 31.536 14.4941 32.0001C14.4941 32.4642 14.656 32.858 14.9728 33.1744C15.2896 33.4908 15.6838 33.6526 16.1484 33.6526C16.613 33.6526 17.0072 33.4908 17.3239 33.1744C17.6407 32.858 17.8026 32.4642 17.8026 32.0001C17.8026 31.536 17.6407 31.1422 17.3239 30.8258C17.0072 30.5024 16.613 30.3477 16.1484 30.3477Z" fill="white"/>
<path d="M21.7304 30.3477C21.2658 30.3477 20.8716 30.5094 20.5548 30.8258C20.2381 31.1422 20.0762 31.536 20.0762 32.0001C20.0762 32.4642 20.2381 32.858 20.5548 33.1744C20.8716 33.4908 21.2658 33.6526 21.7304 33.6526C22.195 33.6526 22.5892 33.4908 22.906 33.1744C23.2227 32.858 23.3846 32.4642 23.3846 32.0001C23.3846 31.536 23.2227 31.1422 22.906 30.8258C22.5892 30.5024 22.195 30.3477 21.7304 30.3477Z" fill="white"/>
<path d="M29.5091 23.9386H25.1588V15.3458H21.8293V23.9386H12.6289V27.2646H21.8011C22.7092 27.2646 23.4976 26.9482 24.1663 26.3153C24.835 25.6825 25.1659 24.902 25.1659 23.9667V27.2646H29.481C30.389 27.2646 31.1774 26.9482 31.8462 26.3153C32.5149 25.6825 32.8457 24.902 32.8457 23.9667V7.48438H29.5162V23.9386H29.5091Z" fill="white"/>
<path d="M52.0836 14.8396C50.5701 14.7763 49.3101 15.2404 48.2894 16.2318C47.3391 17.1389 46.8604 18.3062 46.8604 19.7196V23.9386H39.3354V7.48438H36.0059V23.9667C36.0059 24.8949 36.3367 25.6754 37.0054 26.3153C37.6742 26.9482 38.4626 27.2646 39.3706 27.2646H46.8252C47.7333 27.2646 48.5217 26.9482 49.1904 26.3153C49.6058 25.9216 49.8733 25.4645 50.0281 24.9512V27.2646H52.0906C53.1465 27.2646 54.1531 27.1029 55.1034 26.7724C56.0538 26.4419 56.8844 25.8723 57.5954 25.0566C58.3063 24.241 58.6583 23.2565 58.6583 22.0893C58.6583 20.3595 57.7361 18.5171 55.8989 16.5764C54.8711 15.4865 53.597 14.9028 52.0836 14.8396ZM54.5333 23.3831C53.9912 23.7558 53.1817 23.9386 52.1047 23.9386H50.1971V19.7196C50.1971 19.2555 50.3379 18.8828 50.6124 18.6086C50.8869 18.2921 51.3304 18.1445 51.9428 18.1656C52.5552 18.1867 53.0761 18.4187 53.4985 18.8617C54.7233 20.1274 55.3357 21.2173 55.3357 22.1244C55.3428 22.5955 55.0683 23.0104 54.5333 23.3831Z" fill="white"/>
<path d="M63.0222 23.9386H58.6719V27.2646H62.987C63.895 27.2646 64.6834 26.9482 65.3522 26.3153C66.0209 25.6825 66.3517 24.902 66.3517 23.9667V7.48438H63.0222V23.9386Z" fill="white"/>
<path d="M69.5273 27.2646C70.541 27.2646 71.3505 26.9341 71.9559 26.2802C72.5613 25.6262 72.8569 24.7894 72.8569 23.7769V7.48438H69.5273V27.2646Z" fill="white"/>
<path d="M87.041 12.9065C87.5055 12.9065 87.8997 12.7518 88.2165 12.4283C88.5333 12.1119 88.6952 11.7181 88.6952 11.254C88.6952 10.7899 88.5333 10.3961 88.2165 10.0797C87.8997 9.76329 87.5055 9.60156 87.041 9.60156C86.5764 9.60156 86.1822 9.76329 85.8654 10.0797C85.5486 10.3961 85.3867 10.7899 85.3867 11.254C85.3867 11.7181 85.5486 12.1119 85.8654 12.4283C86.1892 12.7447 86.5764 12.9065 87.041 12.9065Z" fill="white"/>
<path d="M92.6288 12.9065C93.0934 12.9065 93.4876 12.7518 93.8044 12.4283C94.1212 12.1119 94.2831 11.7181 94.2831 11.254C94.2831 10.7899 94.1212 10.3961 93.8044 10.0797C93.4876 9.76329 93.0934 9.60156 92.6288 9.60156C92.1643 9.60156 91.7701 9.76329 91.4533 10.0797C91.1365 10.3961 90.9746 10.7899 90.9746 11.254C90.9746 11.7181 91.1365 12.1119 91.4533 12.4283C91.7701 12.7447 92.1643 12.9065 92.6288 12.9065Z" fill="white"/>
<path d="M91.6297 15.7267C91.6861 15.6212 91.7494 15.5228 91.8057 15.4102L88.631 14.1094C88.3776 14.7 88.1242 15.2204 87.8708 15.6634C87.6173 16.1064 87.3146 16.5353 86.9697 16.9502C86.6178 17.3651 86.3221 17.6885 86.0828 17.9346C85.8364 18.1807 85.4422 18.5394 84.8931 19.0105C84.3441 19.4886 83.9217 19.8754 83.6261 20.1707C82.7391 21.0778 82.3238 22.1115 82.3872 23.2647C82.4505 24.4179 82.894 25.3601 83.7176 26.0985C84.5623 26.879 85.5759 27.2728 86.7656 27.2728H91.2074C92.1366 27.2728 92.9179 26.9563 93.5585 26.3235C94.192 25.6906 94.5088 24.896 94.5088 23.9467V15.7337H91.6297V15.7267ZM85.9631 23.6514C85.6252 23.335 85.6252 22.9623 85.9631 22.5404C85.9842 22.5193 86.4136 22.1326 87.2513 21.3802C88.089 20.6278 88.631 20.1074 88.8844 19.8121C89.1378 19.5168 89.5672 18.9542 90.1726 18.1175C90.5316 17.6252 90.8554 17.1049 91.1722 16.5634V23.9327H86.7585C86.4207 23.9327 86.1532 23.8413 85.9631 23.6514Z" fill="white"/>
<path d="M99.0064 11.5154C99.2176 11.5997 99.4429 11.6068 99.6752 11.5435L105.961 9.23006C106.172 9.16677 106.327 9.03317 106.419 8.83628C106.51 8.6394 106.531 8.42141 106.468 8.18936C106.405 7.97841 106.264 7.83075 106.053 7.74636C105.842 7.66198 105.616 7.64792 105.384 7.7112L99.0979 9.99651C98.8868 10.0598 98.7319 10.2004 98.6404 10.4114C98.5489 10.6223 98.5278 10.8474 98.5911 11.0794C98.6545 11.2833 98.7952 11.431 99.0064 11.5154Z" fill="white"/>
<path d="M118.682 10.8773C118.893 10.9617 119.119 10.9758 119.351 10.9054L125.637 8.592C125.848 8.52871 126.003 8.39511 126.095 8.19822C126.186 8.00133 126.207 7.78335 126.144 7.5513C126.08 7.34035 125.94 7.19268 125.729 7.1083C125.517 7.02392 125.292 7.00986 125.06 7.08018L118.774 9.36549C118.563 9.42878 118.408 9.56941 118.316 9.78036C118.225 9.99131 118.204 10.2163 118.267 10.4484C118.337 10.6453 118.471 10.7929 118.682 10.8773Z" fill="white"/>
<path d="M126.615 15.3486V23.9413H124.173V15.3486H120.843V23.9413H118.4V15.3486H115.071V23.9413H103.238C102.646 23.3647 102.147 22.8092 101.745 22.2748C101.323 21.7193 101.034 21.2552 100.873 20.8966C100.711 20.538 100.605 20.2075 100.556 19.9122C100.499 19.6168 100.492 19.3988 100.521 19.2652C100.556 19.1316 100.598 19.0261 100.661 18.9629C100.851 18.773 101.182 18.6183 101.647 18.5058C102.111 18.3933 102.858 18.3722 103.885 18.4425C104.913 18.5199 106.046 18.7449 107.299 19.1246L108.25 15.9533C103.47 14.4977 100.147 14.7298 98.2821 16.6494C97.4162 17.4932 97.022 18.4917 97.1065 19.6449C97.191 20.7981 97.564 21.9303 98.2328 23.0553C98.4088 23.3507 98.6059 23.646 98.81 23.9413H94.502V27.2673H115.036C115.944 27.2673 116.732 26.9509 117.401 26.3181C117.788 25.9524 118.048 25.5305 118.21 25.0594V27.2673H120.815C121.723 27.2673 122.511 26.9509 123.18 26.3181C123.567 25.9524 123.828 25.5305 123.99 25.0594V27.2673H126.594C127.502 27.2673 128.291 26.9509 128.959 26.3181C129.628 25.6852 129.959 24.9047 129.959 23.9695V15.3486H126.615Z" fill="white"/>
<path d="M13.5929 40.5556C13.4381 40.3235 13.2339 40.1196 12.9805 39.9579C12.7341 39.7961 12.4244 39.6625 12.0584 39.557C11.6994 39.4516 11.2629 39.3742 10.7772 39.332C10.2915 39.2828 9.71429 39.2617 9.06667 39.2617H7.77848C6.98304 39.2617 6.28615 39.2898 5.70893 39.3531C5.11763 39.4094 4.60376 39.5008 4.18141 39.6203C3.75201 39.7399 3.38597 39.8946 3.11143 40.0704C2.82986 40.2532 2.59757 40.4641 2.42862 40.7032C2.25968 40.9423 2.14705 41.2165 2.0837 41.5048C2.02738 41.7861 1.99219 42.0955 1.99219 42.419C1.99219 42.7213 2.01331 43.0166 2.0485 43.2839C2.09074 43.5651 2.17521 43.8253 2.30192 44.0573C2.43566 44.2894 2.63276 44.5003 2.88618 44.6832C3.13255 44.859 3.4634 45.0066 3.86464 45.1262C4.2518 45.2387 4.73751 45.3231 5.31473 45.3863C5.87788 45.4426 6.56773 45.4707 7.35613 45.4707H9.12299C9.82692 45.4707 10.3971 45.4989 10.8335 45.5621C11.2418 45.6184 11.5656 45.7098 11.7838 45.8434C11.988 45.9629 12.1147 46.1176 12.178 46.3075C12.2555 46.5255 12.2907 46.8138 12.2907 47.1513C12.2907 47.4888 12.2344 47.7631 12.1288 47.9881C12.0302 48.199 11.8542 48.3748 11.5938 48.5084C11.3192 48.6561 10.9462 48.7616 10.4745 48.8319C9.98882 48.9022 9.36936 48.9374 8.63728 48.9374H6.91969C6.28615 48.9374 5.74413 48.9233 5.31473 48.8952C4.90645 48.8671 4.57561 48.7967 4.32923 48.6913C4.10397 48.5928 3.94911 48.4592 3.8576 48.2694C3.75905 48.0725 3.70273 47.7771 3.70273 47.4044V47.1935H1.99219V47.4044C1.99219 47.7349 2.02034 48.0514 2.07666 48.3256C2.13297 48.6139 2.23856 48.8811 2.39343 49.1132C2.54829 49.3452 2.74539 49.5421 2.99881 49.7108C3.24518 49.8796 3.55491 50.0132 3.92095 50.1187C4.27996 50.2242 4.71639 50.3015 5.2021 50.3507C5.68781 50.4 6.26504 50.4281 6.91265 50.4281H8.63024C9.35528 50.4281 9.98882 50.3929 10.5308 50.3296C11.0799 50.2664 11.5515 50.1679 11.9457 50.0413C12.347 49.9077 12.6778 49.746 12.9453 49.5562C13.2128 49.3593 13.424 49.1413 13.5859 48.8881C13.7408 48.642 13.8534 48.3678 13.9097 48.0654C13.966 47.7771 13.9942 47.4677 13.9942 47.1443C13.9942 46.8208 13.9801 46.5255 13.9449 46.2442C13.9097 45.9559 13.8252 45.6817 13.7056 45.4426C13.5789 45.1965 13.4029 44.9785 13.1776 44.7957C12.9524 44.6129 12.6497 44.4511 12.2836 44.3316C11.9246 44.212 11.4811 44.1206 10.9673 44.0644C10.4605 44.0081 9.84099 43.973 9.12299 43.973H7.35613C6.79298 43.973 6.30023 43.9589 5.89195 43.9378C5.49775 43.9167 5.15283 43.8745 4.87126 43.8183C4.6108 43.762 4.39259 43.6987 4.23772 43.6143C4.0899 43.537 3.98431 43.4526 3.90687 43.3471C3.82944 43.2417 3.78017 43.1151 3.75201 42.9745C3.72385 42.8127 3.70977 42.6229 3.70977 42.419C3.70977 42.0955 3.76609 41.8213 3.87168 41.6103C3.97023 41.4134 4.16733 41.2517 4.44186 41.1321C4.73751 40.9985 5.15987 40.9001 5.69485 40.8439C6.24392 40.7876 6.94785 40.7524 7.79256 40.7524H9.08075C9.71429 40.7524 10.2563 40.7665 10.6857 40.7946C11.094 40.8228 11.4319 40.886 11.6782 40.9915C11.9035 41.0829 12.0584 41.2236 12.1499 41.4064C12.2484 41.6033 12.3047 41.8916 12.3047 42.2572V42.4682H14.0153V42.2572C14.0153 41.9267 13.9871 41.6103 13.9308 41.3361C13.8463 41.0478 13.7408 40.7876 13.5929 40.5556Z" fill="white"/>
<path d="M23.6666 42.7712C23.3006 42.4196 22.8219 42.1735 22.2447 42.0328C21.6886 41.8992 20.9987 41.8359 20.1963 41.8359C19.3938 41.8359 18.6899 41.8781 18.1337 41.9555C17.5636 42.0399 17.0919 42.1735 16.7329 42.3633C16.3598 42.5602 16.0853 42.8204 15.9164 43.1438C15.7545 43.4532 15.677 43.833 15.677 44.2689V44.4799H17.3946V44.2689C17.3946 44.072 17.4298 43.9103 17.5002 43.7978C17.5706 43.6923 17.6973 43.6009 17.8803 43.5306C18.0915 43.4532 18.3801 43.397 18.7462 43.3689C19.1263 43.3407 19.5979 43.3267 20.1963 43.3267C20.5693 43.3267 20.9002 43.3337 21.1958 43.3548C21.4774 43.3759 21.7167 43.4181 21.9209 43.4814C22.1109 43.5447 22.2729 43.6361 22.3996 43.7556C22.5263 43.8751 22.6389 44.0369 22.7234 44.2478C22.8149 44.4658 22.8782 44.7471 22.9205 45.0776C22.9486 45.3096 22.9697 45.5768 22.9768 45.8792C22.829 45.7878 22.6319 45.7104 22.3714 45.6331C22.0969 45.5487 21.759 45.4854 21.3296 45.4291C20.9143 45.3799 20.3863 45.3518 19.7669 45.3518C19.3375 45.3518 18.9292 45.3588 18.5491 45.3729C18.1549 45.387 17.7959 45.4221 17.4721 45.4784C17.1412 45.5346 16.8385 45.619 16.571 45.7245C16.2965 45.837 16.0572 45.9987 15.8601 46.2026C15.663 46.4066 15.5081 46.6597 15.4095 46.9621C15.311 47.2504 15.2617 47.609 15.2617 48.0168C15.2617 48.4247 15.3603 48.7833 15.5433 49.0856C15.7263 49.388 16.029 49.6341 16.4232 49.824C16.8033 50.0068 17.2961 50.1404 17.8874 50.2248C18.4646 50.3092 19.1756 50.3514 19.9921 50.3514C20.6116 50.3514 21.1184 50.3162 21.5056 50.2459C21.9068 50.1685 22.2165 50.0701 22.4629 49.9365C22.6741 49.824 22.8501 49.6904 22.9909 49.5427V50.1967H24.7014V46.3433C24.7014 45.4854 24.624 44.7611 24.4691 44.1986C24.2931 43.5939 24.0256 43.1227 23.6666 42.7712ZM22.4559 48.5512C22.2447 48.6497 21.9561 48.72 21.59 48.7692C21.217 48.8184 20.7524 48.8466 20.1963 48.8466C19.4571 48.8466 18.8518 48.8325 18.4012 48.7973C17.9718 48.7692 17.641 48.7059 17.4228 48.6216C17.2327 48.5512 17.1131 48.4528 17.0567 48.3403C16.9934 48.2067 16.9582 48.0168 16.9582 47.7848C16.9582 47.5527 16.9863 47.3769 17.0497 47.2504C17.099 47.1449 17.2046 47.0675 17.3665 47.0043C17.5565 46.9339 17.8451 46.8847 18.2182 46.8636C18.6195 46.8425 19.1404 46.8285 19.7669 46.8285C20.3934 46.8285 20.9354 46.8496 21.3718 46.8917C21.7871 46.9339 22.1321 46.9972 22.3784 47.0816C22.6037 47.159 22.7656 47.2574 22.8501 47.3699C22.9345 47.4824 22.9768 47.616 22.9768 47.7777C22.9768 47.9395 22.9345 48.0942 22.8642 48.2207C22.7867 48.3543 22.6459 48.4669 22.4559 48.5512Z" fill="white"/>
<path d="M25.9395 42.4682H27.1995L28.1991 39.4727H26.4392L25.9395 42.4682Z" fill="white"/>
<path d="M37.7869 42.7712C37.4209 42.4196 36.9422 42.1735 36.365 42.0328C35.8089 41.8992 35.1191 41.8359 34.3166 41.8359C33.5141 41.8359 32.8102 41.8781 32.2541 41.9555C31.6839 42.0399 31.2123 42.1735 30.8532 42.3633C30.4802 42.5602 30.2056 42.8204 30.0367 43.1438C29.8748 43.4532 29.7974 43.833 29.7974 44.2689V44.4799H31.5079V44.2689C31.5079 44.072 31.5431 43.9103 31.6135 43.7978C31.6839 43.6923 31.8106 43.6009 31.9936 43.5306C32.2048 43.4532 32.4934 43.397 32.8594 43.3689C33.2396 43.3407 33.7112 43.3267 34.3095 43.3267C34.6826 43.3267 35.0135 43.3337 35.3091 43.3548C35.5907 43.3759 35.83 43.4181 36.0342 43.4814C36.2242 43.5447 36.3861 43.6361 36.5128 43.7556C36.6395 43.8751 36.7522 44.0369 36.8366 44.2478C36.9282 44.4658 36.9915 44.7471 37.0337 45.0776C37.0619 45.3096 37.083 45.5768 37.0901 45.8792C36.9422 45.7878 36.7451 45.7104 36.4847 45.6331C36.2101 45.5487 35.8723 45.4854 35.4429 45.4291C35.0275 45.3799 34.4996 45.3518 33.8801 45.3518C33.4507 45.3518 33.0425 45.3588 32.6623 45.3729C32.2681 45.387 31.9091 45.4221 31.5853 45.4784C31.2545 45.5346 30.9518 45.619 30.6843 45.7245C30.4098 45.837 30.1704 45.9987 29.9733 46.2026C29.7762 46.4066 29.6214 46.6597 29.5228 46.9621C29.4243 47.2504 29.375 47.609 29.375 48.0168C29.375 48.4247 29.4735 48.7833 29.6566 49.0856C29.8396 49.388 30.1423 49.6341 30.5365 49.824C30.9166 50.0068 31.4094 50.1404 32.0007 50.2248C32.5779 50.3092 33.2888 50.3514 34.1054 50.3514C34.7249 50.3514 35.2317 50.3162 35.6188 50.2459C36.0201 50.1685 36.3298 50.0701 36.5762 49.9365C36.7874 49.824 36.9634 49.6904 37.1041 49.5427V50.1967H38.8147V46.3433C38.8147 45.4854 38.7373 44.7611 38.5824 44.1986C38.4205 43.5939 38.153 43.1227 37.7869 42.7712ZM36.5762 48.5512C36.365 48.6497 36.0764 48.72 35.7104 48.7692C35.3373 48.8184 34.8727 48.8466 34.3166 48.8466C33.5775 48.8466 32.9721 48.8325 32.5216 48.7973C32.0922 48.7692 31.7613 48.7059 31.5431 48.6216C31.353 48.5512 31.2334 48.4528 31.1771 48.3403C31.1137 48.2067 31.0785 48.0168 31.0785 47.7848C31.0785 47.5527 31.1067 47.3769 31.17 47.2504C31.2193 47.1449 31.3249 47.0675 31.4868 47.0043C31.6768 46.9339 31.9655 46.8847 32.3385 46.8636C32.7398 46.8425 33.2607 46.8285 33.8872 46.8285C34.5137 46.8285 35.0557 46.8496 35.4921 46.8917C35.9075 46.9339 36.2524 46.9972 36.4988 47.0816C36.724 47.159 36.8859 47.2574 36.9704 47.3699C37.0549 47.4824 37.0971 47.616 37.0971 47.7777C37.0971 47.9395 37.0549 48.0942 36.9845 48.2207C36.907 48.3543 36.7733 48.4669 36.5762 48.5512Z" fill="white"/>
<path d="M49.2894 43.5878C49.1838 43.2995 49.036 43.0393 48.8459 42.8213C48.6558 42.5963 48.3954 42.4135 48.0857 42.2658C47.783 42.1252 47.4099 42.0127 46.9805 41.9424C46.4033 41.8439 45.7064 41.8087 44.7702 41.858C44.5167 41.872 44.2563 41.9002 43.9958 41.9353C43.7354 41.9705 43.4679 42.0267 43.2145 42.09C42.947 42.1603 42.7006 42.2517 42.4754 42.3643C42.2431 42.4768 42.0319 42.6244 41.8559 42.7862C41.8489 42.7932 41.8348 42.8002 41.8277 42.8143V39.4883H40.1172V50.1976H41.8277V45.2051C41.8277 44.9168 41.87 44.6566 41.9615 44.4316C42.046 44.2136 42.1938 44.0378 42.412 43.8761C42.6443 43.7144 42.9681 43.5807 43.3834 43.4893C43.8128 43.3909 44.3689 43.3417 45.0517 43.3417C45.6782 43.3417 46.1851 43.3839 46.5581 43.4682C46.9101 43.5456 47.1846 43.6722 47.3747 43.8409C47.5577 44.0097 47.6774 44.2277 47.7407 44.5089C47.8111 44.8113 47.8463 45.191 47.8463 45.641V50.2046H49.5569V45.641C49.5639 45.2543 49.5569 44.8886 49.5146 44.5511C49.4583 44.1855 49.395 43.869 49.2894 43.5878Z" fill="white"/>
<path d="M54.2656 50.182H55.9762V45.4637H64.1277V43.973H55.9762V40.9634H64.5571V39.4727H54.2656V50.182Z" fill="white"/>
<path d="M67.5621 42.0469H65.8516V50.1826H67.5621V42.0469Z" fill="white"/>
<path d="M67.5621 39.4727H65.8516V41.1814H67.5621V39.4727Z" fill="white"/>
<path d="M78.4741 43.6212C78.3686 43.3259 78.2207 43.0657 78.0307 42.8407C77.8406 42.6157 77.5802 42.4188 77.2704 42.2711C76.9607 42.1235 76.5876 42.011 76.1653 41.9406C75.7429 41.8703 75.2361 41.8281 74.6518 41.8281C74.4547 41.8281 74.2295 41.8352 73.9901 41.8492C73.7438 41.8633 73.4903 41.8914 73.2299 41.9266C72.9694 41.9688 72.7019 42.018 72.4415 42.0953C72.174 42.1657 71.9206 42.2641 71.6883 42.3836C71.456 42.5032 71.2378 42.6508 71.0547 42.8196C71.0407 42.8337 71.0195 42.8477 71.0055 42.8688V42.0461H69.2949V50.1818H71.0055V45.2596C71.0055 44.9643 71.0477 44.69 71.1392 44.458C71.2237 44.233 71.3715 44.0431 71.5897 43.8814C71.822 43.7126 72.1458 43.579 72.5612 43.4806C72.9835 43.3821 73.5467 43.3329 74.2224 43.3329C74.8489 43.3329 75.3557 43.3751 75.7288 43.4595C76.0808 43.5368 76.3553 43.6704 76.5454 43.8462C76.7284 44.015 76.8481 44.247 76.9114 44.5283C76.9818 44.8377 77.017 45.2315 77.017 45.6885V50.1818H78.7276V45.6885C78.7346 45.2948 78.7276 44.9221 78.6853 44.5846C78.6431 44.2259 78.5727 43.9095 78.4741 43.6212Z" fill="white"/>
<path d="M88.3924 42.7712C88.0264 42.4196 87.5477 42.1735 86.9705 42.0328C86.4144 41.8992 85.7245 41.8359 84.922 41.8359C84.1196 41.8359 83.4156 41.8781 82.8595 41.9555C82.2894 42.0399 81.8177 42.1735 81.4587 42.3633C81.0856 42.5602 80.8111 42.8204 80.6422 43.1438C80.4803 43.4532 80.4028 43.833 80.4028 44.2689V44.4799H82.1134V44.2689C82.1134 44.072 82.1486 43.9103 82.219 43.7978C82.2894 43.6923 82.4161 43.6009 82.5991 43.5306C82.8103 43.4532 83.0989 43.397 83.4649 43.3689C83.845 43.3407 84.3167 43.3267 84.915 43.3267C85.2881 43.3267 85.6189 43.3337 85.9146 43.3548C86.1962 43.3759 86.4355 43.4181 86.6396 43.4814C86.8297 43.5447 86.9916 43.6361 87.1183 43.7556C87.245 43.8751 87.3576 44.0369 87.4421 44.2478C87.5336 44.4658 87.597 44.7471 87.6392 45.0776C87.6674 45.3096 87.6885 45.5768 87.6955 45.8792C87.5477 45.7878 87.3506 45.7104 87.0901 45.6331C86.8156 45.5487 86.4777 45.4854 86.0483 45.4291C85.633 45.3799 85.1051 45.3518 84.4856 45.3518C84.0562 45.3518 83.6479 45.3588 83.2678 45.3729C82.8736 45.387 82.5146 45.4221 82.1908 45.4784C81.86 45.5346 81.5573 45.619 81.2898 45.7245C81.0152 45.837 80.7759 45.9987 80.5788 46.2026C80.3817 46.4066 80.2268 46.6597 80.1283 46.9621C80.0297 47.2504 79.9805 47.609 79.9805 48.0168C79.9805 48.4247 80.079 48.7833 80.262 49.0856C80.4451 49.388 80.7477 49.6341 81.1419 49.824C81.5221 50.0068 82.0148 50.1404 82.6061 50.2248C83.1833 50.3092 83.8943 50.3514 84.7109 50.3514C85.3303 50.3514 85.8372 50.3162 86.2243 50.2459C86.6256 50.1685 86.9353 50.0701 87.1817 49.9365C87.3928 49.824 87.5688 49.6904 87.7096 49.5427V50.1967H89.4202V46.3433C89.4202 45.4854 89.3427 44.7611 89.1879 44.1986C89.0189 43.5939 88.7585 43.1227 88.3924 42.7712ZM87.1817 48.5512C86.9705 48.6497 86.6819 48.72 86.3158 48.7692C85.9427 48.8184 85.4782 48.8466 84.922 48.8466C84.1829 48.8466 83.5775 48.8325 83.127 48.7973C82.6976 48.7692 82.3668 48.7059 82.1486 48.6216C81.9585 48.5512 81.8388 48.4528 81.7825 48.3403C81.7192 48.2067 81.684 48.0168 81.684 47.7848C81.684 47.5527 81.7121 47.3769 81.7755 47.2504C81.8248 47.1449 81.9304 47.0675 82.0923 47.0043C82.2823 46.9339 82.5709 46.8847 82.944 46.8636C83.3452 46.8425 83.8662 46.8285 84.4926 46.8285C85.1191 46.8285 85.6612 46.8496 86.0976 46.8917C86.5129 46.9339 86.8579 46.9972 87.1042 47.0816C87.3295 47.159 87.4914 47.2574 87.5759 47.3699C87.6603 47.4824 87.7026 47.616 87.7026 47.7777C87.7026 47.9395 87.6603 48.0942 87.5899 48.2207C87.5125 48.3543 87.3788 48.4669 87.1817 48.5512Z" fill="white"/>
<path d="M99.8941 43.6212C99.7885 43.3259 99.6407 43.0657 99.4506 42.8407C99.2605 42.6157 99.0001 42.4188 98.6904 42.2711C98.3806 42.1235 98.0075 42.011 97.5852 41.9406C97.1628 41.8703 96.656 41.8281 96.0717 41.8281C95.8746 41.8281 95.6494 41.8352 95.41 41.8492C95.1637 41.8633 94.9103 41.8914 94.6498 41.9266C94.3893 41.9688 94.1219 42.018 93.8614 42.0953C93.5939 42.1657 93.3405 42.2641 93.1082 42.3836C92.8759 42.5032 92.6577 42.6508 92.4747 42.8196C92.4606 42.8337 92.4395 42.8477 92.4254 42.8688V42.0461H90.7148V50.1818H92.4254V45.2596C92.4254 44.9643 92.4676 44.69 92.5591 44.458C92.6436 44.233 92.7914 44.0431 93.0096 43.8814C93.2419 43.7126 93.5658 43.579 93.9811 43.4806C94.4034 43.3821 94.9666 43.3329 95.6423 43.3329C96.2688 43.3329 96.7757 43.3751 97.1488 43.4595C97.5007 43.5368 97.7753 43.6704 97.9653 43.8462C98.1483 44.015 98.268 44.247 98.3313 44.5283C98.4017 44.8377 98.4369 45.2315 98.4369 45.6885V50.1818H100.147V45.6885C100.155 45.2948 100.147 44.9221 100.105 44.5846C100.063 44.2259 99.9997 43.9095 99.8941 43.6212Z" fill="white"/>
<path d="M109.715 42.4954C109.37 42.2633 108.906 42.0945 108.321 41.982C107.758 41.8766 107.026 41.8203 106.16 41.8203C105.52 41.8203 104.943 41.8484 104.45 41.9047C103.95 41.9609 103.514 42.0524 103.155 42.1789C102.781 42.3125 102.465 42.4883 102.211 42.7063C101.958 42.9243 101.754 43.2056 101.606 43.536C101.465 43.8525 101.36 44.2322 101.303 44.6541C101.247 45.069 101.219 45.5542 101.219 46.0886C101.219 46.623 101.247 47.0941 101.303 47.5019C101.36 47.9238 101.458 48.2965 101.606 48.6129C101.754 48.9364 101.958 49.2106 102.204 49.4357C102.451 49.6536 102.767 49.8365 103.148 49.963C103.514 50.0896 103.95 50.1881 104.443 50.2373C104.935 50.2935 105.506 50.3217 106.153 50.3217C107.019 50.3217 107.751 50.2654 108.314 50.1599C108.899 50.0474 109.363 49.8716 109.708 49.6326C110.067 49.3864 110.321 49.07 110.461 48.6833C110.595 48.3176 110.658 47.8817 110.658 47.3894V47.1785H108.948V47.3894C108.948 47.5582 108.941 47.7129 108.934 47.8535C108.927 47.9731 108.899 48.0856 108.856 48.184C108.814 48.2754 108.751 48.3528 108.652 48.4301C108.554 48.5075 108.399 48.5778 108.209 48.634C107.998 48.6973 107.723 48.7395 107.399 48.7747C107.068 48.8098 106.646 48.8239 106.153 48.8239C105.59 48.8239 105.111 48.8028 104.731 48.7676C104.358 48.7255 104.049 48.6692 103.809 48.5778C103.584 48.5005 103.415 48.395 103.302 48.2684C103.183 48.1418 103.105 47.9871 103.049 47.7973C102.993 47.5934 102.957 47.3543 102.943 47.08C102.929 46.7917 102.929 46.4542 102.929 46.0815C102.929 45.7089 102.936 45.3573 102.943 45.0619C102.95 44.7807 102.986 44.5346 103.049 44.3306C103.105 44.1408 103.19 43.9861 103.302 43.8525C103.415 43.7259 103.584 43.6204 103.809 43.5431C104.049 43.4587 104.358 43.3954 104.731 43.3603C105.111 43.3181 105.59 43.304 106.153 43.304C106.646 43.304 107.061 43.3181 107.399 43.3532C107.723 43.3814 107.998 43.4306 108.209 43.4868C108.406 43.5431 108.554 43.6064 108.652 43.6837C108.744 43.754 108.814 43.8314 108.856 43.9158C108.899 44.0072 108.927 44.1127 108.934 44.2252C108.941 44.3658 108.948 44.5135 108.948 44.6752V44.8861H110.658V44.6752C110.658 44.19 110.588 43.7681 110.454 43.4095C110.321 43.0509 110.067 42.7415 109.715 42.4954Z" fill="white"/>
<path d="M114.099 39.4727H112.389V41.1814H114.099V39.4727Z" fill="white"/>
<path d="M114.099 42.0469H112.389V50.1826H114.099V42.0469Z" fill="white"/>
<path d="M124.193 42.7712C123.827 42.4196 123.348 42.1735 122.771 42.0328C122.215 41.8992 121.525 41.8359 120.723 41.8359C119.92 41.8359 119.216 41.8781 118.66 41.9555C118.09 42.0399 117.618 42.1735 117.259 42.3633C116.886 42.5602 116.612 42.8204 116.443 43.1438C116.281 43.4532 116.204 43.833 116.204 44.2689V44.4799H117.914V44.2689C117.914 44.072 117.949 43.9103 118.02 43.7978C118.09 43.6923 118.217 43.6009 118.4 43.5306C118.611 43.4532 118.9 43.397 119.266 43.3689C119.646 43.3407 120.117 43.3267 120.716 43.3267C121.089 43.3267 121.42 43.3337 121.715 43.3548C121.997 43.3759 122.236 43.4181 122.44 43.4814C122.63 43.5447 122.792 43.6361 122.919 43.7556C123.046 43.8751 123.158 44.0369 123.243 44.2478C123.334 44.4658 123.398 44.7471 123.44 45.0776C123.468 45.3096 123.489 45.5768 123.496 45.8792C123.348 45.7878 123.151 45.7104 122.891 45.6331C122.616 45.5487 122.279 45.4854 121.849 45.4291C121.434 45.3799 120.906 45.3518 120.286 45.3518C119.857 45.3518 119.449 45.3588 119.069 45.3729C118.674 45.387 118.315 45.4221 117.992 45.4784C117.661 45.5346 117.358 45.619 117.091 45.7245C116.816 45.837 116.577 45.9987 116.38 46.2026C116.182 46.4066 116.028 46.6597 115.929 46.9621C115.831 47.2504 115.781 47.609 115.781 48.0168C115.781 48.4247 115.88 48.7833 116.063 49.0856C116.253 49.388 116.549 49.6341 116.943 49.824C117.323 50.0068 117.816 50.1404 118.407 50.2248C118.984 50.3092 119.695 50.3514 120.512 50.3514C121.131 50.3514 121.638 50.3162 122.025 50.2459C122.426 50.1685 122.736 50.0701 122.982 49.9365C123.194 49.824 123.37 49.6904 123.51 49.5427V50.1967H125.221V46.3433C125.221 45.4854 125.144 44.7611 124.989 44.1986C124.827 43.5939 124.559 43.1227 124.193 42.7712ZM122.982 48.5512C122.771 48.6497 122.483 48.72 122.117 48.7692C121.744 48.8184 121.279 48.8466 120.723 48.8466C119.984 48.8466 119.378 48.8325 118.928 48.7973C118.498 48.7692 118.168 48.7059 117.949 48.6216C117.759 48.5512 117.64 48.4528 117.583 48.3403C117.52 48.2067 117.485 48.0168 117.485 47.7848C117.485 47.5527 117.513 47.3769 117.576 47.2504C117.626 47.1449 117.731 47.0675 117.893 47.0043C118.083 46.9339 118.372 46.8847 118.745 46.8636C119.146 46.8425 119.667 46.8285 120.293 46.8285C120.92 46.8285 121.462 46.8496 121.898 46.8917C122.314 46.9339 122.659 46.9972 122.905 47.0816C123.13 47.159 123.292 47.2574 123.377 47.3699C123.461 47.4824 123.503 47.616 123.503 47.7777C123.503 47.9395 123.461 48.0942 123.391 48.2207C123.313 48.3543 123.18 48.4669 122.982 48.5512Z" fill="white"/>
<path d="M128.65 39.4727H126.939V50.182H128.65V39.4727Z" fill="white"/>
<defs>
<linearGradient id="paint0_linear_226_12111" x1="160.643" y1="48.1024" x2="205.885" y2="-38.1044" gradientUnits="userSpaceOnUse">
<stop stop-color="#472C99"/>
<stop offset="0.57" stop-color="#F09B37"/>
</linearGradient>
</defs>
</svg>
