<svg width="192" height="176" viewBox="0 0 192 176" fill="none" xmlns="http://www.w3.org/2000/svg">
<g id="Layer_1" clip-path="url(#clip0_226_13889)">
<g id="Group">
<g id="Group_2">
<path id="Vector" d="M15.2014 119.384C15.8905 119.384 16.4751 119.154 16.9449 118.672C17.4147 118.201 17.6548 117.615 17.6548 116.924C17.6548 116.234 17.4147 115.648 16.9449 115.177C16.4751 114.706 15.8905 114.465 15.2014 114.465C14.5124 114.465 13.9278 114.706 13.458 115.177C12.9882 115.648 12.748 116.234 12.748 116.924C12.748 117.615 12.9882 118.201 13.458 118.672C13.9382 119.143 14.5124 119.384 15.2014 119.384Z" fill="white"/>
<path id="Vector_2" d="M6.92212 119.384C7.61116 119.384 8.19579 119.154 8.66559 118.672C9.13538 118.201 9.3755 117.615 9.3755 116.924C9.3755 116.234 9.13538 115.648 8.66559 115.177C8.19579 114.706 7.61116 114.465 6.92212 114.465C6.23309 114.465 5.64846 114.706 5.17866 115.177C4.70887 115.648 4.46875 116.234 4.46875 116.924C4.46875 117.615 4.70887 118.201 5.17866 118.672C5.64846 119.143 6.23309 119.384 6.92212 119.384Z" fill="white"/>
<path id="Vector_3" d="M13.7189 123.579C13.8024 123.422 13.8963 123.276 13.9799 123.108L9.27146 121.172C8.89563 122.051 8.51979 122.826 8.14396 123.485C7.76812 124.144 7.3192 124.783 6.80765 125.4C6.28566 126.018 5.84718 126.499 5.49222 126.866C5.12683 127.232 4.54219 127.766 3.72788 128.467C2.91357 129.179 2.28718 129.754 1.8487 130.194C0.533277 131.544 -0.082676 133.083 0.011283 134.799C0.105242 136.516 0.762955 137.918 1.98442 139.017C3.23721 140.179 4.74055 140.765 6.50489 140.765H13.0925C14.4705 140.765 15.6294 140.294 16.5794 139.352C17.519 138.41 17.9888 137.227 17.9888 135.815V123.59H13.7189V123.579ZM5.32519 135.375C4.82407 134.904 4.82407 134.349 5.32519 133.721C5.35651 133.69 5.99334 133.114 7.23569 131.994C8.47803 130.874 9.2819 130.1 9.65774 129.66C10.0336 129.221 10.6704 128.383 11.5682 127.138C12.1007 126.405 12.5809 125.631 13.0507 124.825V135.794H6.50489C5.99334 135.794 5.60706 135.658 5.32519 135.375Z" fill="white"/>
<path id="Vector_4" d="M26.2058 118.786C26.2893 118.776 26.3624 118.786 26.4459 118.765L28.2102 118.148C28.6487 118.022 29.035 117.781 29.3795 117.436C29.5257 117.29 29.6301 117.122 29.7136 116.944C29.7971 117.017 29.8806 117.091 29.985 117.143C30.2564 117.269 30.5279 117.3 30.8098 117.216L32.2609 116.682C33.1796 116.348 33.639 115.741 33.639 114.84V111.041C33.639 110.403 33.3153 110.078 32.6785 110.078C32.0417 110.078 31.718 110.403 31.718 111.041V114.683L30.1103 115.259C30.0268 115.29 29.9537 115.332 29.8806 115.385V112.423C29.8806 112.14 29.7762 111.91 29.5779 111.732C29.3691 111.554 29.1185 111.46 28.8157 111.46C28.5339 111.46 28.3042 111.554 28.1058 111.732C27.9179 111.91 27.824 112.14 27.824 112.423V116.065L26.0596 116.693V113.187C26.0596 112.904 25.9657 112.663 25.7882 112.454C25.6107 112.245 25.381 112.15 25.0991 112.15C24.8173 112.15 24.5876 112.255 24.4101 112.454C24.2326 112.663 24.1387 112.904 24.1387 113.187V116.986C24.1387 117.551 24.2639 117.98 24.5249 118.294C24.9321 118.776 25.4959 118.933 26.2058 118.786Z" fill="white"/>
<path id="Vector_5" d="M23.2092 145.34C22.5202 145.34 21.9356 145.581 21.4658 146.052C20.996 146.523 20.7559 147.109 20.7559 147.799C20.7559 148.49 20.996 149.076 21.4658 149.547C21.9356 150.018 22.5202 150.259 23.2092 150.259C23.8983 150.259 24.4829 150.018 24.9527 149.547C25.4225 149.076 25.6626 148.49 25.6626 147.799C25.6626 147.109 25.4225 146.523 24.9527 146.052C24.4829 145.57 23.8983 145.34 23.2092 145.34Z" fill="white"/>
<path id="Vector_6" d="M31.4866 145.34C30.7975 145.34 30.2129 145.581 29.7431 146.052C29.2733 146.523 29.0332 147.109 29.0332 147.799C29.0332 148.49 29.2733 149.076 29.7431 149.547C30.2129 150.018 30.7975 150.259 31.4866 150.259C32.1756 150.259 32.7602 150.018 33.23 149.547C33.6998 149.076 33.9399 148.49 33.9399 147.799C33.9399 147.109 33.6998 146.523 33.23 146.052C32.7602 145.57 32.1756 145.34 31.4866 145.34Z" fill="white"/>
<path id="Vector_7" d="M43.0231 135.804H36.5713V123.014H31.6332V135.804H17.9883V140.755H31.5915C32.9382 140.755 34.1075 140.284 35.0993 139.342C36.091 138.4 36.5817 137.238 36.5817 135.846V140.755H42.9814C44.3281 140.755 45.4974 140.284 46.4892 139.342C47.481 138.4 47.9716 137.238 47.9716 135.846V111.312H43.0336V135.804H43.0231Z" fill="white"/>
<path id="Vector_8" d="M76.5049 122.26C74.2603 122.166 72.3915 122.857 70.8778 124.333C69.4684 125.683 68.7585 127.42 68.7585 129.524V135.804H57.5982V111.312H52.6602V135.846C52.6602 137.228 53.1508 138.389 54.1426 139.342C55.1344 140.284 56.3037 140.755 57.6504 140.755H68.7063C70.053 140.755 71.2223 140.284 72.2141 139.342C72.83 138.756 73.2267 138.075 73.4564 137.311V140.755H76.5153C78.0813 140.755 79.5742 140.514 80.9836 140.022C82.393 139.53 83.6249 138.682 84.6793 137.468C85.7337 136.254 86.2557 134.789 86.2557 133.051C86.2557 130.477 84.8881 127.734 82.1633 124.846C80.6391 123.223 78.7494 122.355 76.5049 122.26ZM80.1379 134.977C79.3341 135.532 78.1335 135.804 76.5362 135.804H73.707V129.524C73.707 128.833 73.9158 128.279 74.3229 127.871C74.7301 127.4 75.3878 127.18 76.2961 127.211C77.2043 127.243 77.9769 127.588 78.6033 128.247C80.4198 130.131 81.3281 131.754 81.3281 133.104C81.3385 133.805 80.9314 134.423 80.1379 134.977Z" fill="white"/>
<path id="Vector_9" d="M92.7272 135.804H86.2754V140.755H92.675C94.0218 140.755 95.1911 140.284 96.1828 139.342C97.1746 138.4 97.6653 137.238 97.6653 135.846V111.312H92.7272V135.804Z" fill="white"/>
<path id="Vector_10" d="M102.375 140.755C103.878 140.755 105.079 140.263 105.977 139.289C106.875 138.316 107.313 137.071 107.313 135.563V111.312H102.375V140.755Z" fill="white"/>
<path id="Vector_11" d="M128.348 119.384C129.037 119.384 129.622 119.154 130.091 118.672C130.561 118.201 130.801 117.615 130.801 116.924C130.801 116.234 130.561 115.648 130.091 115.177C129.622 114.706 129.037 114.465 128.348 114.465C127.659 114.465 127.074 114.706 126.604 115.177C126.135 115.648 125.895 116.234 125.895 116.924C125.895 117.615 126.135 118.201 126.604 118.672C127.085 119.143 127.659 119.384 128.348 119.384Z" fill="white"/>
<path id="Vector_12" d="M136.639 119.384C137.328 119.384 137.913 119.154 138.382 118.672C138.852 118.201 139.092 117.615 139.092 116.924C139.092 116.234 138.852 115.648 138.382 115.177C137.913 114.706 137.328 114.465 136.639 114.465C135.95 114.465 135.365 114.706 134.895 115.177C134.426 115.648 134.186 116.234 134.186 116.924C134.186 117.615 134.426 118.201 134.895 118.672C135.365 119.143 135.95 119.384 136.639 119.384Z" fill="white"/>
<path id="Vector_13" d="M135.156 123.579C135.24 123.422 135.334 123.276 135.417 123.108L130.709 121.172C130.333 122.051 129.957 122.826 129.581 123.485C129.206 124.144 128.757 124.783 128.245 125.4C127.723 126.018 127.285 126.499 126.93 126.866C126.564 127.232 125.98 127.766 125.165 128.467C124.351 129.179 123.725 129.754 123.286 130.194C121.971 131.544 121.355 133.083 121.449 134.799C121.543 136.516 122.2 137.918 123.422 139.017C124.675 140.179 126.178 140.765 127.942 140.765H134.53C135.908 140.765 137.067 140.294 138.017 139.352C138.956 138.41 139.426 137.227 139.426 135.815V123.59H135.156V123.579ZM126.752 135.375C126.251 134.904 126.251 134.349 126.752 133.721C126.784 133.69 127.42 133.114 128.663 131.994C129.905 130.874 130.709 130.1 131.085 129.66C131.461 129.221 132.097 128.383 132.995 127.138C133.528 126.405 134.008 125.631 134.478 124.825V135.794H127.932C127.431 135.794 127.034 135.658 126.752 135.375Z" fill="white"/>
<path id="Vector_14" d="M146.096 117.311C146.409 117.436 146.743 117.447 147.088 117.353L156.41 113.909C156.724 113.815 156.953 113.616 157.089 113.323C157.225 113.03 157.256 112.706 157.162 112.36C157.068 112.046 156.859 111.826 156.546 111.701C156.233 111.575 155.899 111.554 155.554 111.648L146.231 115.05C145.918 115.144 145.689 115.354 145.553 115.668C145.417 115.982 145.386 116.316 145.48 116.662C145.574 116.965 145.783 117.185 146.096 117.311Z" fill="white"/>
<path id="Vector_15" d="M175.275 116.36C175.589 116.485 175.923 116.506 176.267 116.401L185.59 112.958C185.903 112.864 186.133 112.665 186.269 112.372C186.404 112.079 186.436 111.754 186.342 111.409C186.248 111.095 186.039 110.875 185.726 110.75C185.413 110.624 185.078 110.603 184.734 110.708L175.411 114.109C175.098 114.203 174.868 114.413 174.733 114.727C174.597 115.041 174.566 115.376 174.659 115.721C174.764 116.014 174.962 116.234 175.275 116.36Z" fill="white"/>
<path id="Vector_16" d="M187.043 123.013V135.803H183.42V123.013H178.482V135.803H174.859V123.013H169.921V135.803H152.372C151.495 134.945 150.754 134.118 150.159 133.323C149.532 132.496 149.104 131.805 148.864 131.271C148.624 130.737 148.467 130.245 148.394 129.806C148.311 129.366 148.3 129.042 148.342 128.843C148.394 128.644 148.457 128.487 148.551 128.393C148.833 128.11 149.323 127.88 150.013 127.713C150.702 127.545 151.808 127.514 153.332 127.618C154.857 127.733 156.537 128.068 158.396 128.634L159.805 123.913C152.716 121.747 147.789 122.092 145.022 124.949C143.738 126.205 143.154 127.692 143.279 129.408C143.404 131.125 143.957 132.81 144.949 134.484C145.21 134.924 145.502 135.364 145.805 135.803H139.416V140.754H169.869C171.216 140.754 172.385 140.283 173.377 139.341C173.951 138.797 174.337 138.169 174.578 137.467V140.754H178.44C179.787 140.754 180.956 140.283 181.948 139.341C182.522 138.797 182.909 138.169 183.149 137.467V140.754H187.011C188.358 140.754 189.527 140.283 190.519 139.341C191.511 138.399 192.002 137.237 192.002 135.845V123.013H187.043Z" fill="white"/>
</g>
<g id="Group_3">
<path id="Vector_17" d="M19.4198 160.535C19.1901 160.19 18.8873 159.886 18.5115 159.646C18.1461 159.405 17.6868 159.206 17.1439 159.049C16.6115 158.892 15.9642 158.777 15.2438 158.714C14.5235 158.641 13.6674 158.609 12.7069 158.609H10.7964C9.61672 158.609 8.58318 158.651 7.72711 158.745C6.85015 158.829 6.08804 158.965 5.46165 159.143C4.82482 159.321 4.28194 159.551 3.87479 159.813C3.45719 160.085 3.11267 160.399 2.86212 160.755C2.61156 161.111 2.44452 161.519 2.35056 161.948C2.26704 162.367 2.21484 162.827 2.21484 163.309C2.21484 163.759 2.24616 164.198 2.29836 164.596C2.361 165.015 2.48628 165.402 2.6742 165.748C2.87256 166.093 3.16487 166.407 3.54071 166.679C3.90611 166.941 4.39678 167.161 4.99185 167.338C5.56605 167.506 6.2864 167.631 7.14247 167.726C7.97766 167.809 9.00077 167.851 10.17 167.851H12.7905C13.8344 167.851 14.6801 167.893 15.3273 167.987C15.9329 168.071 16.4131 168.207 16.7367 168.406C17.0395 168.584 17.2274 168.814 17.3214 169.097C17.4362 169.421 17.4884 169.85 17.4884 170.353C17.4884 170.855 17.4049 171.263 17.2483 171.598C17.1021 171.912 16.8411 172.174 16.4549 172.373C16.0477 172.593 15.4944 172.75 14.7949 172.854C14.0746 172.959 13.1558 173.011 12.0701 173.011H9.52277C8.58318 173.011 7.7793 172.99 7.14247 172.948C6.53696 172.907 6.04628 172.802 5.68089 172.645C5.34681 172.498 5.11713 172.3 4.98141 172.017C4.83526 171.724 4.75174 171.284 4.75174 170.73V170.416H2.21484V170.73C2.21484 171.222 2.2566 171.693 2.34012 172.101C2.42364 172.53 2.58024 172.928 2.80992 173.273C3.0396 173.618 3.33191 173.911 3.70775 174.163C4.07314 174.414 4.5325 174.613 5.07537 174.77C5.60781 174.927 6.25508 175.042 6.97543 175.115C7.69579 175.188 8.55186 175.23 9.51233 175.23H12.0597C13.135 175.23 14.0746 175.178 14.8784 175.084C15.6927 174.989 16.3922 174.843 16.9768 174.655C17.5719 174.456 18.0626 174.215 18.4593 173.932C18.856 173.639 19.1692 173.315 19.4093 172.938C19.639 172.572 19.8061 172.163 19.8896 171.713C19.9731 171.284 20.0149 170.824 20.0149 170.342C20.0149 169.861 19.994 169.421 19.9418 169.003C19.8896 168.573 19.7643 168.165 19.5868 167.809C19.3989 167.443 19.1379 167.119 18.8038 166.847C18.4697 166.574 18.0208 166.334 17.478 166.156C16.9455 165.978 16.2878 165.842 15.5257 165.758C14.774 165.674 13.8553 165.622 12.7905 165.622H10.17C9.33485 165.622 8.60406 165.601 7.99854 165.57C7.41391 165.538 6.90235 165.475 6.48476 165.392C6.09848 165.308 5.77485 165.214 5.54517 165.088C5.32593 164.973 5.16933 164.847 5.05449 164.69C4.93965 164.533 4.86658 164.345 4.82482 164.136C4.78306 163.895 4.76218 163.612 4.76218 163.309C4.76218 162.827 4.8457 162.419 5.00229 162.105C5.14845 161.812 5.44077 161.571 5.84792 161.393C6.2864 161.195 6.91279 161.048 7.70623 160.964C8.52054 160.881 9.56452 160.828 10.8173 160.828H12.7278C13.6674 160.828 14.4713 160.849 15.1081 160.891C15.7136 160.933 16.2147 161.027 16.5801 161.184C16.9142 161.32 17.1439 161.53 17.2796 161.802C17.4258 162.095 17.5093 162.524 17.5093 163.068V163.382H20.0462V163.068C20.0462 162.576 20.0044 162.105 19.9209 161.697C19.7956 161.268 19.639 160.881 19.4198 160.535Z" fill="white"/>
<path id="Vector_18" d="M34.3598 163.833C33.8169 163.31 33.107 162.944 32.2509 162.734C31.4262 162.536 30.403 162.441 29.2129 162.441C28.0227 162.441 26.9788 162.504 26.154 162.619C25.3084 162.745 24.6089 162.944 24.0765 163.226C23.5232 163.519 23.116 163.907 22.8654 164.388C22.6253 164.849 22.5105 165.414 22.5105 166.063V166.377H25.0578V166.063C25.0578 165.77 25.11 165.529 25.2144 165.362C25.3188 165.205 25.5067 165.069 25.7782 164.964C26.0914 164.849 26.5194 164.765 27.0623 164.723C27.626 164.681 28.3255 164.66 29.2129 164.66C29.7662 164.66 30.2569 164.671 30.6954 164.702C31.113 164.734 31.4679 164.796 31.7707 164.891C32.0525 164.985 32.2927 165.121 32.4806 165.299C32.6685 165.477 32.8355 165.717 32.9608 166.031C33.0965 166.356 33.1905 166.775 33.2531 167.266C33.2949 167.612 33.3262 168.01 33.3367 168.46C33.1174 168.324 32.8251 168.208 32.4388 168.093C32.0317 167.968 31.5306 167.874 30.8937 167.79C30.2778 167.717 29.4948 167.675 28.5761 167.675C27.9392 167.675 27.3337 167.685 26.77 167.706C26.1853 167.727 25.6529 167.779 25.1727 167.863C24.682 167.947 24.2331 168.072 23.8364 168.229C23.4292 168.397 23.0742 168.638 22.7819 168.941C22.4896 169.245 22.2599 169.621 22.1138 170.071C21.9676 170.501 21.8945 171.034 21.8945 171.641C21.8945 172.249 22.0407 172.782 22.3121 173.232C22.5836 173.682 23.0325 174.049 23.6171 174.331C24.1809 174.603 24.9117 174.802 25.7886 174.928C26.6447 175.054 27.6991 175.116 28.9101 175.116C29.8288 175.116 30.5805 175.064 31.1547 174.959C31.7498 174.844 32.2091 174.698 32.5745 174.499C32.8877 174.331 33.1487 174.133 33.3575 173.913V174.886H35.8944V169.15C35.8944 167.874 35.7796 166.795 35.5499 165.958C35.2889 165.058 34.8922 164.357 34.3598 163.833ZM32.5641 172.437C32.2509 172.583 31.8229 172.688 31.28 172.761C30.7267 172.835 30.0376 172.877 29.2129 172.877C28.1167 172.877 27.2189 172.856 26.5507 172.803C25.9139 172.761 25.4232 172.667 25.0996 172.542C24.8177 172.437 24.6402 172.29 24.5567 172.123C24.4627 171.924 24.4105 171.641 24.4105 171.296C24.4105 170.951 24.4523 170.689 24.5463 170.501C24.6193 170.344 24.7759 170.228 25.0161 170.134C25.2979 170.03 25.726 169.956 26.2793 169.925C26.8744 169.894 27.6469 169.873 28.5761 169.873C29.5052 169.873 30.3091 169.904 30.9564 169.967C31.5723 170.03 32.0839 170.124 32.4493 170.249C32.7833 170.365 33.0235 170.511 33.1487 170.679C33.274 170.846 33.3367 171.045 33.3367 171.286C33.3367 171.526 33.274 171.757 33.1696 171.945C33.0548 172.144 32.846 172.311 32.5641 172.437Z" fill="white"/>
<path id="Vector_19" d="M37.7305 163.381H39.5992L41.0817 158.922H38.4717L37.7305 163.381Z" fill="white"/>
<path id="Vector_20" d="M55.3018 163.833C54.759 163.31 54.0491 162.944 53.193 162.734C52.3682 162.536 51.3451 162.441 50.155 162.441C48.9648 162.441 47.9208 162.504 47.0961 162.619C46.2505 162.745 45.551 162.944 45.0185 163.226C44.4652 163.519 44.0581 163.907 43.8075 164.388C43.5674 164.849 43.4526 165.414 43.4526 166.063V166.377H45.9895V166.063C45.9895 165.77 46.0417 165.529 46.1461 165.362C46.2505 165.205 46.4384 165.069 46.7098 164.964C47.023 164.849 47.451 164.765 47.9939 164.723C48.5577 164.681 49.2571 164.66 50.1445 164.66C50.6978 164.66 51.1885 164.671 51.627 164.702C52.0446 164.734 52.3995 164.796 52.7023 164.891C52.9842 164.985 53.2243 165.121 53.4122 165.299C53.6001 165.477 53.7672 165.717 53.8925 166.031C54.0282 166.356 54.1221 166.775 54.1848 167.266C54.2265 167.612 54.2578 168.01 54.2683 168.46C54.0491 168.324 53.7567 168.208 53.3705 168.093C52.9633 167.968 52.4622 167.874 51.8254 167.79C51.2094 167.717 50.4264 167.675 49.5077 167.675C48.8709 167.675 48.2654 167.685 47.7016 167.706C47.117 167.727 46.5845 167.779 46.1043 167.863C45.6136 167.947 45.1647 168.072 44.768 168.229C44.3608 168.397 44.0059 168.638 43.7136 168.941C43.4212 169.245 43.1916 169.621 43.0454 170.071C42.8993 170.501 42.8262 171.034 42.8262 171.641C42.8262 172.249 42.9723 172.782 43.2438 173.232C43.5152 173.682 43.9641 174.049 44.5488 174.331C45.1125 174.603 45.8433 174.802 46.7203 174.928C47.5763 175.054 48.6308 175.116 49.8418 175.116C50.7605 175.116 51.5122 175.064 52.0864 174.959C52.6814 174.844 53.1408 174.698 53.5062 174.499C53.8194 174.331 54.0804 174.133 54.2892 173.913V174.886H56.8261V169.15C56.8261 167.874 56.7112 166.795 56.4815 165.958C56.2414 165.058 55.8447 164.357 55.3018 163.833ZM53.5062 172.437C53.193 172.583 52.7649 172.688 52.2221 172.761C51.6688 172.835 50.9797 172.877 50.155 172.877C49.0588 172.877 48.161 172.856 47.4928 172.803C46.856 172.761 46.3653 172.667 46.0417 172.542C45.7598 172.437 45.5823 172.29 45.4988 172.123C45.4048 171.924 45.3526 171.641 45.3526 171.296C45.3526 170.951 45.3944 170.689 45.4883 170.501C45.5614 170.344 45.718 170.228 45.9581 170.134C46.24 170.03 46.6681 169.956 47.2214 169.925C47.8164 169.894 48.589 169.873 49.5181 169.873C50.4473 169.873 51.2512 169.904 51.8984 169.967C52.5144 170.03 53.0259 170.124 53.3913 170.249C53.7254 170.365 53.9655 170.511 54.0908 170.679C54.2161 170.846 54.2787 171.045 54.2787 171.286C54.2787 171.526 54.2161 171.757 54.1117 171.945C53.9969 172.144 53.7985 172.311 53.5062 172.437Z" fill="white"/>
<path id="Vector_21" d="M72.361 165.047C72.2044 164.618 71.9852 164.231 71.7033 163.906C71.4214 163.572 71.0351 163.299 70.5758 163.08C70.1269 162.87 69.5735 162.703 68.9367 162.598C68.0806 162.452 67.0471 162.399 65.6586 162.473C65.2827 162.493 64.8965 162.535 64.5102 162.588C64.1239 162.64 63.7272 162.724 63.3514 162.818C62.9546 162.923 62.5893 163.059 62.2552 163.226C61.9107 163.394 61.5975 163.613 61.3365 163.854C61.326 163.865 61.3051 163.875 61.2947 163.896V158.945H58.7578V174.886H61.2947V167.455C61.2947 167.025 61.3573 166.638 61.4931 166.303C61.6183 165.979 61.8376 165.717 62.1612 165.476C62.5057 165.236 62.986 165.037 63.6019 164.901C64.2388 164.754 65.0635 164.681 66.0762 164.681C67.0053 164.681 67.757 164.744 68.3103 164.869C68.8323 164.984 69.2395 165.173 69.5213 165.424C69.7928 165.675 69.9703 166 70.0642 166.418C70.1686 166.868 70.2208 167.434 70.2208 168.104V174.896H72.7577V168.104C72.7681 167.528 72.7577 166.984 72.6951 166.481C72.6115 165.937 72.5176 165.466 72.361 165.047Z" fill="white"/>
<path id="Vector_22" d="M79.7422 174.862H82.2791V167.839H94.3685V165.62H82.2791V161.141H95.0053V158.922H79.7422V174.862Z" fill="white"/>
<path id="Vector_23" d="M99.4627 162.754H96.9258V174.864H99.4627V162.754Z" fill="white"/>
<path id="Vector_24" d="M99.4627 158.922H96.9258V161.465H99.4627V158.922Z" fill="white"/>
<path id="Vector_25" d="M115.645 165.099C115.488 164.659 115.269 164.272 114.987 163.937C114.705 163.602 114.319 163.309 113.86 163.089C113.4 162.869 112.847 162.702 112.221 162.597C111.594 162.492 110.843 162.43 109.976 162.43C109.684 162.43 109.35 162.44 108.995 162.461C108.629 162.482 108.253 162.524 107.867 162.576C107.481 162.639 107.084 162.712 106.698 162.827C106.301 162.932 105.925 163.079 105.581 163.257C105.236 163.434 104.913 163.654 104.641 163.905C104.62 163.926 104.589 163.947 104.568 163.979V162.754H102.031V174.864H104.568V167.537C104.568 167.098 104.631 166.69 104.766 166.344C104.892 166.009 105.111 165.727 105.435 165.486C105.779 165.235 106.259 165.036 106.875 164.889C107.502 164.743 108.337 164.67 109.339 164.67C110.268 164.67 111.02 164.732 111.573 164.858C112.095 164.973 112.502 165.172 112.784 165.434C113.056 165.685 113.233 166.03 113.327 166.449C113.432 166.909 113.484 167.495 113.484 168.176V174.864H116.021V168.176C116.031 167.59 116.021 167.035 115.958 166.533C115.895 165.999 115.791 165.528 115.645 165.099Z" fill="white"/>
<path id="Vector_26" d="M130.355 163.833C129.812 163.31 129.102 162.944 128.246 162.734C127.421 162.536 126.398 162.441 125.208 162.441C124.018 162.441 122.974 162.504 122.149 162.619C121.303 162.745 120.604 162.944 120.071 163.226C119.518 163.519 119.111 163.907 118.86 164.388C118.62 164.849 118.505 165.414 118.505 166.063V166.377H121.042V166.063C121.042 165.77 121.094 165.529 121.199 165.362C121.303 165.205 121.491 165.069 121.763 164.964C122.076 164.849 122.504 164.765 123.047 164.723C123.61 164.681 124.31 164.66 125.197 164.66C125.751 164.66 126.241 164.671 126.68 164.702C127.097 164.734 127.452 164.796 127.755 164.891C128.037 164.985 128.277 165.121 128.465 165.299C128.653 165.477 128.82 165.717 128.945 166.031C129.081 166.356 129.175 166.775 129.238 167.266C129.279 167.612 129.311 168.01 129.321 168.46C129.102 168.324 128.809 168.208 128.423 168.093C128.016 167.968 127.515 167.874 126.878 167.79C126.262 167.717 125.479 167.675 124.56 167.675C123.924 167.675 123.318 167.685 122.754 167.706C122.17 167.727 121.637 167.779 121.157 167.863C120.666 167.947 120.217 168.072 119.821 168.229C119.414 168.397 119.059 168.638 118.766 168.941C118.474 169.245 118.244 169.621 118.098 170.071C117.952 170.501 117.879 171.034 117.879 171.641C117.879 172.249 118.025 172.782 118.296 173.232C118.568 173.682 119.017 174.049 119.601 174.331C120.165 174.603 120.896 174.802 121.773 174.928C122.629 175.054 123.683 175.116 124.895 175.116C125.813 175.116 126.565 175.064 127.139 174.959C127.734 174.844 128.194 174.698 128.559 174.499C128.872 174.331 129.133 174.133 129.342 173.913V174.886H131.879V169.15C131.879 167.874 131.764 166.795 131.534 165.958C131.284 165.058 130.897 164.357 130.355 163.833ZM128.559 172.437C128.246 172.583 127.818 172.688 127.275 172.761C126.721 172.835 126.032 172.877 125.208 172.877C124.112 172.877 123.214 172.856 122.546 172.803C121.909 172.761 121.418 172.667 121.094 172.542C120.813 172.437 120.635 172.29 120.552 172.123C120.458 171.924 120.405 171.641 120.405 171.296C120.405 170.951 120.447 170.689 120.541 170.501C120.614 170.344 120.771 170.228 121.011 170.134C121.293 170.03 121.721 169.956 122.274 169.925C122.869 169.894 123.642 169.873 124.571 169.873C125.5 169.873 126.304 169.904 126.951 169.967C127.567 170.03 128.079 170.124 128.444 170.249C128.778 170.365 129.018 170.511 129.144 170.679C129.269 170.846 129.331 171.045 129.331 171.286C129.331 171.526 129.269 171.757 129.164 171.945C129.05 172.144 128.851 172.311 128.559 172.437Z" fill="white"/>
<path id="Vector_27" d="M147.412 165.099C147.256 164.659 147.037 164.272 146.755 163.937C146.473 163.602 146.087 163.309 145.627 163.089C145.168 162.869 144.615 162.702 143.988 162.597C143.362 162.492 142.61 162.43 141.744 162.43C141.451 162.43 141.117 162.44 140.762 162.461C140.397 162.482 140.021 162.524 139.635 162.576C139.248 162.639 138.852 162.712 138.465 162.827C138.069 162.932 137.693 163.079 137.348 163.257C137.004 163.434 136.68 163.654 136.409 163.905C136.388 163.926 136.357 163.947 136.336 163.979V162.754H133.799V174.864H136.336V167.537C136.336 167.098 136.398 166.69 136.534 166.344C136.659 166.009 136.879 165.727 137.202 165.486C137.547 165.235 138.027 165.036 138.643 164.889C139.269 164.743 140.105 164.67 141.107 164.67C142.036 164.67 142.788 164.732 143.341 164.858C143.863 164.973 144.27 165.172 144.552 165.434C144.823 165.685 145.001 166.03 145.095 166.449C145.199 166.909 145.251 167.495 145.251 168.176V174.864H147.788V168.176C147.799 167.59 147.788 167.035 147.726 166.533C147.663 165.999 147.569 165.528 147.412 165.099Z" fill="white"/>
<path id="Vector_28" d="M161.976 163.423C161.464 163.077 160.775 162.826 159.909 162.659C159.074 162.502 157.988 162.418 156.704 162.418C155.754 162.418 154.898 162.46 154.167 162.544C153.426 162.627 152.778 162.763 152.246 162.952C151.693 163.151 151.223 163.412 150.847 163.737C150.471 164.061 150.168 164.48 149.949 164.972C149.74 165.443 149.584 166.008 149.5 166.636C149.417 167.253 149.375 167.976 149.375 168.771C149.375 169.567 149.417 170.268 149.5 170.875C149.584 171.503 149.73 172.058 149.949 172.529C150.168 173.01 150.471 173.418 150.837 173.753C151.202 174.078 151.672 174.35 152.236 174.538C152.778 174.727 153.426 174.873 154.156 174.946C154.887 175.03 155.733 175.072 156.693 175.072C157.977 175.072 159.063 174.988 159.898 174.831C160.765 174.664 161.454 174.402 161.966 174.046C162.498 173.68 162.874 173.209 163.083 172.633C163.281 172.089 163.375 171.44 163.375 170.707V170.393H160.838V170.707C160.838 170.959 160.828 171.189 160.817 171.398C160.807 171.576 160.765 171.744 160.702 171.89C160.64 172.026 160.546 172.141 160.4 172.256C160.253 172.372 160.024 172.476 159.742 172.56C159.429 172.654 159.021 172.717 158.541 172.769C158.051 172.822 157.424 172.843 156.693 172.843C155.858 172.843 155.148 172.811 154.585 172.759C154.031 172.696 153.572 172.612 153.217 172.476C152.883 172.361 152.632 172.204 152.465 172.016C152.288 171.827 152.173 171.597 152.089 171.314C152.006 171.011 151.954 170.655 151.933 170.247C151.912 169.818 151.912 169.315 151.912 168.761C151.912 168.206 151.922 167.683 151.933 167.243C151.943 166.824 151.995 166.458 152.089 166.155C152.173 165.872 152.298 165.642 152.465 165.443C152.632 165.254 152.883 165.097 153.217 164.982C153.572 164.857 154.031 164.762 154.585 164.71C155.148 164.647 155.858 164.626 156.693 164.626C157.424 164.626 158.04 164.647 158.541 164.7C159.021 164.742 159.429 164.815 159.742 164.899C160.034 164.982 160.253 165.076 160.4 165.192C160.535 165.296 160.64 165.411 160.702 165.537C160.765 165.673 160.807 165.83 160.817 165.998C160.828 166.207 160.838 166.427 160.838 166.667V166.981H163.375V166.667C163.375 165.945 163.27 165.317 163.072 164.783C162.874 164.25 162.498 163.789 161.976 163.423Z" fill="white"/>
<path id="Vector_29" d="M168.48 158.922H165.943V161.465H168.48V158.922Z" fill="white"/>
<path id="Vector_30" d="M168.48 162.754H165.943V174.864H168.48V162.754Z" fill="white"/>
<path id="Vector_31" d="M183.452 163.833C182.909 163.31 182.199 162.944 181.343 162.734C180.519 162.536 179.496 162.441 178.305 162.441C177.115 162.441 176.071 162.504 175.246 162.619C174.401 162.745 173.701 162.944 173.169 163.226C172.616 163.519 172.208 163.907 171.958 164.388C171.718 164.849 171.603 165.414 171.603 166.063V166.377H174.14V166.063C174.14 165.77 174.192 165.529 174.296 165.362C174.401 165.205 174.589 165.069 174.86 164.964C175.173 164.849 175.601 164.765 176.144 164.723C176.708 164.681 177.408 164.66 178.295 164.66C178.848 164.66 179.339 164.671 179.777 164.702C180.195 164.734 180.55 164.796 180.853 164.891C181.135 164.985 181.375 165.121 181.563 165.299C181.751 165.477 181.918 165.717 182.043 166.031C182.179 166.356 182.273 166.775 182.335 167.266C182.377 167.612 182.408 168.01 182.419 168.46C182.199 168.324 181.907 168.208 181.521 168.093C181.114 167.968 180.613 167.874 179.976 167.79C179.36 167.717 178.577 167.675 177.658 167.675C177.021 167.675 176.416 167.685 175.852 167.706C175.267 167.727 174.735 167.779 174.255 167.863C173.764 167.947 173.315 168.072 172.918 168.229C172.511 168.397 172.156 168.638 171.864 168.941C171.572 169.245 171.342 169.621 171.196 170.071C171.05 170.501 170.977 171.034 170.977 171.641C170.977 172.249 171.123 172.782 171.394 173.232C171.676 173.682 172.115 174.049 172.699 174.331C173.263 174.603 173.994 174.802 174.871 174.928C175.727 175.054 176.781 175.116 177.992 175.116C178.911 175.116 179.663 175.064 180.237 174.959C180.832 174.844 181.291 174.698 181.657 174.499C181.97 174.331 182.231 174.133 182.44 173.913V174.886H184.976V169.15C184.976 167.874 184.862 166.795 184.632 165.958C184.392 165.058 183.995 164.357 183.452 163.833ZM181.657 172.437C181.343 172.583 180.915 172.688 180.372 172.761C179.819 172.835 179.13 172.877 178.305 172.877C177.209 172.877 176.311 172.856 175.643 172.803C175.006 172.761 174.516 172.667 174.192 172.542C173.91 172.437 173.733 172.29 173.649 172.123C173.555 171.924 173.503 171.641 173.503 171.296C173.503 170.951 173.545 170.689 173.639 170.501C173.712 170.344 173.868 170.228 174.109 170.134C174.39 170.03 174.818 169.956 175.372 169.925C175.967 169.894 176.739 169.873 177.669 169.873C178.598 169.873 179.402 169.904 180.049 169.967C180.665 170.03 181.176 170.124 181.542 170.249C181.876 170.365 182.116 170.511 182.241 170.679C182.366 170.846 182.429 171.045 182.429 171.286C182.429 171.526 182.366 171.757 182.262 171.945C182.147 172.144 181.949 172.311 181.657 172.437Z" fill="white"/>
<path id="Vector_32" d="M190.06 158.922H187.523V174.862H190.06V158.922Z" fill="white"/>
</g>
</g>
<g id="Group_4">
<path id="Vector_33" d="M122.136 85.9512H69.8318C60.6656 85.9512 53.2324 78.499 53.2324 69.3094V16.8722C53.2324 7.68262 60.6656 0.230469 69.8318 0.230469H122.136C131.302 0.230469 138.735 7.68262 138.735 16.8722V69.3094C138.746 78.499 131.312 85.9512 122.136 85.9512Z" fill="url(#paint0_linear_226_13889)"/>
<path id="Vector_34" d="M90.3463 57.2203L82.4328 60.9778C81.9944 61.1871 81.5246 61.2918 81.0443 61.2918C80.6476 61.2918 80.2613 61.2185 79.8855 61.072L72.0034 58.0472C70.7402 57.5553 69.8945 56.3411 69.8945 54.9805V29.034C69.8945 27.2233 71.3666 25.7475 73.1727 25.7475H79.4366C81.2114 25.7475 82.8191 27.0768 82.8922 28.8561C82.9757 30.7191 81.4933 32.2577 79.6454 32.2577H76.4195C76.4195 32.2577 76.3881 32.2577 76.3881 32.2891V52.7407C76.3881 52.7407 76.3986 52.7616 76.409 52.7721L80.8982 54.499H80.9191L85.711 52.2278C85.711 52.2278 85.7318 52.2069 85.7318 52.1964V23.2146C85.7318 22.2936 86.1181 21.4039 86.8072 20.7864L90.4089 17.4999C91.3381 16.6521 92.6639 16.4219 93.8228 16.8929L99.7213 19.3106C101.36 19.9805 102.342 21.8226 101.747 23.4972C101.12 25.2556 99.168 26.1139 97.4558 25.4126L93.2799 23.6961C93.2799 23.6961 93.259 23.6961 93.2486 23.6961L92.2463 24.6172C92.2463 24.6172 92.2359 24.6172 92.2359 24.6381V54.2478C92.2255 55.5038 91.4947 56.6656 90.3463 57.2099V57.2203ZM120.1 28.1339L112.082 24.68C111.163 24.2822 110.119 24.3346 109.242 24.8055L101.475 28.9817C100.41 29.5573 99.7422 30.6668 99.7422 31.8809V61.4697C99.7422 61.4697 99.7422 61.4907 99.7317 61.4907L98.6564 62.4536C98.6564 62.4536 98.6355 62.464 98.6251 62.464L94.1151 60.4545C92.4969 59.7323 90.4924 60.2975 89.699 61.8884C88.8742 63.563 89.605 65.5726 91.2859 66.3157L97.9256 69.2673C98.3432 69.4557 98.7921 69.5499 99.2411 69.5499C100.024 69.5499 100.797 69.2673 101.413 68.723L105.14 65.3737C105.839 64.7457 106.236 63.8561 106.236 62.9246V33.8277C106.236 33.8277 106.246 33.8067 106.257 33.7963L110.934 31.2843H110.965L115.579 33.273C115.579 33.273 115.6 33.2939 115.6 33.3044V53.8501C115.6 53.8501 115.59 53.8815 115.569 53.8815H112.552C110.777 53.8815 109.169 55.2108 109.096 56.9901C109.013 58.8531 110.495 60.3917 112.343 60.3917H118.816C120.622 60.3917 122.094 58.9159 122.094 57.1052V31.1587C122.094 29.8399 121.301 28.6572 120.1 28.1339Z" fill="white"/>
</g>
</g>
<defs>
<linearGradient id="paint0_linear_226_13889" x1="81.1069" y1="71.4864" x2="148.588" y2="-56.6286" gradientUnits="userSpaceOnUse">
<stop stop-color="#472C99"/>
<stop offset="0.57" stop-color="#F09B37"/>
</linearGradient>
<clipPath id="clip0_226_13889">
<rect width="192" height="175" fill="white" transform="translate(0 0.230469)"/>
</clipPath>
</defs>
</svg>
