<svg width="347" height="101" viewBox="0 0 347 101" fill="none" xmlns="http://www.w3.org/2000/svg">
<path d="M327.483 100.651H265.987C255.21 100.651 246.471 91.9209 246.471 81.1555V19.726C246.471 8.96056 255.21 0.230469 265.987 0.230469H327.483C338.26 0.230469 346.999 8.96056 346.999 19.726V81.1555C347.012 91.9209 338.272 100.651 327.483 100.651Z" fill="url(#paint0_linear_226_13806)"/>
<path d="M290.106 66.9936L280.802 71.3954C280.287 71.6406 279.734 71.7632 279.17 71.7632C278.703 71.7632 278.249 71.6774 277.807 71.5057L268.54 67.9622C267.055 67.3859 266.061 65.9636 266.061 64.3696V33.9737C266.061 31.8525 267.791 30.1236 269.915 30.1236H277.279C279.366 30.1236 281.256 31.6808 281.342 33.7653C281.441 35.9478 279.698 37.7502 277.525 37.7502H273.732C273.732 37.7502 273.695 37.7502 273.695 37.787V61.7457C273.695 61.7457 273.708 61.7702 273.72 61.7825L278.998 63.8056H279.022L284.657 61.1449C284.657 61.1449 284.681 61.1204 284.681 61.1081V27.1564C284.681 26.0774 285.135 25.0352 285.945 24.3117L290.18 20.4617C291.272 19.4685 292.831 19.1988 294.194 19.7505L301.129 22.5829C303.056 23.3676 304.21 25.5256 303.51 27.4874C302.774 29.5474 300.478 30.5528 298.465 29.7313L293.556 27.7204C293.556 27.7204 293.531 27.7204 293.519 27.7204L292.34 28.7994C292.34 28.7994 292.328 28.7994 292.328 28.8239V63.5113C292.316 64.9827 291.457 66.3437 290.106 66.9813V66.9936ZM325.089 32.9192L315.662 28.873C314.582 28.407 313.354 28.4684 312.323 29.0201L303.191 33.9124C301.939 34.5868 301.154 35.8865 301.154 37.3088V71.9717C301.154 71.9717 301.154 71.9962 301.141 71.9962L299.877 73.1242C299.877 73.1242 299.852 73.1365 299.84 73.1365L294.538 70.7823C292.635 69.9363 290.278 70.5984 289.345 72.4621C288.376 74.4239 289.235 76.7781 291.211 77.6487L299.018 81.1064C299.509 81.3271 300.037 81.4375 300.564 81.4375C301.485 81.4375 302.393 81.1064 303.117 80.4688L307.499 76.5452C308.322 75.8095 308.788 74.7673 308.788 73.676V39.5894C308.788 39.5894 308.801 39.5649 308.813 39.5526L314.312 36.6099H314.349L319.774 38.9396C319.774 38.9396 319.799 38.9641 319.799 38.9763V63.0454C319.799 63.0454 319.786 63.0822 319.762 63.0822H316.214C314.128 63.0822 312.237 64.6394 312.152 66.7238C312.053 68.9063 313.796 70.7088 315.969 70.7088H323.579C325.703 70.7088 327.433 68.9799 327.433 66.8587V36.4628C327.433 34.9178 326.5 33.5323 325.089 32.9192Z" fill="white"/>
<path d="M17.8708 22.3371C18.681 22.3371 19.3683 22.0673 19.9207 21.5033C20.4731 20.9515 20.7554 20.2649 20.7554 19.4556C20.7554 18.6464 20.4731 17.9598 19.9207 17.408C19.3683 16.8562 18.681 16.5742 17.8708 16.5742C17.0607 16.5742 16.3734 16.8562 15.821 17.408C15.2686 17.9598 14.9863 18.6464 14.9863 19.4556C14.9863 20.2649 15.2686 20.9515 15.821 21.5033C16.3856 22.0551 17.0607 22.3371 17.8708 22.3371Z" fill="#37156D"/>
<path d="M8.13647 22.3371C8.94659 22.3371 9.63397 22.0673 10.1863 21.5033C10.7387 20.9515 11.021 20.2649 11.021 19.4556C11.021 18.6464 10.7387 17.9598 10.1863 17.408C9.63397 16.8562 8.94659 16.5742 8.13647 16.5742C7.32635 16.5742 6.63898 16.8562 6.08662 17.408C5.53427 17.9598 5.25195 18.6464 5.25195 19.4556C5.25195 20.2649 5.53427 20.9515 6.08662 21.5033C6.63898 22.0551 7.32635 22.3371 8.13647 22.3371Z" fill="#37156D"/>
<path d="M16.1275 27.2537C16.2257 27.0698 16.3361 26.8981 16.4343 26.7019L10.8985 24.4336C10.4566 25.4635 10.0147 26.3709 9.57285 27.1434C9.13097 27.9158 8.60316 28.6638 8.00171 29.3872C7.38798 30.1106 6.87245 30.6746 6.45511 31.1038C6.0255 31.5329 5.33813 32.1582 4.38071 32.9798C3.4233 33.8135 2.68682 34.4879 2.17129 35.0029C0.624697 36.5846 -0.0995016 38.387 0.0109694 40.3979C0.12144 42.4088 0.894738 44.0518 2.33086 45.3392C3.80381 46.7002 5.57134 47.3869 7.64574 47.3869H15.391C17.0112 47.3869 18.3737 46.8351 19.4907 45.7316C20.5954 44.6281 21.1478 43.2425 21.1478 41.5872V27.266H16.1275V27.2537ZM6.25872 41.0723C5.66954 40.5205 5.66954 39.8706 6.25872 39.135C6.29554 39.0982 7.04429 38.4238 8.50496 37.1118C9.96563 35.7999 10.9108 34.8925 11.3527 34.3776C11.7945 33.8626 12.5433 32.8817 13.5989 31.4226C14.2249 30.5643 14.7895 29.6569 15.3419 28.7128V41.5627H7.64574C7.04429 41.5627 6.59013 41.4033 6.25872 41.0723Z" fill="#37156D"/>
<path d="M30.8073 21.639C30.9055 21.6267 30.9914 21.639 31.0896 21.6144L33.164 20.891C33.6796 20.7439 34.1337 20.4619 34.5388 20.0572C34.7106 19.8856 34.8334 19.6894 34.9316 19.481C35.0298 19.5668 35.128 19.6526 35.2507 19.7139C35.5698 19.8611 35.889 19.8978 36.2204 19.7997L37.9266 19.1744C39.0067 18.7821 39.5468 18.0709 39.5468 17.0164V12.5656C39.5468 11.8176 39.1663 11.4375 38.4175 11.4375C37.6688 11.4375 37.2883 11.8176 37.2883 12.5656V16.8325L35.398 17.5069C35.2998 17.5437 35.2139 17.5927 35.128 17.654V14.1841C35.128 13.853 35.0052 13.5832 34.772 13.3748C34.5265 13.1664 34.2319 13.056 33.876 13.056C33.5445 13.056 33.2745 13.1664 33.0413 13.3748C32.8203 13.5832 32.7099 13.853 32.7099 14.1841V18.451L30.6355 19.1867V15.0791C30.6355 14.7481 30.525 14.4661 30.3163 14.2208C30.1077 13.9756 29.8376 13.8653 29.5062 13.8653C29.1748 13.8653 28.9048 13.9879 28.6961 14.2208C28.4874 14.4661 28.377 14.7481 28.377 15.0791V19.53C28.377 20.1921 28.5242 20.6948 28.8311 21.0627C29.3098 21.6267 29.9726 21.8106 30.8073 21.639Z" fill="#37156D"/>
<path d="M27.2849 52.7461C26.4748 52.7461 25.7874 53.0281 25.2351 53.5799C24.6827 54.1316 24.4004 54.8183 24.4004 55.6275C24.4004 56.4368 24.6827 57.1234 25.2351 57.6752C25.7874 58.2269 26.4748 58.5089 27.2849 58.5089C28.095 58.5089 28.7824 58.2269 29.3348 57.6752C29.8871 57.1234 30.1694 56.4368 30.1694 55.6275C30.1694 54.8183 29.8871 54.1316 29.3348 53.5799C28.7824 53.0159 28.095 52.7461 27.2849 52.7461Z" fill="#37156D"/>
<path d="M37.0193 52.7461C36.2092 52.7461 35.5218 53.0281 34.9694 53.5799C34.4171 54.1316 34.1348 54.8183 34.1348 55.6275C34.1348 56.4368 34.4171 57.1234 34.9694 57.6752C35.5218 58.2269 36.2092 58.5089 37.0193 58.5089C37.8294 58.5089 38.5168 58.2269 39.0691 57.6752C39.6215 57.1234 39.9038 56.4368 39.9038 55.6275C39.9038 54.8183 39.6215 54.1316 39.0691 53.5799C38.5168 53.0159 37.8294 52.7461 37.0193 52.7461Z" fill="#37156D"/>
<path d="M50.5828 41.5744H42.9971V26.591H37.1913V41.5744H21.1484V47.374H37.1422C38.7256 47.374 40.1004 46.8223 41.2664 45.7188C42.4325 44.6152 43.0094 43.2542 43.0094 41.6235V47.374H50.5337C52.1171 47.374 53.4919 46.8223 54.658 45.7188C55.8241 44.6152 56.401 43.2542 56.401 41.6235V12.8828H50.5951V41.5744H50.5828Z" fill="#37156D"/>
<path d="M89.9472 25.7082C87.3082 25.5978 85.111 26.4071 83.3312 28.136C81.6741 29.7177 80.8395 31.7531 80.8395 34.2176V41.5744H67.718V12.8828H61.9121V41.6235C61.9121 43.242 62.489 44.603 63.6551 45.7188C64.8212 46.8223 66.1959 47.374 67.7793 47.374H80.7781C82.3615 47.374 83.7363 46.8223 84.9023 45.7188C85.6265 45.0321 86.093 44.2351 86.363 43.34V47.374H89.9595C91.8007 47.374 93.5559 47.092 95.213 46.5157C96.87 45.9394 98.3184 44.9463 99.5582 43.524C100.798 42.1016 101.412 40.3851 101.412 38.3497C101.412 35.3334 99.8037 32.1209 96.6 28.7368C94.8079 26.8362 92.5862 25.8185 89.9472 25.7082ZM94.2187 40.6058C93.2736 41.2556 91.862 41.5744 89.984 41.5744H86.6576V34.2176C86.6576 33.4083 86.9031 32.7585 87.3818 32.2803C87.8605 31.7285 88.6338 31.471 89.7017 31.5078C90.7696 31.5446 91.6779 31.9492 92.4144 32.7217C94.5502 34.9287 95.618 36.8293 95.618 38.411C95.6303 39.2325 95.1516 39.9559 94.2187 40.6058Z" fill="#37156D"/>
<path d="M109.021 41.5744H101.436V47.374H108.96C110.543 47.374 111.918 46.8223 113.084 45.7188C114.25 44.6152 114.827 43.2542 114.827 41.6235V12.8828H109.021V41.5744Z" fill="#37156D"/>
<path d="M120.363 47.374C122.131 47.374 123.542 46.7977 124.598 45.6574C125.654 44.5171 126.169 43.058 126.169 41.2924V12.8828H120.363V47.374Z" fill="#37156D"/>
<path d="M150.902 22.3371C151.712 22.3371 152.4 22.0673 152.952 21.5033C153.504 20.9515 153.787 20.2649 153.787 19.4556C153.787 18.6464 153.504 17.9598 152.952 17.408C152.4 16.8562 151.712 16.5742 150.902 16.5742C150.092 16.5742 149.405 16.8562 148.852 17.408C148.3 17.9598 148.018 18.6464 148.018 19.4556C148.018 20.2649 148.3 20.9515 148.852 21.5033C149.417 22.0551 150.092 22.3371 150.902 22.3371Z" fill="#37156D"/>
<path d="M160.648 22.3371C161.458 22.3371 162.146 22.0673 162.698 21.5033C163.25 20.9515 163.533 20.2649 163.533 19.4556C163.533 18.6464 163.25 17.9598 162.698 17.408C162.146 16.8562 161.458 16.5742 160.648 16.5742C159.838 16.5742 159.151 16.8562 158.598 17.408C158.046 17.9598 157.764 18.6464 157.764 19.4556C157.764 20.2649 158.046 20.9515 158.598 21.5033C159.151 22.0551 159.838 22.3371 160.648 22.3371Z" fill="#37156D"/>
<path d="M158.905 27.2537C159.003 27.0698 159.113 26.8981 159.212 26.7019L153.676 24.4336C153.234 25.4635 152.792 26.3709 152.35 27.1434C151.908 27.9158 151.38 28.6638 150.779 29.3872C150.165 30.1106 149.65 30.6746 149.232 31.1038C148.803 31.5329 148.115 32.1582 147.158 32.9798C146.201 33.8135 145.464 34.4879 144.949 35.0029C143.402 36.5846 142.678 38.387 142.788 40.3979C142.899 42.4088 143.672 44.0518 145.108 45.3392C146.581 46.7002 148.349 47.3869 150.423 47.3869H158.168C159.789 47.3869 161.151 46.8351 162.268 45.7316C163.373 44.6281 163.925 43.2425 163.925 41.5872V27.266H158.905V27.2537ZM149.024 41.0723C148.435 40.5205 148.435 39.8706 149.024 39.135C149.061 39.0982 149.809 38.4238 151.27 37.1118C152.731 35.7999 153.676 34.8925 154.118 34.3776C154.56 33.8626 155.308 32.8817 156.364 31.4226C156.99 30.5643 157.555 29.6569 158.107 28.7128V41.5627H150.411C149.822 41.5627 149.355 41.4033 149.024 41.0723Z" fill="#37156D"/>
<path d="M171.768 19.909C172.136 20.0561 172.529 20.0684 172.934 19.9581L183.895 15.9241C184.264 15.8137 184.534 15.5808 184.693 15.2374C184.853 14.8941 184.89 14.514 184.779 14.1094C184.669 13.7415 184.423 13.4841 184.055 13.3369C183.687 13.1898 183.294 13.1653 182.889 13.2756L171.928 17.2606C171.56 17.3709 171.289 17.6161 171.13 17.984C170.97 18.3518 170.934 18.7442 171.044 19.1488C171.154 19.5044 171.4 19.7619 171.768 19.909Z" fill="#37156D"/>
<path d="M206.077 18.7934C206.445 18.9405 206.838 18.965 207.243 18.8424L218.204 14.8084C218.572 14.6981 218.842 14.4651 219.002 14.1218C219.161 13.7785 219.198 13.3984 219.088 12.9938C218.977 12.6259 218.732 12.3684 218.364 12.2213C217.995 12.0742 217.603 12.0496 217.198 12.1723L206.236 16.1572C205.868 16.2676 205.598 16.5128 205.438 16.8806C205.279 17.2485 205.242 17.6408 205.353 18.0454C205.475 18.3888 205.709 18.6463 206.077 18.7934Z" fill="#37156D"/>
<path d="M219.909 26.5913V41.5746H215.649V26.5913H209.844V41.5746H205.584V26.5913H199.778V41.5746H179.145C178.114 40.5692 177.242 39.6006 176.543 38.6687C175.806 37.7001 175.303 36.8908 175.021 36.2655C174.738 35.6401 174.554 35.0639 174.468 34.5489C174.37 34.0339 174.358 33.6538 174.407 33.4208C174.468 33.1879 174.542 33.004 174.652 32.8936C174.984 32.5625 175.561 32.2928 176.371 32.0966C177.181 31.9004 178.482 31.8636 180.274 31.9863C182.066 32.1211 184.042 32.5135 186.227 33.1756L187.884 27.6457C179.55 25.1076 173.756 25.5123 170.504 28.8596C168.994 30.331 168.306 32.0721 168.454 34.083C168.601 36.0938 169.252 38.0679 170.418 40.0297C170.724 40.5447 171.068 41.0597 171.424 41.5746H163.912V47.3743H199.717C201.3 47.3743 202.675 46.8225 203.841 45.719C204.516 45.0814 204.971 44.3457 205.253 43.5242V47.3743H209.794C211.378 47.3743 212.753 46.8225 213.919 45.719C214.594 45.0814 215.048 44.3457 215.33 43.5242V47.3743H219.872C221.455 47.3743 222.83 46.8225 223.996 45.719C225.162 44.6155 225.739 43.2545 225.739 41.6237V26.5913H219.909Z" fill="#37156D"/>
<path d="M22.8281 70.5491C22.558 70.1444 22.2021 69.7888 21.7602 69.5068C21.3306 69.2248 20.7905 68.9919 20.1522 68.8079C19.5262 68.624 18.7652 68.4891 17.9183 68.4156C17.0713 68.3297 16.0648 68.293 14.9355 68.293H12.6893C11.3023 68.293 10.0871 68.342 9.08058 68.4524C8.04951 68.5504 7.15347 68.7098 6.417 68.9183C5.66825 69.1267 5.02997 69.3965 4.55126 69.703C4.06028 70.0218 3.65522 70.3896 3.36063 70.8065C3.06604 71.2234 2.86965 71.7016 2.75918 72.2043C2.66098 72.6948 2.59961 73.2343 2.59961 73.7983C2.59961 74.3255 2.63643 74.8405 2.69781 75.3065C2.77145 75.7969 2.91875 76.2506 3.13969 76.6552C3.37291 77.0598 3.71659 77.4277 4.15848 77.7465C4.58809 78.053 5.16499 78.3105 5.86464 78.5189C6.53974 78.7151 7.38669 78.8623 8.3932 78.9726C9.37516 79.0707 10.5781 79.1197 11.9528 79.1197H15.0337C16.2612 79.1197 17.2554 79.1688 18.0165 79.2791C18.7284 79.3772 19.293 79.5366 19.6735 79.7696C20.0295 79.978 20.2504 80.2478 20.3609 80.5788C20.4959 80.9589 20.5573 81.4617 20.5573 82.0502C20.5573 82.6387 20.4591 83.1169 20.275 83.5093C20.1031 83.8771 19.7963 84.1837 19.3421 84.4167C18.8634 84.6741 18.2128 84.8581 17.3904 84.9807C16.5435 85.1033 15.4633 85.1646 14.1868 85.1646H11.1918C10.0871 85.1646 9.14195 85.1401 8.3932 85.091C7.68128 85.042 7.10437 84.9194 6.67476 84.7354C6.28198 84.5638 6.01194 84.3308 5.85237 83.9998C5.68052 83.6565 5.58233 83.1415 5.58233 82.4916V82.1238H2.59961V82.4916C2.59961 83.0679 2.64871 83.6197 2.7469 84.0979C2.8451 84.6006 3.02922 85.0665 3.29926 85.4711C3.5693 85.8758 3.91299 86.2191 4.35487 86.5133C4.78448 86.8076 5.32456 87.0406 5.96284 87.2245C6.58884 87.4084 7.34986 87.5433 8.19681 87.6291C9.04375 87.715 10.0503 87.764 11.1795 87.764H14.1745C15.4388 87.764 16.5435 87.7027 17.4886 87.5923C18.4461 87.482 19.2685 87.3103 19.9558 87.0896C20.6555 86.8567 21.2324 86.5747 21.6988 86.2436C22.1653 85.9003 22.5335 85.5202 22.8158 85.0788C23.0858 84.6496 23.2822 84.1714 23.3804 83.6442C23.4786 83.1415 23.5277 82.602 23.5277 82.0379C23.5277 81.4739 23.5032 80.9589 23.4418 80.4685C23.3804 79.9658 23.2331 79.4876 23.0245 79.0707C22.8035 78.6416 22.4967 78.2615 22.1039 77.9427C21.7111 77.6239 21.1833 77.3418 20.545 77.1334C19.919 76.925 19.1457 76.7656 18.2497 76.6675C17.3659 76.5694 16.2857 76.5081 15.0337 76.5081H11.9528C10.9709 76.5081 10.1116 76.4836 9.39971 76.4468C8.71234 76.41 8.11089 76.3364 7.6199 76.2383C7.16574 76.1402 6.78523 76.0299 6.51519 75.8827C6.25743 75.7479 6.07331 75.6007 5.93829 75.4168C5.80327 75.2329 5.71735 75.0122 5.66825 74.767C5.61915 74.485 5.5946 74.1539 5.5946 73.7983C5.5946 73.2343 5.6928 72.7561 5.87692 72.3883C6.04876 72.0449 6.39245 71.7629 6.87115 71.5545C7.38669 71.3215 8.12316 71.1499 9.05603 71.0518C10.0134 70.9537 11.2409 70.8924 12.7138 70.8924H14.9601C16.0648 70.8924 17.0099 70.9169 17.7587 70.9659C18.4706 71.015 19.0598 71.1253 19.4894 71.3093C19.8822 71.4687 20.1522 71.7139 20.3118 72.0327C20.4836 72.376 20.5818 72.8787 20.5818 73.5163V73.8841H23.5646V73.5163C23.5646 72.94 23.5155 72.3883 23.4173 71.9101C23.27 71.4074 23.0858 70.9537 22.8281 70.5491Z" fill="#37156D"/>
<path d="M40.3921 74.412C39.7539 73.7989 38.9192 73.3698 37.9127 73.1246C36.943 72.8916 35.7401 72.7812 34.3408 72.7812C32.9415 72.7812 31.714 72.8548 30.7443 72.9897C29.7501 73.1368 28.9277 73.3698 28.3017 73.7009C27.6512 74.0442 27.1725 74.4978 26.8779 75.0619C26.5955 75.6014 26.4605 76.2635 26.4605 77.0237V77.3915H29.4555V77.0237C29.4555 76.6804 29.5169 76.3984 29.6396 76.2022C29.7624 76.0183 29.9833 75.8589 30.3025 75.7362C30.6707 75.6014 31.174 75.5033 31.8122 75.4542C32.4751 75.4052 33.2975 75.3807 34.3408 75.3807C34.9913 75.3807 35.5682 75.3929 36.0838 75.4297C36.5748 75.4665 36.9921 75.5401 37.3481 75.6504C37.6795 75.7608 37.9618 75.9202 38.1827 76.1286C38.4037 76.3371 38.6001 76.6191 38.7474 76.9869C38.9069 77.367 39.0174 77.8575 39.091 78.4337C39.1401 78.8384 39.177 79.3043 39.1892 79.8315C38.9315 79.6721 38.5878 79.5373 38.1336 79.4024C37.6549 79.2553 37.0657 79.1449 36.317 79.0468C35.5928 78.961 34.6722 78.9119 33.592 78.9119C32.8433 78.9119 32.1314 78.9242 31.4685 78.9487C30.7812 78.9732 30.1552 79.0346 29.5905 79.1326C29.0136 79.2307 28.4858 79.3779 28.0194 79.5618C27.5407 79.758 27.1234 80.04 26.7797 80.3956C26.436 80.7511 26.1659 81.1926 25.9941 81.7198C25.8223 82.2225 25.7363 82.8478 25.7363 83.559C25.7363 84.2702 25.9082 84.8955 26.2273 85.4227C26.5465 85.95 27.0743 86.3791 27.7616 86.7102C28.4245 87.029 29.2837 87.2619 30.3147 87.4091C31.3213 87.5562 32.561 87.6298 33.9848 87.6298C35.065 87.6298 35.9488 87.5685 36.6239 87.4459C37.3235 87.311 37.8636 87.1393 38.2932 86.9063C38.6614 86.7102 38.9683 86.4772 39.2138 86.2197V87.36H42.1965V80.6408C42.1965 79.1449 42.0615 77.882 41.7914 76.9011C41.4846 75.8466 41.0181 75.0251 40.3921 74.412ZM38.2809 84.4909C37.9127 84.6625 37.4094 84.7851 36.7712 84.871C36.1206 84.9568 35.3105 85.0058 34.3408 85.0058C33.052 85.0058 31.9964 84.9813 31.2108 84.92C30.462 84.871 29.8851 84.7606 29.5046 84.6135C29.1732 84.4909 28.9645 84.3192 28.8663 84.123C28.7559 83.89 28.6945 83.559 28.6945 83.1544C28.6945 82.7497 28.7436 82.4432 28.8541 82.2225C28.94 82.0386 29.1241 81.9037 29.4064 81.7934C29.7378 81.6707 30.2411 81.5849 30.8916 81.5481C31.5913 81.5114 32.4996 81.4868 33.592 81.4868C34.6845 81.4868 35.6296 81.5236 36.3906 81.5972C37.1148 81.6707 37.7163 81.7811 38.1459 81.9282C38.5387 82.0631 38.821 82.2348 38.9683 82.431C39.1156 82.6271 39.1892 82.8601 39.1892 83.1421C39.1892 83.4241 39.1156 83.6939 38.9928 83.9146C38.8578 84.1475 38.6123 84.3437 38.2809 84.4909Z" fill="#37156D"/>
<path d="M44.3574 73.8835H46.5546L48.2976 68.6602H45.2289L44.3574 73.8835Z" fill="#37156D"/>
<path d="M65.0157 74.412C64.3775 73.7989 63.5428 73.3698 62.5363 73.1246C61.5666 72.8916 60.3637 72.7812 58.9644 72.7812C57.5651 72.7812 56.3376 72.8548 55.3679 72.9897C54.3737 73.1368 53.5513 73.3698 52.9253 73.7009C52.2748 74.0442 51.7961 74.4978 51.5015 75.0619C51.2191 75.6014 51.0841 76.2635 51.0841 77.0237V77.3915H54.0668V77.0237C54.0668 76.6804 54.1282 76.3984 54.251 76.2022C54.3737 76.0183 54.5947 75.8589 54.9138 75.7362C55.282 75.6014 55.7853 75.5033 56.4236 75.4542C57.0864 75.4052 57.9088 75.3807 58.9521 75.3807C59.6027 75.3807 60.1796 75.3929 60.6951 75.4297C61.1861 75.4665 61.6034 75.5401 61.9594 75.6504C62.2908 75.7608 62.5731 75.9202 62.7941 76.1286C63.015 76.3371 63.2114 76.6191 63.3587 76.9869C63.5183 77.367 63.6287 77.8575 63.7024 78.4337C63.7515 78.8384 63.7883 79.3043 63.8006 79.8315C63.5428 79.6721 63.1991 79.5373 62.745 79.4024C62.2662 79.2553 61.6771 79.1449 60.9283 79.0468C60.2041 78.961 59.2835 78.9119 58.2034 78.9119C57.4546 78.9119 56.7427 78.9242 56.0799 78.9487C55.3925 78.9732 54.7665 79.0346 54.2019 79.1326C53.625 79.2307 53.0972 79.3779 52.6307 79.5618C52.152 79.758 51.7347 80.04 51.391 80.3956C51.0473 80.7511 50.7773 81.1926 50.6054 81.7198C50.4336 82.2225 50.3477 82.8478 50.3477 83.559C50.3477 84.2702 50.5195 84.8955 50.8386 85.4227C51.1578 85.95 51.6856 86.3791 52.373 86.7102C53.0358 87.029 53.895 87.2619 54.9261 87.4091C55.9326 87.5562 57.1723 87.6298 58.5962 87.6298C59.6763 87.6298 60.5601 87.5685 61.2352 87.4459C61.9348 87.311 62.4749 87.1393 62.9045 86.9063C63.2728 86.7102 63.5796 86.4772 63.8251 86.2197V87.36H66.8078V80.6408C66.8078 79.1449 66.6728 77.882 66.4028 76.9011C66.1205 75.8466 65.654 75.0251 65.0157 74.412ZM62.9045 84.4909C62.5363 84.6625 62.033 84.7851 61.3948 84.871C60.7442 84.9568 59.9341 85.0058 58.9644 85.0058C57.6756 85.0058 56.62 84.9813 55.8344 84.92C55.0856 84.871 54.5087 84.7606 54.1282 84.6135C53.7968 84.4909 53.5881 84.3192 53.4899 84.123C53.3795 83.89 53.3181 83.559 53.3181 83.1544C53.3181 82.7497 53.3672 82.4432 53.4777 82.2225C53.5636 82.0386 53.7477 81.9037 54.03 81.7934C54.3614 81.6707 54.8647 81.5849 55.5152 81.5481C56.2149 81.5114 57.1232 81.4868 58.2156 81.4868C59.3081 81.4868 60.2532 81.5236 61.0142 81.5972C61.7384 81.6707 62.3399 81.7811 62.7695 81.9282C63.1623 82.0631 63.4446 82.2348 63.5919 82.431C63.7392 82.6271 63.8128 82.8601 63.8128 83.1421C63.8128 83.4241 63.7392 83.6939 63.6165 83.9146C63.4814 84.1475 63.2482 84.3437 62.9045 84.4909Z" fill="#37156D"/>
<path d="M85.0719 75.8359C84.8877 75.3332 84.63 74.8795 84.2986 74.4994C83.9672 74.107 83.513 73.7882 82.9729 73.5307C82.4451 73.2855 81.7946 73.0893 81.0458 72.9667C80.0393 72.7951 78.8241 72.7337 77.1916 72.8196C76.7497 72.8441 76.2956 72.8931 75.8414 72.9544C75.3872 73.0158 74.9208 73.1138 74.4789 73.2242C74.0125 73.3468 73.5829 73.5062 73.1901 73.7024C72.785 73.8986 72.4168 74.1561 72.1099 74.4381C72.0977 74.4503 72.0731 74.4626 72.0608 74.4871V68.6875H69.0781V87.3615H72.0608V78.656C72.0608 78.1533 72.1345 77.6996 72.2941 77.3072C72.4414 76.9271 72.6991 76.6206 73.0796 76.3386C73.4847 76.0566 74.0493 75.8236 74.7735 75.6642C75.5223 75.4926 76.492 75.4067 77.6826 75.4067C78.775 75.4067 79.6588 75.4803 80.3093 75.6274C80.9231 75.7623 81.4018 75.983 81.7332 76.2773C82.0523 76.5716 82.261 76.9517 82.3715 77.4421C82.4942 77.9694 82.5556 78.6315 82.5556 79.4162V87.3738H85.5383V79.4162C85.5506 78.7418 85.5383 78.1042 85.4647 77.5157C85.3665 76.8781 85.256 76.3263 85.0719 75.8359Z" fill="#37156D"/>
<path d="M93.75 87.3342H96.7327V79.1068H110.947V76.5074H96.7327V71.2596H111.695V68.6602H93.75V87.3342Z" fill="#37156D"/>
<path d="M116.936 73.1484H113.953V87.3348H116.936V73.1484Z" fill="#37156D"/>
<path d="M116.936 68.6602H113.953V71.6397H116.936V68.6602Z" fill="#37156D"/>
<path d="M135.963 75.8962C135.779 75.3812 135.521 74.9275 135.19 74.5352C134.858 74.1428 134.404 73.7995 133.864 73.542C133.324 73.2845 132.673 73.0883 131.937 72.9657C131.201 72.8431 130.317 72.7695 129.298 72.7695C128.954 72.7695 128.561 72.7818 128.144 72.8063C127.715 72.8308 127.273 72.8799 126.819 72.9412C126.364 73.0148 125.898 73.1006 125.444 73.2355C124.977 73.3581 124.535 73.5297 124.13 73.7382C123.725 73.9466 123.345 74.2041 123.026 74.4984C123.001 74.5229 122.964 74.5474 122.94 74.5842V73.1496H119.957V87.336H122.94V78.7531C122.94 78.2381 123.013 77.7599 123.173 77.3553C123.32 76.9629 123.578 76.6319 123.959 76.3498C124.364 76.0556 124.928 75.8226 125.652 75.651C126.389 75.4793 127.371 75.3935 128.549 75.3935C129.642 75.3935 130.525 75.467 131.176 75.6142C131.79 75.749 132.268 75.982 132.6 76.2885C132.919 76.5828 133.128 76.9874 133.238 77.4779C133.361 78.0174 133.422 78.704 133.422 79.501V87.336H136.405V79.501C136.417 78.8144 136.405 78.1645 136.331 77.576C136.258 76.9507 136.135 76.3989 135.963 75.8962Z" fill="#37156D"/>
<path d="M153.258 74.412C152.62 73.7989 151.785 73.3698 150.778 73.1246C149.809 72.8916 148.606 72.7812 147.207 72.7812C145.807 72.7812 144.58 72.8548 143.61 72.9897C142.616 73.1368 141.794 73.3698 141.167 73.7009C140.517 74.0442 140.038 74.4978 139.744 75.0619C139.461 75.6014 139.326 76.2635 139.326 77.0237V77.3915H142.309V77.0237C142.309 76.6804 142.37 76.3984 142.493 76.2022C142.616 76.0183 142.837 75.8589 143.156 75.7362C143.524 75.6014 144.027 75.5033 144.666 75.4542C145.329 75.4052 146.151 75.3807 147.194 75.3807C147.845 75.3807 148.422 75.3929 148.937 75.4297C149.428 75.4665 149.846 75.5401 150.202 75.6504C150.533 75.7608 150.815 75.9202 151.036 76.1286C151.257 76.3371 151.454 76.6191 151.601 76.9869C151.76 77.367 151.871 77.8575 151.945 78.4337C151.994 78.8384 152.03 79.3043 152.043 79.8315C151.785 79.6721 151.441 79.5373 150.987 79.4024C150.508 79.2553 149.919 79.1449 149.171 79.0468C148.446 78.961 147.526 78.9119 146.446 78.9119C145.697 78.9119 144.985 78.9242 144.322 78.9487C143.635 78.9732 143.009 79.0346 142.444 79.1326C141.867 79.2307 141.339 79.3779 140.873 79.5618C140.394 79.758 139.977 80.04 139.633 80.3956C139.289 80.7511 139.019 81.1926 138.848 81.7198C138.676 82.2225 138.59 82.8478 138.59 83.559C138.59 84.2702 138.762 84.8955 139.081 85.4227C139.4 85.95 139.928 86.3791 140.615 86.7102C141.278 87.029 142.137 87.2619 143.168 87.4091C144.175 87.5562 145.414 87.6298 146.838 87.6298C147.918 87.6298 148.802 87.5685 149.477 87.4459C150.177 87.311 150.717 87.1393 151.147 86.9063C151.515 86.7102 151.822 86.4772 152.067 86.2197V87.36H155.05V80.6408C155.05 79.1449 154.915 77.882 154.645 76.9011C154.35 75.8466 153.896 75.0251 153.258 74.412ZM151.147 84.4909C150.778 84.6625 150.275 84.7851 149.637 84.871C148.986 84.9568 148.176 85.0058 147.207 85.0058C145.918 85.0058 144.862 84.9813 144.077 84.92C143.328 84.871 142.751 84.7606 142.37 84.6135C142.039 84.4909 141.83 84.3192 141.732 84.123C141.622 83.89 141.56 83.559 141.56 83.1544C141.56 82.7497 141.609 82.4432 141.72 82.2225C141.806 82.0386 141.99 81.9037 142.272 81.7934C142.604 81.6707 143.107 81.5849 143.757 81.5481C144.457 81.5114 145.365 81.4868 146.458 81.4868C147.55 81.4868 148.495 81.5236 149.256 81.5972C149.981 81.6707 150.582 81.7811 151.012 81.9282C151.404 82.0631 151.687 82.2348 151.834 82.431C151.981 82.6271 152.055 82.8601 152.055 83.1421C152.055 83.4241 151.981 83.6939 151.859 83.9146C151.724 84.1475 151.49 84.3437 151.147 84.4909Z" fill="#37156D"/>
<path d="M173.315 75.8962C173.13 75.3812 172.873 74.9275 172.541 74.5352C172.21 74.1428 171.756 73.7995 171.216 73.542C170.676 73.2845 170.025 73.0883 169.289 72.9657C168.552 72.8431 167.668 72.7695 166.65 72.7695C166.306 72.7695 165.913 72.7818 165.496 72.8063C165.066 72.8308 164.624 72.8799 164.17 72.9412C163.716 73.0148 163.249 73.1006 162.795 73.2355C162.329 73.3581 161.887 73.5297 161.482 73.7382C161.077 73.9466 160.696 74.2041 160.377 74.4984C160.353 74.5229 160.316 74.5474 160.291 74.5842V73.1496H157.309V87.336H160.291V78.7531C160.291 78.2381 160.365 77.7599 160.525 77.3553C160.672 76.9629 160.93 76.6319 161.31 76.3498C161.715 76.0556 162.28 75.8226 163.004 75.651C163.74 75.4793 164.722 75.3935 165.901 75.3935C166.993 75.3935 167.877 75.467 168.528 75.6142C169.141 75.749 169.62 75.982 169.951 76.2885C170.271 76.5828 170.479 76.9874 170.59 77.4779C170.712 78.0174 170.774 78.704 170.774 79.501V87.336H173.756V79.501C173.769 78.8144 173.756 78.1645 173.683 77.576C173.609 76.9507 173.499 76.3989 173.315 75.8962Z" fill="#37156D"/>
<path d="M190.436 73.9349C189.835 73.5303 189.025 73.236 188.006 73.0398C187.024 72.8559 185.748 72.7578 184.238 72.7578C183.121 72.7578 182.114 72.8069 181.255 72.9049C180.384 73.003 179.623 73.1624 178.997 73.3831C178.346 73.6161 177.794 73.9226 177.352 74.3027C176.91 74.6828 176.554 75.1733 176.296 75.7496C176.051 76.3013 175.867 76.9635 175.768 77.6991C175.67 78.4226 175.621 79.2686 175.621 80.2005C175.621 81.1323 175.67 81.9538 175.768 82.665C175.867 83.4007 176.038 84.0505 176.296 84.6023C176.554 85.1663 176.91 85.6445 177.34 86.0369C177.769 86.417 178.322 86.7358 178.984 86.9565C179.623 87.1772 180.384 87.3488 181.243 87.4346C182.102 87.5327 183.096 87.5818 184.226 87.5818C185.735 87.5818 187.012 87.4837 187.994 87.2998C189.013 87.1036 189.823 86.7971 190.424 86.3802C191.05 85.951 191.492 85.3993 191.738 84.7249C191.971 84.0873 192.081 83.3271 192.081 82.4688V82.101H189.099V82.4688C189.099 82.7631 189.086 83.0328 189.074 83.278C189.062 83.4865 189.013 83.6827 188.939 83.8543C188.865 84.0137 188.755 84.1486 188.583 84.2835C188.411 84.4184 188.141 84.541 187.81 84.6391C187.441 84.7494 186.963 84.823 186.398 84.8843C185.821 84.9456 185.085 84.9701 184.226 84.9701C183.244 84.9701 182.409 84.9333 181.746 84.872C181.096 84.7985 180.555 84.7004 180.138 84.541C179.745 84.4061 179.451 84.2222 179.254 84.0015C179.046 83.7808 178.911 83.511 178.812 83.18C178.714 82.8244 178.653 82.4075 178.628 81.9293C178.604 81.4266 178.604 80.838 178.604 80.1882C178.604 79.5383 178.616 78.9253 178.628 78.4103C178.641 77.9198 178.702 77.4907 178.812 77.1351C178.911 76.8041 179.058 76.5343 179.254 76.3013C179.451 76.0806 179.745 75.8967 180.138 75.7618C180.555 75.6147 181.096 75.5043 181.746 75.443C182.409 75.3695 183.244 75.345 184.226 75.345C185.085 75.345 185.809 75.3695 186.398 75.4308C186.963 75.4798 187.441 75.5657 187.81 75.6637C188.153 75.7618 188.411 75.8722 188.583 76.0071C188.743 76.1297 188.865 76.2646 188.939 76.4117C189.013 76.5711 189.062 76.755 189.074 76.9512C189.086 77.1964 189.099 77.4539 189.099 77.7359V78.1038H192.081V77.7359C192.081 76.8899 191.959 76.1542 191.725 75.5289C191.492 74.9035 191.05 74.364 190.436 73.9349Z" fill="#37156D"/>
<path d="M198.084 68.6602H195.102V71.6397H198.084V68.6602Z" fill="#37156D"/>
<path d="M198.084 73.1484H195.102V87.3348H198.084V73.1484Z" fill="#37156D"/>
<path d="M215.686 74.412C215.047 73.7989 214.213 73.3698 213.206 73.1246C212.237 72.8916 211.034 72.7812 209.634 72.7812C208.235 72.7812 207.008 72.8548 206.038 72.9897C205.044 73.1368 204.221 73.3698 203.595 73.7009C202.945 74.0442 202.466 74.4978 202.171 75.0619C201.889 75.6014 201.754 76.2635 201.754 77.0237V77.3915H204.737V77.0237C204.737 76.6804 204.798 76.3984 204.921 76.2022C205.044 76.0183 205.265 75.8589 205.584 75.7362C205.952 75.6014 206.455 75.5033 207.093 75.4542C207.756 75.4052 208.579 75.3807 209.622 75.3807C210.273 75.3807 210.849 75.3929 211.365 75.4297C211.856 75.4665 212.273 75.5401 212.629 75.6504C212.961 75.7608 213.243 75.9202 213.464 76.1286C213.685 76.3371 213.881 76.6191 214.029 76.9869C214.188 77.367 214.299 77.8575 214.372 78.4337C214.421 78.8384 214.458 79.3043 214.47 79.8315C214.213 79.6721 213.869 79.5373 213.415 79.4024C212.936 79.2553 212.347 79.1449 211.598 79.0468C210.874 78.961 209.953 78.9119 208.873 78.9119C208.125 78.9119 207.413 78.9242 206.75 78.9487C206.062 78.9732 205.436 79.0346 204.872 79.1326C204.295 79.2307 203.767 79.3779 203.301 79.5618C202.822 79.758 202.405 80.04 202.061 80.3956C201.717 80.7511 201.447 81.1926 201.275 81.7198C201.103 82.2225 201.018 82.8478 201.018 83.559C201.018 84.2702 201.189 84.8955 201.509 85.4227C201.84 85.95 202.355 86.3791 203.043 86.7102C203.706 87.029 204.565 87.2619 205.596 87.4091C206.602 87.5562 207.842 87.6298 209.266 87.6298C210.346 87.6298 211.23 87.5685 211.905 87.4459C212.605 87.311 213.145 87.1393 213.574 86.9063C213.943 86.7102 214.25 86.4772 214.495 86.2197V87.36H217.478V80.6408C217.478 79.1449 217.343 77.882 217.073 76.9011C216.79 75.8466 216.324 75.0251 215.686 74.412ZM213.574 84.4909C213.206 84.6625 212.703 84.7851 212.065 84.871C211.414 84.9568 210.604 85.0058 209.634 85.0058C208.345 85.0058 207.29 84.9813 206.504 84.92C205.756 84.871 205.179 84.7606 204.798 84.6135C204.467 84.4909 204.258 84.3192 204.16 84.123C204.049 83.89 203.988 83.559 203.988 83.1544C203.988 82.7497 204.037 82.4432 204.148 82.2225C204.234 82.0386 204.418 81.9037 204.7 81.7934C205.031 81.6707 205.535 81.5849 206.185 81.5481C206.885 81.5114 207.793 81.4868 208.886 81.4868C209.978 81.4868 210.923 81.5236 211.684 81.5972C212.408 81.6707 213.01 81.7811 213.439 81.9282C213.832 82.0631 214.115 82.2348 214.262 82.431C214.409 82.6271 214.483 82.8601 214.483 83.1421C214.483 83.4241 214.409 83.6939 214.286 83.9146C214.151 84.1475 213.918 84.3437 213.574 84.4909Z" fill="#37156D"/>
<path d="M223.455 68.6602H220.473V87.3342H223.455V68.6602Z" fill="#37156D"/>
<defs>
<linearGradient id="paint0_linear_226_13806" x1="279.244" y1="83.7058" x2="358.134" y2="-66.6148" gradientUnits="userSpaceOnUse">
<stop stop-color="#472C99"/>
<stop offset="0.57" stop-color="#F09B37"/>
</linearGradient>
</defs>
</svg>
