<svg width="101" height="101" viewBox="0 0 101 101" fill="none" xmlns="http://www.w3.org/2000/svg">
<g id="Group">
<path id="Vector" d="M81.4828 100.651H19.9872C9.21018 100.651 0.470703 91.9209 0.470703 81.1555V19.726C0.470703 8.96056 9.21018 0.230469 19.9872 0.230469H81.4828C92.2598 0.230469 100.999 8.96056 100.999 19.726V81.1555C101.012 91.9209 92.2721 100.651 81.4828 100.651Z" fill="url(#paint0_linear_226_13807)"/>
<path id="Vector_2" d="M44.1064 66.9936L34.8023 71.3954C34.2868 71.6406 33.7344 71.7632 33.1698 71.7632C32.7033 71.7632 32.2492 71.6774 31.8073 71.5057L22.54 67.9622C21.0548 67.3859 20.0605 65.9636 20.0605 64.3696V33.9737C20.0605 31.8525 21.7913 30.1236 23.9148 30.1236H31.2795C33.3662 30.1236 35.2565 31.6808 35.3424 33.7653C35.4406 35.9478 33.6976 37.7502 31.525 37.7502H27.7321C27.7321 37.7502 27.6953 37.7502 27.6953 37.787V61.7457C27.6953 61.7457 27.7076 61.7702 27.7199 61.7825L32.9979 63.8056H33.0225L38.6565 61.1449C38.6565 61.1449 38.6811 61.1204 38.6811 61.1081V27.1564C38.6811 26.0774 39.1352 25.0352 39.9453 24.3117L44.1801 20.4617C45.2725 19.4685 46.8314 19.1988 48.1938 19.7505L55.129 22.5829C57.0561 23.3676 58.2099 25.5256 57.5102 27.4874C56.7737 29.5474 54.4784 30.5528 52.4654 29.7313L47.5556 27.7204C47.5556 27.7204 47.531 27.7204 47.5187 27.7204L46.3404 28.7994C46.3404 28.7994 46.3281 28.7994 46.3281 28.8239V63.5113C46.3158 64.9827 45.4566 66.3437 44.1064 66.9813V66.9936ZM79.0889 32.9192L69.662 28.873C68.5819 28.407 67.3544 28.4684 66.3234 29.0201L57.1911 33.9124C55.9391 34.5868 55.1535 35.8865 55.1535 37.3088V71.9717C55.1535 71.9717 55.1535 71.9962 55.1412 71.9962L53.877 73.1242C53.877 73.1242 53.8524 73.1365 53.8401 73.1365L48.5375 70.7823C46.635 69.9363 44.2782 70.5984 43.3454 72.4621C42.3757 74.4239 43.2349 76.7781 45.2111 77.6487L53.0177 81.1064C53.5087 81.3271 54.0365 81.4375 54.5643 81.4375C55.4849 81.4375 56.3932 81.1064 57.1174 80.4688L61.4995 76.5452C62.3218 75.8095 62.7883 74.7673 62.7883 73.676V39.5894C62.7883 39.5894 62.8006 39.5649 62.8128 39.5526L68.3118 36.6099H68.3487L73.774 38.9396C73.774 38.9396 73.7986 38.9641 73.7986 38.9763V63.0454C73.7986 63.0454 73.7863 63.0822 73.7617 63.0822H70.2144C68.1277 63.0822 66.2374 64.6394 66.1515 66.7238C66.0533 68.9063 67.7963 70.7088 69.9689 70.7088H77.5791C79.7026 70.7088 81.4333 68.9799 81.4333 66.8587V36.4628C81.4333 34.9178 80.5005 33.5323 79.0889 32.9192Z" fill="white"/>
</g>
<defs>
<linearGradient id="paint0_linear_226_13807" x1="33.2438" y1="83.7058" x2="112.134" y2="-66.6148" gradientUnits="userSpaceOnUse">
<stop stop-color="#472C99"/>
<stop offset="0.57" stop-color="#F09B37"/>
</linearGradient>
</defs>
</svg>
