<svg width="48" height="48" viewBox="0 0 48 48" fill="none" xmlns="http://www.w3.org/2000/svg">
<g id="SBD">
<g id="Group 1000004417">
<path id="Vector" d="M45.1835 18.3264C44.2572 15.8442 42.815 13.5868 40.9522 11.7029C39.0893 9.81908 36.8481 8.35174 34.3764 7.39777C32.566 6.6951 30.668 6.24339 28.7352 6.05518C30.1103 7.84935 30.982 9.97786 31.2602 12.2212C31.3776 12.937 31.2087 13.6702 30.79 14.2626C30.3713 14.8549 29.7365 15.2588 29.0226 15.3871C29.374 15.4897 29.7191 15.6133 30.0557 15.7573C31.345 16.301 32.4965 17.1259 33.4261 18.1717C34.3857 19.2704 35.1164 20.5496 35.5753 21.9343C36.5699 25.1032 36.5699 28.5007 35.5753 31.6696C35.1164 33.0543 34.3857 34.3335 33.4261 35.4321C32.4998 36.4816 31.3474 37.3072 30.0557 37.8466C28.6542 38.4222 27.1506 38.7079 25.6357 38.6864H19.4199C19.4475 39.2058 19.4807 39.7252 19.5083 40.239C19.558 41.0401 19.6022 41.8413 19.6409 42.6369C19.6409 42.7695 19.6409 42.9021 19.6409 43.0292C19.6409 43.1562 19.6409 43.4215 19.6741 43.6204C19.6984 43.8228 19.7335 44.0238 19.779 44.2226C19.9859 44.2765 20.1964 44.3152 20.4089 44.3386C20.6686 44.3718 20.9338 44.4215 21.1935 44.4712L21.4311 44.521C22.0597 44.6359 22.629 44.9652 23.042 45.4528C23.4551 45.9404 23.6863 46.5562 23.6963 47.1951V47.4935C23.6963 47.5598 23.6963 47.6261 23.6963 47.6924H25.9727C28.8605 47.7319 31.7288 47.2142 34.4206 46.1674C36.88 45.2071 39.1103 43.7411 40.9672 41.8643C42.8241 39.9874 44.2662 37.7415 45.2001 35.2719C47.1892 29.8043 47.1892 23.8107 45.2001 18.343L45.1835 18.3264Z" fill="white"/>
<path id="Vector_2" d="M20.9503 47.5211C20.614 47.5973 20.2723 47.6472 19.9282 47.6703C17.5911 47.6427 15.2595 47.5708 12.9224 47.5543C11.8616 47.5543 10.8007 47.6537 9.73438 47.6703C9.41088 47.645 9.0907 47.5876 8.77855 47.499V47.2117C9.02785 47.1464 9.28054 47.0947 9.53548 47.057C11.9058 46.8029 12.74 46.0128 12.9168 43.6757C13.6351 34.1467 13.9114 24.6048 13.7456 15.0501C13.7464 14.7255 13.6417 14.4094 13.4473 14.1495L7.85586 21.0172C6.80057 18.9674 6.8116 16.9507 7.18178 14.8954C7.56986 12.8554 8.56109 10.9789 10.0272 9.50839L1.30859 12.6301C1.69535 10.2045 2.35285 8.07739 4.35846 6.71268C6.36408 5.34798 8.59621 5.51373 10.8449 6.10492L10.9554 5.87287C10.0217 5.16566 9.09348 4.44739 8.15974 3.74571C7.22599 3.04402 6.27568 2.34233 5.33089 1.64064C7.77851 -1.17716 12.9832 0.690316 14.9391 5.13803C15.917 2.19314 17.9558 0.684788 20.8785 0.386432C21.544 0.312372 22.2176 0.378328 22.8561 0.58005C23.4945 0.781772 24.0837 1.1148 24.5859 1.55775L18.9171 5.84524L18.8508 6.09388C24.4864 4.70707 27.6191 6.93922 28.5529 12.6411L19.7956 9.50286C22.9836 13.5583 23.8621 17.9066 21.9559 20.9785C20.0663 18.6524 18.1989 16.354 16.1435 13.8345C16.0859 14.2006 16.0472 14.5695 16.0275 14.9396C16.1767 21.6802 16.3148 28.4153 16.4971 35.1504C16.5689 37.6919 16.7513 40.228 16.8839 42.7695C16.8839 43.1508 16.8839 43.5375 16.9446 43.9188C17.1933 46.0625 17.9337 46.7973 20.0774 47.068C20.3702 47.1067 20.6299 47.173 20.9448 47.2228L20.9503 47.5211Z" fill="white"/>
</g>
</g>
</svg>
