<svg width="24" height="25" viewBox="0 0 24 25" fill="none" xmlns="http://www.w3.org/2000/svg">
<path d="M19.5 3.86328H4.5C4.10218 3.86328 3.72064 4.02132 3.43934 4.30262C3.15804 4.58393 3 4.96546 3 5.36328V20.3633C3 20.7611 3.15804 21.1426 3.43934 21.4239C3.72064 21.7052 4.10218 21.8633 4.5 21.8633H19.5C19.8978 21.8633 20.2794 21.7052 20.5607 21.4239C20.842 21.1426 21 20.7611 21 20.3633V5.36328C21 4.96546 20.842 4.58393 20.5607 4.30262C20.2794 4.02132 19.8978 3.86328 19.5 3.86328Z" stroke="black" stroke-width="2" stroke-linecap="round" stroke-linejoin="round"/>
<path d="M10.5 16.3633L13 18.3633L17 13.3633M7 8.36328H17M7 12.3633H11" stroke="black" stroke-width="2" stroke-linecap="round" stroke-linejoin="round"/>
</svg>
