<svg width="26" height="26" viewBox="0 0 26 26" fill="none" xmlns="http://www.w3.org/2000/svg">
<g id="svgexport-17 (5) 1" clip-path="url(#clip0_391_33468)">
<g id="Group">
<path id="Vector" d="M11.9214 5.44459C11.9214 5.33851 11.9635 5.23676 12.0385 5.16175C12.1136 5.08674 12.2153 5.04459 12.3214 5.04459H16.8714C17.8082 5.04565 18.7063 5.41826 19.3687 6.08069C20.0312 6.74311 20.4038 7.64124 20.4048 8.57804V10.1735L21.7919 8.41464C21.8244 8.37339 21.8648 8.33896 21.9106 8.3133C21.9564 8.28764 22.0069 8.27126 22.059 8.26509C22.1112 8.25892 22.1641 8.26309 22.2146 8.27736C22.2652 8.29163 22.3124 8.31571 22.3537 8.34824C22.3949 8.38077 22.4294 8.42111 22.455 8.46694C22.4807 8.51278 22.4971 8.56322 22.5032 8.61539C22.5094 8.66756 22.5052 8.72043 22.491 8.77099C22.4767 8.82154 22.4526 8.86879 22.4201 8.91004L20.3189 11.5744C20.2815 11.6219 20.2338 11.6603 20.1794 11.6867C20.125 11.713 20.0653 11.7267 20.0049 11.7267C19.9444 11.7267 19.8847 11.713 19.8303 11.6867C19.7759 11.6603 19.7282 11.6219 19.6908 11.5744L17.5896 8.90999C17.5566 8.8688 17.5321 8.82147 17.5174 8.77074C17.5028 8.72 17.4983 8.66687 17.5043 8.61441C17.5103 8.56195 17.5266 8.51119 17.5523 8.46507C17.578 8.41894 17.6126 8.37836 17.6541 8.34567C17.6955 8.31297 17.7431 8.28881 17.7939 8.27458C17.8448 8.26035 17.8979 8.25633 17.9503 8.26274C18.0027 8.26916 18.0534 8.28589 18.0993 8.31197C18.1452 8.33805 18.1855 8.37296 18.2178 8.41469L19.6047 10.1735V8.57804C19.6039 7.85333 19.3157 7.15854 18.8032 6.64609C18.2908 6.13365 17.596 5.8454 16.8713 5.84459H12.3213C12.2152 5.84457 12.1135 5.80241 12.0385 5.7274C11.9635 5.65239 11.9214 5.55066 11.9214 5.44459ZM12.2924 19.8646H8.23239C7.50766 19.8638 6.81286 19.5755 6.30042 19.063C5.78797 18.5505 5.49973 17.8557 5.49894 17.131V13.4014L6.88594 15.1603C6.95163 15.2436 7.04773 15.2974 7.15309 15.3098C7.25845 15.3223 7.36444 15.2924 7.44774 15.2267C7.53104 15.161 7.58484 15.0649 7.59729 14.9595C7.60975 14.8542 7.57983 14.7482 7.51414 14.6649L5.41294 12.0004C5.3755 11.9529 5.32778 11.9145 5.27337 11.8881C5.21896 11.8617 5.15927 11.848 5.09879 11.848C5.03831 11.848 4.97862 11.8617 4.92421 11.8881C4.8698 11.9145 4.82208 11.9529 4.78464 12.0004L2.68369 14.6649C2.61799 14.7482 2.58807 14.8542 2.60052 14.9596C2.61297 15.065 2.66676 15.1611 2.75006 15.2268C2.83337 15.2925 2.93936 15.3224 3.04472 15.3099C3.15009 15.2975 3.24619 15.2437 3.31189 15.1604L4.69884 13.4016V17.1309C4.69987 18.0677 5.07247 18.9659 5.73489 19.6283C6.39732 20.2908 7.29546 20.6634 8.23229 20.6645H12.2923C12.3984 20.6645 12.5001 20.6223 12.5751 20.5473C12.6501 20.4723 12.6923 20.3706 12.6923 20.2645C12.6923 20.1584 12.6501 20.0567 12.5751 19.9816C12.5001 19.9066 12.3984 19.8645 12.2923 19.8645L12.2924 19.8646ZM25.6546 16.5077V22.5695C25.6546 22.6397 25.6362 22.7087 25.601 22.7695C25.5659 22.8303 25.5154 22.8808 25.4546 22.9159L20.2049 25.9468C20.1441 25.9819 20.0752 26.0004 20.0049 26.0004C19.9347 26.0004 19.8657 25.9819 19.8049 25.9468L14.5553 22.9159C14.4945 22.8808 14.444 22.8303 14.4089 22.7695C14.3738 22.7087 14.3553 22.6397 14.3553 22.5695V16.5077C14.3553 16.4375 14.3738 16.3685 14.4089 16.3077C14.444 16.2469 14.4945 16.1964 14.5553 16.1613L19.8049 13.1304C19.8657 13.0953 19.9347 13.0768 20.0049 13.0768C20.0752 13.0768 20.1441 13.0953 20.2049 13.1304L25.4546 16.1613C25.5154 16.1964 25.5659 16.2469 25.601 16.3077C25.6362 16.3685 25.6546 16.4375 25.6546 16.5077ZM15.5553 16.5077L20.0049 19.0767L24.4546 16.5077L20.0049 13.9386L15.5553 16.5077ZM15.1553 22.3385L19.6049 24.9076V19.7695L15.1553 17.2004V22.3385ZM24.8546 22.3385V17.2004L20.4049 19.7694V24.9076L24.8546 22.3385ZM5.49884 8.28139V8.01744C5.96719 7.94364 6.37674 7.73964 6.63184 7.44469C6.74954 7.30896 6.83673 7.14954 6.88751 6.97721C6.93829 6.80488 6.95148 6.62366 6.92619 6.44579C6.83384 5.68519 6.24224 5.21009 5.16774 5.03369C4.23464 4.88039 4.21649 4.51039 4.20964 4.37069C4.18994 3.96569 4.52619 3.74369 4.84739 3.67069C4.92861 3.6524 5.01149 3.64246 5.09474 3.64104H5.09874C5.10154 3.64104 5.10424 3.64069 5.10704 3.64064C5.48104 3.63784 5.86994 3.80894 6.04974 4.23719C6.0915 4.33397 6.16977 4.41034 6.26753 4.44973C6.3653 4.48911 6.47465 4.48832 6.57183 4.44752C6.66902 4.40673 6.74617 4.32922 6.78652 4.23185C6.82688 4.13449 6.82717 4.02513 6.78734 3.92754C6.67793 3.65877 6.50248 3.42194 6.27724 3.23898C6.05199 3.05602 5.78423 2.93284 5.49874 2.88084V2.60774C5.49874 2.50166 5.4566 2.39991 5.38158 2.3249C5.30657 2.24989 5.20483 2.20774 5.09874 2.20774C4.99265 2.20774 4.89091 2.24989 4.8159 2.3249C4.74088 2.39991 4.69874 2.50166 4.69874 2.60774V2.88479C4.68934 2.88679 4.67979 2.88854 4.67044 2.89069C3.88144 3.06964 3.37514 3.68004 3.41044 4.40954C3.43599 4.93674 3.73909 5.60989 5.03789 5.82314C5.94819 5.97254 6.10069 6.28594 6.13179 6.54219C6.14356 6.60924 6.14022 6.67808 6.122 6.74367C6.10378 6.80927 6.07115 6.86997 6.02649 6.92134C5.86284 7.11059 5.51784 7.23864 5.14759 7.24739C4.72369 7.25794 4.18029 7.08204 4.04854 6.55369C4.02287 6.45076 3.95735 6.36223 3.86641 6.3076C3.77547 6.25297 3.66655 6.2367 3.56361 6.26237C3.46068 6.28804 3.37215 6.35355 3.31752 6.4445C3.26289 6.53544 3.24662 6.64436 3.27229 6.74729C3.43729 7.40844 3.98589 7.88004 4.69859 8.01109V8.28139C4.69859 8.38748 4.74073 8.48922 4.81575 8.56424C4.89076 8.63925 4.9925 8.68139 5.09859 8.68139C5.20468 8.68139 5.30642 8.63925 5.38143 8.56424C5.45645 8.48922 5.49859 8.38748 5.49859 8.28139H5.49884ZM5.09884 10.4888C4.10119 10.4888 3.12595 10.1929 2.29645 9.63867C1.46694 9.0844 0.820418 8.2966 0.438642 7.37489C0.0568664 6.45318 -0.0430185 5.43896 0.151619 4.46049C0.346256 3.48201 0.826673 2.58323 1.53212 1.87779C2.23757 1.17235 3.13636 0.69194 4.11483 0.497312C5.09331 0.302685 6.10753 0.402579 7.02923 0.784365C7.95094 1.16615 8.73873 1.81268 9.29299 2.64219C9.84725 3.4717 10.1431 4.44695 10.1431 5.44459C10.1416 6.78194 9.60961 8.06406 8.66396 9.0097C7.71832 9.95534 6.43618 10.4873 5.09884 10.4888ZM5.09884 9.68879C5.93826 9.68879 6.75884 9.43987 7.45679 8.97352C8.15475 8.50716 8.69874 7.8443 9.01997 7.06878C9.3412 6.29325 9.42525 5.43988 9.26149 4.61659C9.09772 3.7933 8.6935 3.03705 8.09994 2.44349C7.50638 1.84993 6.75014 1.44571 5.92684 1.28194C5.10355 1.11818 4.25018 1.20223 3.47465 1.52346C2.69913 1.8447 2.03628 2.38869 1.56992 3.08664C1.10356 3.7846 0.85464 4.60517 0.85464 5.44459C0.855937 6.56983 1.30351 7.6486 2.09917 8.44426C2.89483 9.23992 3.97361 9.6875 5.09884 9.68879Z" fill="#37156D"/>
</g>
</g>
<defs>
<clipPath id="clip0_391_33468">
<rect width="25.6" height="25.6" fill="white" transform="translate(0.0546875 0.400391)"/>
</clipPath>
</defs>
</svg>
